<svg width="35" height="35" viewBox="0 0 35 35" fill="none" xmlns="http://www.w3.org/2000/svg">
<path d="M33.6121 11.3409C33.5886 11.2983 33.5595 11.2592 33.5255 11.2245L32.6748 10.3827L32.5762 10.3081C32.4735 10.2417 32.3538 10.2065 32.2315 10.2065C32.1092 10.2065 31.9895 10.2417 31.8867 10.3081L31.7882 10.3827C31.5694 10.6039 31.2993 10.7676 31.002 10.8596C30.7048 10.9515 30.3894 10.9687 30.0839 10.9097C29.7784 10.8506 29.4922 10.7172 29.2505 10.5211C29.0089 10.3251 28.8193 10.0725 28.6986 9.78567C28.5155 9.32046 28.5155 8.80312 28.6986 8.33791C28.7933 8.10882 28.9311 7.90003 29.1046 7.72296C29.2213 7.60313 29.2866 7.44247 29.2866 7.2752C29.2866 7.10793 29.2213 6.94727 29.1046 6.82744L29.0091 6.7409L27.4001 5.14385L27.2718 4.99459C27.2151 4.93504 27.1471 4.88736 27.0718 4.8543C26.957 4.80567 26.8302 4.79303 26.7081 4.81808C26.5861 4.84314 26.4745 4.90469 26.3882 4.99459C26.0319 5.35085 25.5487 5.55102 25.0449 5.55102C24.5411 5.55102 24.0579 5.35085 23.7016 4.99459C23.3453 4.63833 23.1452 4.15513 23.1452 3.6513C23.1452 3.14747 23.3453 2.66428 23.7016 2.30801C23.8183 2.18818 23.8836 2.02752 23.8836 1.86025C23.8836 1.69298 23.8183 1.53232 23.7016 1.41249L22.8509 0.57071C22.8236 0.539235 22.79 0.513814 22.7524 0.496083C22.4099 0.186289 21.9673 0.0103079 21.5056 0.000438807C21.044 -0.00943032 20.5942 0.147458 20.2389 0.442335L20.1344 0.516962L16.5105 4.15281C16.3972 3.87641 16.3972 3.56652 16.5105 3.29012C16.5195 3.23375 16.5195 3.17635 16.5105 3.11998C16.508 3.03542 16.4802 2.95354 16.4307 2.88492C16.3812 2.81629 16.3123 2.76405 16.2329 2.7349L14.6986 2.10804C14.6465 2.09614 14.5924 2.09614 14.5404 2.10804C14.4877 2.09325 14.4319 2.09325 14.3792 2.10804C14.3298 2.12958 14.2837 2.15767 14.2419 2.19159C14.2041 2.23224 14.1747 2.27994 14.1553 2.33192C14.0328 2.65299 13.7883 2.91258 13.4751 3.05407C13.162 3.19555 12.8056 3.20742 12.4837 3.08712C12.1615 2.96586 11.9007 2.72171 11.7586 2.40826C11.6164 2.09481 11.6045 1.73771 11.7254 1.41548C11.7373 1.36644 11.7373 1.31526 11.7254 1.26622C11.7266 1.18007 11.7008 1.09571 11.6515 1.02503C11.6022 0.954349 11.5321 0.900917 11.4508 0.872206L10.6628 0.552782H10.5404C10.2784 0.49626 10.0052 0.525575 9.76125 0.636373C9.51175 0.742566 9.30261 0.925561 9.16424 1.15876V1.22144C9.15829 1.24596 9.15829 1.27155 9.16424 1.29607L7.33139 5.70803L2.40002 18.2454L0.546294 20.0992C0.510564 20.1313 0.478505 20.1674 0.450751 20.2066C0.159933 20.5446 0 20.9757 0 21.4215C0 21.8674 0.159933 22.2985 0.450751 22.6365C0.473679 22.6758 0.502937 22.7111 0.53733 22.741L1.43286 23.6365C1.54751 23.7471 1.70045 23.8091 1.85974 23.8096C1.94846 23.81 2.03616 23.7906 2.11645 23.7529C2.1935 23.7228 2.26283 23.6759 2.31942 23.6156C2.49458 23.4226 2.70728 23.2673 2.94449 23.1593C3.1817 23.0514 3.43846 22.9929 3.69904 22.9875C3.95961 22.9821 4.21853 23.03 4.45999 23.1281C4.70145 23.2262 4.92035 23.3726 5.10332 23.5582C5.28629 23.7438 5.42948 23.9647 5.52412 24.2076C5.61877 24.4504 5.66288 24.71 5.65377 24.9705C5.64466 25.231 5.58252 25.4869 5.47114 25.7225C5.35976 25.9581 5.20149 26.1686 5.006 26.3409C4.8893 26.4608 4.82402 26.6214 4.82402 26.7887C4.82402 26.956 4.8893 27.1166 5.006 27.2365L6.79705 29.0275C6.85541 29.0871 6.92509 29.1344 7.00198 29.1667C7.07887 29.199 7.16141 29.2157 7.24481 29.2157C7.32821 29.2157 7.41079 29.199 7.48768 29.1667C7.56456 29.1344 7.63421 29.0871 7.69257 29.0275C7.86524 28.8383 8.07444 28.686 8.30752 28.5798C8.54042 28.4741 8.79225 28.4167 9.04792 28.4108C9.3036 28.4049 9.55784 28.4507 9.79536 28.5455C10.0329 28.6403 10.2488 28.782 10.4302 28.9623C10.6115 29.1426 10.7546 29.3577 10.8508 29.5947C10.9468 29.8326 10.9935 30.0875 10.9881 30.344C10.9821 30.5994 10.9252 30.851 10.8209 31.0843C10.7158 31.3172 10.5645 31.5264 10.3762 31.6992C10.2595 31.819 10.1942 31.9797 10.1942 32.147C10.1942 32.3142 10.2595 32.4749 10.3762 32.5947L11.2717 33.4902L11.3672 33.5649C11.7054 33.8724 12.146 34.0427 12.6031 34.0425C13.0677 34.0503 13.5176 33.8793 13.8598 33.5649C13.9007 33.5483 13.9374 33.5228 13.9672 33.4902L28.5494 18.8872L33.5345 13.8991C33.5737 13.8635 33.606 13.821 33.63 13.7737C33.9234 13.4347 34.0849 13.0013 34.0849 12.5528C34.0849 12.1044 33.9234 11.671 33.63 11.3319L33.6121 11.3409ZM9.86871 1.58565C9.88705 1.53403 9.91663 1.48711 9.95529 1.44831C9.99339 1.40798 10.039 1.37555 10.0896 1.3528C10.1407 1.33136 10.1954 1.32021 10.2508 1.31997C10.3059 1.31971 10.3606 1.32983 10.412 1.34981L10.8568 1.51995C10.7694 2.00341 10.8512 2.50225 11.0885 2.93243C11.3259 3.36262 11.7041 3.69792 12.1597 3.88189C12.6152 4.06586 13.1203 4.08727 13.5898 3.94252C14.0592 3.79777 14.4645 3.49567 14.7374 3.08712L15.6329 3.42742C15.5524 3.90738 15.6388 4.40047 15.8777 4.82446L15.2598 5.45132L15.1643 5.50507L13.1493 7.51701L8.29258 5.62149L9.86871 1.58565ZM7.9702 6.36178L12.4777 8.17372L10.5911 10.0573L9.75528 10.8573L9.31349 11.2842L8.57917 11.9857L3.89256 16.6722L7.9702 6.36178ZM13.0448 32.5977C12.9258 32.7158 12.7648 32.7821 12.5971 32.7821C12.4294 32.7821 12.2684 32.7158 12.1493 32.5977L11.6598 32.1082C12.0116 31.4987 12.1525 30.7901 12.0607 30.0924C11.9688 29.3946 11.6493 28.7467 11.1517 28.2491C10.654 27.7514 10.0061 27.4319 9.30835 27.3401C8.61062 27.2482 7.90207 27.3891 7.29258 27.741L6.30155 26.7499C6.69683 26.1406 6.87157 25.4144 6.79672 24.692C6.72187 23.9696 6.40191 23.2946 5.89012 22.7793C5.37832 22.264 4.70553 21.9395 3.98366 21.8597C3.26179 21.78 2.53436 21.9498 1.92241 22.3409L1.43286 21.8394C1.37075 21.7831 1.32184 21.7138 1.28958 21.6364C1.25607 21.5593 1.23976 21.4758 1.24181 21.3917C1.24074 21.3086 1.25701 21.2263 1.28958 21.1499C1.32366 21.0726 1.3723 21.0027 1.43286 20.9439L2.76419 19.6543L3.0627 19.3558L15.6001 6.81847L18.3284 9.54685L18.5404 9.75881L27.1972 18.4156L13.0448 32.5977ZM32.7464 12.8036C32.7123 12.8808 32.6637 12.9508 32.6031 13.0096L32.5166 13.1051L28.1076 17.5469L19.0389 8.51402L16.4926 5.96773L16.7702 5.66922L21.03 1.40651C21.1492 1.29339 21.3074 1.23036 21.4717 1.2304C21.6364 1.22912 21.7949 1.29232 21.9135 1.40651L22.3732 1.89607C22.0562 2.37051 21.8744 2.9223 21.8471 3.49225C21.8198 4.06219 21.9482 4.62879 22.2185 5.13131C22.4888 5.63383 22.8908 6.05333 23.3813 6.34477C23.8719 6.63621 24.4325 6.7886 25.0031 6.78564C25.6217 6.79152 26.2276 6.60935 26.7404 6.26325L27.7315 7.25432C27.3315 7.86042 27.1531 8.58602 27.2264 9.30846C27.2997 10.0309 27.6201 10.7059 28.1336 11.2194C28.6471 11.7328 29.3221 12.0533 30.0445 12.1265C30.7669 12.1998 31.4925 12.0214 32.0986 11.6215L32.5016 12.0275L32.5882 12.123C32.6487 12.1807 32.6973 12.2497 32.7315 12.326C32.7636 12.4036 32.7799 12.4868 32.7793 12.5707C32.7799 12.6528 32.7636 12.7341 32.7315 12.8096L32.7464 12.8036Z" fill="#1E1E1E"/>
<path d="M12.4777 8.1799L10.5911 10.0635C10.3961 9.97884 10.1858 9.9352 9.9732 9.9352C9.76061 9.9352 9.55031 9.97884 9.3553 10.0635C9.17491 10.1297 9.0095 10.2312 8.86873 10.362C8.7291 10.4981 8.61929 10.6618 8.54632 10.8426C8.47419 11.0238 8.43967 11.2178 8.44483 11.4127C8.45009 11.6081 8.49585 11.8002 8.57919 11.9769L3.89258 16.6635L7.97022 6.35303L12.4777 8.1799Z" fill="#FD983D"/>
<path d="M18.537 9.77673L18.3251 9.5648L15.5967 6.83643L3.05935 19.3738L2.76084 19.6723L1.4295 20.9618C1.36895 21.0206 1.3203 21.0906 1.28622 21.1678C1.25366 21.2442 1.23738 21.3266 1.23845 21.4096C1.23641 21.4937 1.25272 21.5772 1.28622 21.6544C1.31848 21.7318 1.3674 21.8011 1.4295 21.8574L1.91906 22.3589C2.53101 21.9677 3.25844 21.7979 3.98031 21.8777C4.70218 21.9575 5.37496 22.2819 5.88676 22.7972C6.39856 23.3125 6.71851 23.9875 6.79337 24.7099C6.86822 25.4323 6.69347 26.1586 6.2982 26.7679L7.28923 27.7589C7.89871 27.407 8.60726 27.2661 9.305 27.358C10.0027 27.4499 10.6507 27.7694 11.1483 28.267C11.6459 28.7647 11.9654 29.4126 12.0573 30.1103C12.1492 30.808 12.0083 31.5166 11.6564 32.1261L12.146 32.6156C12.2651 32.7337 12.426 32.8 12.5937 32.8C12.7615 32.8 12.9224 32.7337 13.0415 32.6156L27.1968 18.4484L18.537 9.77673ZM13.2743 13.9558C13.3858 13.6921 13.5492 13.4535 13.7549 13.2544C13.9619 13.0571 14.2052 12.902 14.4714 12.7976C14.739 12.6962 15.024 12.6485 15.3102 12.6573C15.6491 12.65 15.9851 12.7214 16.2917 12.8659C16.5984 13.0104 16.8673 13.2241 17.0773 13.4902C17.1935 13.6311 17.2872 13.7892 17.3549 13.9588C17.4473 14.1977 17.5017 14.4495 17.5161 14.7051V14.8096C17.5262 15.1072 17.4713 15.4034 17.3553 15.6776C17.2393 15.9519 17.065 16.1976 16.8445 16.3977C16.6715 16.5595 16.4688 16.6862 16.2475 16.7708C16.0808 16.8455 15.9052 16.8986 15.7251 16.929H15.3161C14.9614 16.9365 14.61 16.8592 14.2911 16.7035C13.9723 16.5477 13.6953 16.318 13.4833 16.0335C13.3443 15.8446 13.2429 15.6308 13.1848 15.4036C13.1276 15.2026 13.0985 14.9947 13.0982 14.7857C13.1005 14.4981 13.1604 14.2139 13.2743 13.9499V13.9558ZM17.2236 23.6693C17.1007 23.9498 16.916 24.1987 16.6833 24.3977C16.4441 24.5929 16.1694 24.7399 15.8743 24.8305C15.5787 24.9203 15.2681 24.9497 14.9609 24.9171C14.6529 24.888 14.3538 24.7978 14.0811 24.6518C13.8084 24.5057 13.5676 24.3066 13.3728 24.0663C13.2892 23.9493 13.2172 23.8243 13.1579 23.6932C13.0986 23.5575 13.0555 23.4152 13.0295 23.2693C12.9961 23.1073 12.9791 22.9423 12.9788 22.7768C12.9581 22.3712 13.0623 21.9691 13.2773 21.6246C13.4913 21.2827 13.8034 21.0132 14.1729 20.8514C14.3389 20.7599 14.5198 20.6983 14.7072 20.6693C14.8608 20.6334 15.0181 20.6154 15.1758 20.6156C15.6107 20.6001 16.0398 20.7183 16.4054 20.9542C16.771 21.1901 17.0555 21.5324 17.2206 21.935C17.3309 22.2016 17.3848 22.4883 17.3788 22.7768C17.3953 23.0803 17.3422 23.3835 17.2236 23.6634V23.6693ZM21.2535 18.2962C21.2025 18.3649 21.1373 18.4219 21.0624 18.4633C20.987 18.5056 20.9037 18.532 20.8177 18.5409L15.6833 19.4126L15.2027 19.4992L14.7131 19.5827L9.88923 20.4036H9.78177C9.69928 20.4108 9.6162 20.4016 9.5373 20.3765C9.4584 20.3514 9.38526 20.3109 9.32209 20.2574C9.25862 20.2046 9.20637 20.1396 9.16843 20.0663C9.13049 19.993 9.10763 19.9128 9.1012 19.8305C9.08687 19.663 9.13945 19.4966 9.24746 19.3678C9.35596 19.2419 9.50887 19.1628 9.67431 19.1469L15.2475 18.1559L15.737 18.0813L16.2266 18.0514L20.6057 17.3051C20.6893 17.2869 20.7758 17.2869 20.8594 17.3051C20.9446 17.3189 21.026 17.3504 21.0982 17.3977C21.1703 17.4458 21.2322 17.5077 21.2803 17.5797C21.3276 17.652 21.3591 17.7334 21.3729 17.8186C21.3911 17.9022 21.3911 17.9887 21.3729 18.0723C21.3493 18.1554 21.3086 18.2327 21.2535 18.2992V18.2962Z" fill="#FD983D"/>
</svg>
