<svg width="28" height="29" viewBox="0 0 28 29" fill="none" xmlns="http://www.w3.org/2000/svg">
<path fill-rule="evenodd" clip-rule="evenodd" d="M21.436 12.3677C21.364 12.6778 21.2463 12.9783 21.0844 13.2588L14.6484 24.4059L15.0452 25.0931C15.7023 26.2312 17.1575 26.6212 18.2956 25.9641L24.4776 22.3949C25.6157 21.7379 26.0056 20.2826 25.3485 19.1445L21.436 12.3677Z" fill="#5E6175"/>
<path fill-rule="evenodd" clip-rule="evenodd" d="M20.0929 10.7197C20.2345 11.3118 20.1438 11.9357 19.8394 12.463L13.3403 23.7197C12.6833 24.8578 11.228 25.2477 10.0899 24.5906L3.9079 21.0215C2.76982 20.3644 2.37989 18.9091 3.03696 17.771L9.53602 6.51432C9.84043 5.98706 10.3354 5.59655 10.919 5.42314L15.8937 3.94501C17.2019 3.55633 18.5682 4.34518 18.8856 5.67239L20.0929 10.7197ZM16.9521 7.94601C16.6236 8.51505 15.8959 8.71001 15.3269 8.38148C14.7578 8.05295 14.5629 7.32532 14.8914 6.75628C15.22 6.18724 15.9476 5.99228 16.5166 6.32081C17.0857 6.64934 17.2806 7.37697 16.9521 7.94601ZM7.68856 15.3102C7.79323 15.688 8.03651 15.9873 8.41837 16.2077C8.80023 16.4282 9.18098 16.4893 9.56063 16.391C9.94026 16.2926 10.2504 16.0351 10.491 15.6184C10.6522 15.3391 10.7352 15.0664 10.7397 14.8004C10.7443 14.5343 10.6768 14.291 10.5374 14.07C10.4026 13.8517 10.2118 13.6713 9.96502 13.5289C9.71821 13.3863 9.46427 13.3099 9.20322 13.2996C8.94682 13.2921 8.70458 13.3567 8.47648 13.4937C8.24839 13.6306 8.0537 13.8389 7.89242 14.1182C7.65183 14.5349 7.58388 14.9322 7.68856 15.3102ZM13.05 15.4015C12.8911 15.3098 12.6974 15.3018 12.5315 15.3799L7.64959 17.6794C7.24074 17.872 7.21684 18.4448 7.60825 18.6707C7.76709 18.7624 7.96079 18.7705 8.12673 18.6923L13.0085 16.3928C13.4175 16.2002 13.4414 15.6275 13.05 15.4015ZM9.14253 15.4535C9.03377 15.5128 8.93516 15.517 8.84668 15.4659C8.7582 15.4148 8.71012 15.326 8.70246 15.1994C8.7021 15.071 8.76272 14.9015 8.88434 14.6909C9.00596 14.4802 9.12115 14.3452 9.2299 14.2859C9.34596 14.2247 9.44823 14.2196 9.53671 14.2707C9.62521 14.3218 9.66962 14.4116 9.66998 14.5399C9.67765 14.6665 9.62067 14.8351 9.49905 15.0458C9.37744 15.2564 9.25859 15.3923 9.14253 15.4535ZM9.96333 19.6457C10.068 20.0237 10.3113 20.3229 10.6931 20.5434C11.075 20.7639 11.4558 20.8249 11.8355 20.7266C12.2151 20.6283 12.5252 20.3708 12.7658 19.9541C12.927 19.6748 13.0099 19.4021 13.0145 19.136C13.019 18.87 12.9516 18.6265 12.8122 18.4057C12.6774 18.1874 12.4866 18.007 12.2398 17.8645C11.993 17.722 11.7391 17.6456 11.478 17.6353C11.2216 17.6277 10.9793 17.6924 10.7512 17.8293C10.5232 17.9663 10.3285 18.1744 10.1672 18.4539C9.9266 18.8705 9.85865 19.2678 9.96333 19.6457ZM11.4173 19.7892C11.3085 19.8485 11.2099 19.8526 11.1214 19.8016C11.033 19.7505 10.9849 19.6616 10.9772 19.5351C10.9769 19.4067 11.0375 19.2372 11.1591 19.0265C11.2807 18.8159 11.3959 18.6809 11.5047 18.6215C11.6207 18.5604 11.723 18.5552 11.8115 18.6063C11.9 18.6574 11.9444 18.7472 11.9448 18.8756C11.9525 19.0022 11.8954 19.1708 11.7739 19.3814C11.6522 19.5921 11.5334 19.728 11.4173 19.7892Z" fill="#5E6175"/>
</svg>
