<svg width="22" height="22" viewBox="0 0 22 22" fill="none" xmlns="http://www.w3.org/2000/svg">
<path d="M10.7518 16.3142C13.8238 16.3142 16.3141 13.8238 16.3141 10.7518C16.3141 7.67984 13.8238 5.18949 10.7518 5.18949C7.6798 5.18949 5.18945 7.67984 5.18945 10.7518C5.18945 13.8238 7.6798 16.3142 10.7518 16.3142Z" fill="#D9D9D9" stroke="#8E8E90" stroke-width="1.5" stroke-linecap="round" stroke-linejoin="round"/>
<path d="M2.25296 10.7518H1H2.25296Z" fill="#D9D9D9"/>
<path d="M2.25296 10.7518H1" stroke="#8E8E90" stroke-width="1.5" stroke-linecap="round" stroke-linejoin="round"/>
<path d="M3.39315 6.50361L2.30664 5.87471L3.39315 6.50361Z" fill="#D9D9D9"/>
<path d="M3.39315 6.50361L2.30664 5.87471" stroke="#8E8E90" stroke-width="1.5" stroke-linecap="round" stroke-linejoin="round"/>
<path d="M6.50301 3.39086L5.87402 2.30434L6.50301 3.39086Z" fill="#D9D9D9"/>
<path d="M6.50301 3.39086L5.87402 2.30434" stroke="#8E8E90" stroke-width="1.5" stroke-linecap="round" stroke-linejoin="round"/>
<path d="M10.752 2.25293V1V2.25293Z" fill="#D9D9D9"/>
<path d="M10.752 2.25293V1" stroke="#8E8E90" stroke-width="1.5" stroke-linecap="round" stroke-linejoin="round"/>
<path d="M15 3.39086L15.629 2.30434L15 3.39086Z" fill="#D9D9D9"/>
<path d="M15 3.39086L15.629 2.30434" stroke="#8E8E90" stroke-width="1.5" stroke-linecap="round" stroke-linejoin="round"/>
<path d="M18.1104 6.50361L19.197 5.87471L18.1104 6.50361Z" fill="#D9D9D9"/>
<path d="M18.1104 6.50361L19.197 5.87471" stroke="#8E8E90" stroke-width="1.5" stroke-linecap="round" stroke-linejoin="round"/>
<path d="M19.251 10.7518H20.5039H19.251Z" fill="#D9D9D9"/>
<path d="M19.251 10.7518H20.5039" stroke="#8E8E90" stroke-width="1.5" stroke-linecap="round" stroke-linejoin="round"/>
<path d="M2.30664 15.5654L3.39315 14.9365L2.30664 15.5654Z" fill="#D9D9D9"/>
<path d="M2.30664 15.5654L3.39315 14.9365" stroke="#8E8E90" stroke-width="1.5" stroke-linecap="round" stroke-linejoin="round"/>
<path d="M5.87402 19.1333L6.50301 18.0492L5.87402 19.1333Z" fill="#D9D9D9"/>
<path d="M5.87402 19.1333L6.50301 18.0492" stroke="#8E8E90" stroke-width="1.5" stroke-linecap="round" stroke-linejoin="round"/>
<path d="M10.752 20.4401V19.1871V20.4401Z" fill="#D9D9D9"/>
<path d="M10.752 20.4401V19.1871" stroke="#8E8E90" stroke-width="1.5" stroke-linecap="round" stroke-linejoin="round"/>
<path d="M15.629 19.1333L15 18.0492L15.629 19.1333Z" fill="#D9D9D9"/>
<path d="M15.629 19.1333L15 18.0492" stroke="#8E8E90" stroke-width="1.5" stroke-linecap="round" stroke-linejoin="round"/>
<path d="M19.2086 15.5654L18.1221 14.9365L19.2086 15.5654Z" fill="#D9D9D9"/>
<path d="M19.2086 15.5654L18.1221 14.9365" stroke="#8E8E90" stroke-width="1.5" stroke-linecap="round" stroke-linejoin="round"/>
</svg>
