<svg width="22" height="22" viewBox="0 0 22 22" fill="none" xmlns="http://www.w3.org/2000/svg">
<path d="M10.7517 16.3142C13.8237 16.3142 16.3141 13.8238 16.3141 10.7518C16.3141 7.67983 13.8237 5.18948 10.7517 5.18948C7.67974 5.18948 5.18939 7.67983 5.18939 10.7518C5.18939 13.8238 7.67974 16.3142 10.7517 16.3142Z" fill="#FD983D" stroke="#1E1E1E" stroke-width="1.5" stroke-linecap="round" stroke-linejoin="round"/>
<path d="M2.25296 10.7518H1" stroke="#1E1E1E" stroke-width="1.5" stroke-linecap="round" stroke-linejoin="round"/>
<path d="M3.39319 6.5036L2.30667 5.87469" stroke="#1E1E1E" stroke-width="1.5" stroke-linecap="round" stroke-linejoin="round"/>
<path d="M6.50344 3.39087L5.87445 2.30435" stroke="#1E1E1E" stroke-width="1.5" stroke-linecap="round" stroke-linejoin="round"/>
<path d="M10.7519 2.25293V1" stroke="#1E1E1E" stroke-width="1.5" stroke-linecap="round" stroke-linejoin="round"/>
<path d="M15.0002 3.39087L15.6292 2.30435" stroke="#1E1E1E" stroke-width="1.5" stroke-linecap="round" stroke-linejoin="round"/>
<path d="M18.1106 6.5036L19.1972 5.87469" stroke="#1E1E1E" stroke-width="1.5" stroke-linecap="round" stroke-linejoin="round"/>
<path d="M19.2508 10.7518H20.5038" stroke="#1E1E1E" stroke-width="1.5" stroke-linecap="round" stroke-linejoin="round"/>
<path d="M2.30667 15.5654L3.39319 14.9365" stroke="#1E1E1E" stroke-width="1.5" stroke-linecap="round" stroke-linejoin="round"/>
<path d="M5.87445 19.1333L6.50344 18.0492" stroke="#1E1E1E" stroke-width="1.5" stroke-linecap="round" stroke-linejoin="round"/>
<path d="M10.7519 20.4401V19.1871" stroke="#1E1E1E" stroke-width="1.5" stroke-linecap="round" stroke-linejoin="round"/>
<path d="M15.6292 19.1333L15.0002 18.0492" stroke="#1E1E1E" stroke-width="1.5" stroke-linecap="round" stroke-linejoin="round"/>
<path d="M19.209 15.5654L18.1225 14.9365" stroke="#1E1E1E" stroke-width="1.5" stroke-linecap="round" stroke-linejoin="round"/>
</svg>
