<svg width="17" height="17" viewBox="0 0 17 17" fill="none" xmlns="http://www.w3.org/2000/svg">
<path d="M2.5 3.5L4.5 1.5H6L5 2.5V4V6L5.5 8L7 10L8.5 11L11 12H13.5L15.5 11.5V12.5L14.5 13.5L13 14.5L11.5 15.5L10 16H8L6 15.5L4.5 15L3 13.5L2 12L1 10V8L1.5 5.5L2.5 3.5Z" fill="#FD983D"/>
<path d="M16.5981 9.67063C16.4243 9.62717 16.2505 9.67063 16.0985 9.77925C15.5336 10.2572 14.8818 10.6483 14.1649 10.909C13.4914 11.1697 12.7528 11.3 11.9706 11.3C10.2109 11.3 8.60322 10.5831 7.45178 9.43165C6.30034 8.28021 5.5834 6.67253 5.5834 4.91278C5.5834 4.17412 5.71376 3.45719 5.93101 2.80543C6.16999 2.11022 6.51759 1.48018 6.97382 0.937051C7.16935 0.698073 7.1259 0.350468 6.88692 0.15494C6.73485 0.0463135 6.56104 0.00286289 6.38724 0.0463135C4.54059 0.545996 2.93292 1.65399 1.78148 3.13131C0.673485 4.5869 0 6.3901 0 8.36711C0 10.7352 0.955914 12.886 2.52014 14.4502C4.08436 16.0144 6.23516 16.9703 8.60322 16.9703C10.6019 16.9703 12.4486 16.2751 13.9259 15.1237C15.425 13.9505 16.5112 12.2777 16.9675 10.3658C17.0761 10.04 16.9023 9.7358 16.5981 9.67063ZM13.2742 14.2112C12.0141 15.2106 10.4064 15.8189 8.64667 15.8189C6.58277 15.8189 4.71439 14.9716 3.36742 13.6246C2.02045 12.2777 1.17317 10.4093 1.17317 8.34538C1.17317 6.62908 1.73802 5.06486 2.71566 3.80479C3.38915 2.93578 4.23643 2.21884 5.21407 1.71916C5.10545 1.95814 4.99682 2.19712 4.90992 2.45782C4.62749 3.23993 4.49714 4.0655 4.49714 4.93451C4.49714 6.99841 5.34443 8.88851 6.69139 10.2355C8.03836 11.5825 9.92847 12.4297 11.9924 12.4297C12.9048 12.4297 13.7738 12.2777 14.5777 11.9735C14.8601 11.8649 15.1425 11.7563 15.4032 11.6259C14.8818 12.6253 14.1649 13.516 13.2742 14.2112Z" fill="#1E1E1E"/>
</svg>
