<svg width="26" height="21" viewBox="0 0 26 21" fill="none" xmlns="http://www.w3.org/2000/svg">
<path d="M9.5 15L7.5 13.5L9.5 12.5L16.5 12L18 14L16 15L13 16L9.5 15Z" fill="#D9D9D9"/>
<path d="M2.5259 12.8505H1H2.5259Z" fill="#D9D9D9"/>
<path d="M2.5259 12.8505H1" stroke="#8E8E90" stroke-width="1.5" stroke-linecap="round" stroke-linejoin="round"/>
<path d="M3.90871 7.68674L2.58789 6.92528L3.90871 7.68674Z" fill="#D9D9D9"/>
<path d="M3.90871 7.68674L2.58789 6.92528" stroke="#8E8E90" stroke-width="1.5" stroke-linecap="round" stroke-linejoin="round"/>
<path d="M7.69021 3.90612L6.92871 2.58541L7.69021 3.90612Z" fill="#D9D9D9"/>
<path d="M7.69021 3.90612L6.92871 2.58541" stroke="#8E8E90" stroke-width="1.5" stroke-linecap="round" stroke-linejoin="round"/>
<path d="M12.8564 2.52296V1V2.52296Z" fill="#D9D9D9"/>
<path d="M12.8564 2.52296V1" stroke="#8E8E90" stroke-width="1.5" stroke-linecap="round" stroke-linejoin="round"/>
<path d="M18.0205 3.90612L18.782 2.58541L18.0205 3.90612Z" fill="#D9D9D9"/>
<path d="M18.0205 3.90612L18.782 2.58541" stroke="#8E8E90" stroke-width="1.5" stroke-linecap="round" stroke-linejoin="round"/>
<path d="M21.8008 7.68674L23.1215 6.92528L21.8008 7.68674Z" fill="#D9D9D9"/>
<path d="M21.8008 7.68674L23.1215 6.92528" stroke="#8E8E90" stroke-width="1.5" stroke-linecap="round" stroke-linejoin="round"/>
<path d="M23.1836 12.8505H24.7095H23.1836Z" fill="#D9D9D9"/>
<path d="M23.1836 12.8505H24.7095" stroke="#8E8E90" stroke-width="1.5" stroke-linecap="round" stroke-linejoin="round"/>
<path d="M5.08398 19.8823C6.92819 19.2428 7.65994 18.8978 8.96874 18.8978C10.2775 18.8978 11.5446 19.8823 12.8564 19.8823C14.1682 19.8823 15.4294 18.8978 16.7411 18.8978C18.0529 18.8978 19.5937 19.4926 20.6259 19.8823" fill="#D9D9D9"/>
<path d="M5.08398 19.8823C6.92819 19.2428 7.65994 18.8978 8.96874 18.8978C10.2775 18.8978 11.5446 19.8823 12.8564 19.8823C14.1682 19.8823 15.4294 18.8978 16.7411 18.8978C18.0529 18.8978 19.5937 19.4926 20.6259 19.8823" stroke="#8E8E90" stroke-width="1.5" stroke-linecap="round" stroke-linejoin="round"/>
<path d="M6.11369 13.9898C6.05063 13.6133 6.01884 13.2322 6.01855 12.8505C6.01855 11.0361 6.73928 9.29592 8.0223 8.01291C9.30531 6.72989 11.0455 6.00909 12.86 6.00909C14.6744 6.00909 16.4145 6.72989 17.6975 8.01291C18.9805 9.29592 19.7014 11.0361 19.7014 12.8505C19.7016 13.2413 19.6687 13.6313 19.6032 14.0165" fill="#D9D9D9"/>
<path d="M6.11369 13.9898C6.05063 13.6133 6.01884 13.2322 6.01855 12.8505C6.01855 11.0361 6.73928 9.29592 8.0223 8.01291C9.30531 6.72989 11.0455 6.00909 12.86 6.00909C14.6744 6.00909 16.4145 6.72989 17.6975 8.01291C18.9805 9.29592 19.7014 11.0361 19.7014 12.8505C19.7016 13.2413 19.6687 13.6313 19.6032 14.0165" stroke="#8E8E90" stroke-width="1.5" stroke-linecap="round" stroke-linejoin="round"/>
<path d="M1 16.0987C2.96914 15.3551 4.89371 14.6115 6.92829 14.6115C8.96287 14.6115 10.8189 16.0987 12.8564 16.0987C14.894 16.0987 16.7472 14.6115 18.7818 14.6115C20.8164 14.6115 22.842 15.3938 24.71 16.0987" fill="#D9D9D9"/>
<path d="M1 16.0987C2.96914 15.3551 4.89371 14.6115 6.92829 14.6115C8.96287 14.6115 10.8189 16.0987 12.8564 16.0987C14.894 16.0987 16.7472 14.6115 18.7818 14.6115C20.8164 14.6115 22.842 15.3938 24.71 16.0987" stroke="#8E8E90" stroke-width="1.5" stroke-linecap="round" stroke-linejoin="round"/>
</svg>
