<svg width="16" height="12" viewBox="0 0 16 12" fill="none" xmlns="http://www.w3.org/2000/svg">
<path d="M14.8258 0.588135H1.17422C0.526751 0.588135 0 1.11489 0 1.76236V10.2377C0 10.8851 0.526751 11.4119 1.17422 11.4119H14.8258C15.4733 11.4119 16 10.8851 16 10.2377V1.76236C16 1.11489 15.4733 0.588135 14.8258 0.588135ZM4.92176 7.63562H6.50786C6.69817 7.63562 6.85239 7.78987 6.85239 7.98015C6.85239 8.17043 6.69814 8.32468 6.50786 8.32468H4.92176C4.73145 8.32468 4.57723 8.17043 4.57723 7.98015C4.57723 7.78987 4.73148 7.63562 4.92176 7.63562ZM1.49 4.17977C1.49 3.98945 1.64425 3.83523 1.83454 3.83523H3.89854C4.08885 3.83523 4.24307 3.98949 4.24307 4.17977V5.67205C4.24307 5.86236 4.08882 6.01658 3.89854 6.01658H1.83454C1.64422 6.01658 1.49 5.86233 1.49 5.67205V4.17977ZM1.83454 7.63562H3.42063C3.61094 7.63562 3.76516 7.78987 3.76516 7.98015C3.76516 8.17043 3.61091 8.32468 3.42063 8.32468H1.83454C1.64422 8.32468 1.49 8.17043 1.49 7.98015C1.49 7.78987 1.64428 7.63562 1.83454 7.63562ZM7.49689 9.85678H1.83454C1.64422 9.85678 1.49 9.70253 1.49 9.51225C1.49 9.32196 1.64425 9.16771 1.83454 9.16771H7.49689C7.6872 9.16771 7.84142 9.32196 7.84142 9.51225C7.84142 9.70253 7.6872 9.85678 7.49689 9.85678ZM9.59508 8.32468H8.00898C7.81867 8.32468 7.66445 8.17043 7.66445 7.98015C7.66445 7.78987 7.8187 7.63562 8.00898 7.63562H9.59508C9.78539 7.63562 9.93961 7.78987 9.93961 7.98015C9.93961 8.17043 9.78539 8.32468 9.59508 8.32468ZM12.6823 8.32468H11.0962C10.9059 8.32468 10.7517 8.17043 10.7517 7.98015C10.7517 7.78987 10.9059 7.63562 11.0962 7.63562H12.6823C12.8726 7.63562 13.0268 7.78987 13.0268 7.98015C13.0268 8.17043 12.8726 8.32468 12.6823 8.32468ZM14.1655 3.29167H10.4246C10.2343 3.29167 10.0801 3.13742 10.0801 2.94714C10.0801 2.75686 10.2343 2.60261 10.4246 2.60261H14.1655C14.3558 2.60261 14.51 2.75686 14.51 2.94714C14.51 3.13742 14.3557 3.29167 14.1655 3.29167Z" fill="#66B373"/>
</svg>
