<svg width="798" height="625" viewBox="0 0 798 625" fill="none" xmlns="http://www.w3.org/2000/svg">
<g opacity="0.29" clip-path="url(#clip0_88_733)">
<mask id="mask0_88_733" style="mask-type:luminance" maskUnits="userSpaceOnUse" x="36" y="-3" width="777" height="525">
<path d="M812.654 -2.25537H36.1606V521.13H812.654V-2.25537Z" fill="white"/>
</mask>
<g mask="url(#mask0_88_733)">
<path d="M144.147 328.782C134.063 172.414 243.831 64.2702 353.12 25.4202C425.239 -0.218948 504.023 -5.26757 582.219 9.55047C678.717 27.8353 773.905 84.3726 859.47 148.5" stroke="#231F20" stroke-width="3.09" stroke-miterlimit="10"/>
<path d="M139.509 337.348C133.374 187.51 243.293 82.471 352.389 43.4611C384.019 32.1882 416.842 24.6044 450.207 20.8597C493.395 16.0421 537.043 17.2513 579.9 24.4528C675.499 40.3226 769.661 92.9222 854.538 152.91" stroke="#2A2627" stroke-width="3.09" stroke-miterlimit="10"/>
<path d="M134.878 345.922C132.643 202.606 242.747 100.672 351.691 61.5102C383.181 50.22 415.81 42.4151 448.996 38.2354C491.714 32.8716 534.956 33.2537 577.572 39.3715C672.272 52.8348 765.417 101.488 849.596 157.327" stroke="#312D2E" stroke-width="3.09" stroke-miterlimit="10"/>
<path d="M130.239 354.497C131.92 217.702 242.2 118.89 350.926 79.5432C382.278 68.2308 414.715 60.1968 447.719 55.5699C489.995 49.6609 532.854 49.214 575.244 54.2403C669.053 65.2802 761.173 110.004 844.663 161.711" stroke="#383536" stroke-width="3.09" stroke-miterlimit="10"/>
<path d="M125.609 363.063C131.189 232.797 241.654 137.065 350.195 97.5921C381.41 86.2619 413.657 78.0159 446.475 72.9712C488.31 66.5188 530.778 65.2414 572.924 69.1678C665.834 77.7928 756.963 118.578 839.73 166.146" stroke="#3F3C3D" stroke-width="3.09" stroke-miterlimit="10"/>
<path d="M120.979 371.638C130.458 247.893 241.15 155.266 349.464 115.633C380.557 104.283 412.626 95.8163 445.265 90.3387C486.666 83.3548 528.741 81.2511 570.63 84.0701C662.641 90.2885 752.719 127.127 834.831 170.563" stroke="#464344" stroke-width="3.09" stroke-miterlimit="10"/>
<path d="M116.34 380.212C129.727 262.989 240.57 173.466 348.733 133.665C379.686 122.311 411.554 113.638 443.988 107.74C484.966 100.221 526.652 97.2913 568.277 99.0058C659.389 102.801 748.442 135.702 829.856 174.998C844.579 182.133 859.445 189.302 874.454 196.312" stroke="#4E4A4B" stroke-width="3.09" stroke-miterlimit="10"/>
<path d="M111.709 388.786C128.996 278.093 240.024 191.667 348.002 151.723C378.835 140.34 410.525 131.431 442.769 125.082C483.336 117.041 524.634 113.287 565.983 113.882C656.204 115.262 744.232 144.225 824.957 179.39C839.546 185.777 854.277 192.189 869.151 198.474" stroke="#555252" stroke-width="3.09" stroke-miterlimit="10"/>
<path d="M107.071 397.353C128.265 293.189 239.486 209.859 347.271 169.756C377.967 158.356 409.459 149.233 441.492 142.458C481.654 133.892 522.562 129.31 563.622 128.777C652.944 127.75 739.955 152.766 819.991 183.791C834.453 189.429 849.05 195.1 863.79 200.62" stroke="#5C595A" stroke-width="3.09" stroke-miterlimit="10"/>
<path d="M102.423 405.918C127.517 308.309 238.923 228.06 346.523 187.804C377.101 176.379 408.414 167.032 440.248 159.826C480.006 150.743 520.514 145.344 561.26 143.695C649.683 140.245 735.668 161.366 815.049 188.217C829.385 193.106 843.856 198.028 858.454 202.841" stroke="#636061" stroke-width="3.09" stroke-miterlimit="10"/>
<path d="M97.8101 414.493C126.802 323.38 238.394 246.252 345.809 205.812C376.263 194.382 407.386 184.828 439.005 177.202C478.395 167.601 518.53 161.377 558.975 158.598C646.507 152.708 731.467 169.882 810.116 192.626C824.327 196.775 838.689 200.948 853.126 205.029" stroke="#6A6768" stroke-width="3.09" stroke-miterlimit="10"/>
<path d="M93.1797 423.067C126.08 338.476 237.865 264.453 345.086 223.886C375.409 212.427 406.335 202.64 437.727 194.57C476.751 184.468 516.504 177.434 556.622 173.533C643.254 165.262 727.215 178.464 805.15 197.094C819.226 200.46 833.428 203.927 847.756 207.267" stroke="#716E6F" stroke-width="3.09" stroke-miterlimit="10"/>
<path d="M88.5405 431.633C125.34 353.571 237.284 282.654 344.346 241.927C374.809 230.366 405.693 220.31 436.517 211.946C475.18 201.309 514.549 193.436 554.327 188.385C640.044 177.699 722.971 186.963 800.242 201.436C814.2 204.095 828.259 206.779 842.453 209.388" stroke="#787676" stroke-width="3.09" stroke-miterlimit="10"/>
<path d="M83.9355 440.208C124.643 368.684 236.797 300.846 343.607 259.968C373.961 248.39 404.684 238.09 435.265 229.314C473.582 218.171 512.57 209.486 551.991 203.313C636.867 190.211 718.719 195.529 795.301 205.837C809.125 207.739 823.033 209.683 837.117 211.559" stroke="#7F7D7E" stroke-width="3.09" stroke-miterlimit="10"/>
<path d="M79.2715 448.782C123.878 383.763 236.217 319.046 342.893 278.017C373.146 266.405 403.684 255.887 434.03 246.681C472.015 235.026 510.627 225.522 549.68 218.215C633.624 202.698 714.483 204.078 790.376 210.28C804.074 211.441 817.873 212.636 831.789 213.78" stroke="#868485" stroke-width="3.09" stroke-miterlimit="10"/>
<path d="M74.6411 457.348C123.155 398.859 235.679 337.247 342.161 296.058C372.305 284.421 402.667 273.675 432.786 264.083C471.333 251.722 509.654 241.271 547.352 233.142C630.397 215.219 710.239 212.653 785.435 214.714C799.007 215.135 812.671 215.556 826.461 215.985" stroke="#8D8B8C" stroke-width="3.09" stroke-miterlimit="10"/>
<path d="M70.0024 465.923C122.424 413.954 235.133 355.44 341.439 314.099C371.482 302.436 401.676 291.464 431.551 281.425C469.804 268.534 507.746 257.25 544.999 248.028C627.145 227.681 705.962 221.177 780.468 219.107C793.914 218.779 807.444 218.484 821.091 218.147" stroke="#959393" stroke-width="3.09" stroke-miterlimit="10"/>
<path d="M65.3721 474.497C121.676 429.058 234.587 373.64 340.699 332.14C370.641 320.46 400.659 309.252 430.299 298.801C468.258 285.338 505.822 273.246 542.705 262.93C623.96 240.169 701.752 229.734 775.569 223.516C788.88 222.445 802.287 221.384 815.789 220.335" stroke="#9C9A9A" stroke-width="3.09" stroke-miterlimit="10"/>
<path d="M60.7329 483.03C120.962 444.112 234.049 391.808 339.968 350.147C369.801 338.442 399.634 327.007 429.046 316.135C466.711 302.167 503.897 289.209 540.369 277.799C620.724 252.631 697.516 238.25 770.627 227.9C783.81 226.071 797.088 224.268 810.461 222.49" stroke="#A3A1A1" stroke-width="3.09" stroke-miterlimit="10"/>
<path d="M56.1025 491.638C120.23 459.242 233.503 410.016 339.237 368.23C368.969 356.491 398.642 344.829 427.811 333.545C465.182 319.038 501.989 305.247 538.058 292.735C617.514 265.152 693.264 246.833 765.695 232.343C778.754 229.774 791.897 227.23 805.124 224.711" stroke="#AAA8A9" stroke-width="3.09" stroke-miterlimit="10"/>
<path d="M51.4727 500.204C119.542 474.338 232.99 428.234 338.506 386.27C368.137 374.49 397.634 362.617 426.559 350.929C463.644 335.884 500.074 321.268 535.73 307.662C614.295 277.664 689.02 255.399 760.762 236.778C773.687 233.462 786.698 230.175 799.797 226.916" stroke="#B1B0B0" stroke-width="3.09" stroke-miterlimit="10"/>
<path d="M46.8335 508.778C118.768 489.425 232.41 446.435 337.775 404.311C367.305 392.531 396.6 380.406 425.315 368.289C462.114 352.705 498.157 337.247 533.41 322.547C611.077 290.134 684.776 263.931 755.82 241.17C768.627 237.114 781.513 233.083 794.477 229.078" stroke="#B8B7B7" stroke-width="3.09" stroke-miterlimit="10"/>
<path d="M42.2031 517.353C118.037 504.529 231.872 464.636 337.043 422.352C366.456 410.572 395.617 398.194 424.071 385.656C460.576 369.542 496.241 353.252 531.083 337.45C607.85 302.622 680.532 272.48 750.887 245.587C763.56 240.78 776.308 236.012 789.132 231.283" stroke="#BFBEBE" stroke-width="3.09" stroke-miterlimit="10"/>
<path d="M37.5728 525.944C117.306 519.65 231.326 482.853 336.312 440.418C365.633 428.596 394.608 416.016 422.869 403.057C459.081 386.397 494.367 369.273 528.755 352.385C604.631 315.142 676.289 281.055 745.954 250.022C758.504 244.468 771.109 238.954 783.771 233.479" stroke="#C6C5C5" stroke-width="3.09" stroke-miterlimit="10"/>
<path d="M32.9341 534.493C116.575 534.729 230.78 501.028 335.581 458.442C364.801 446.586 393.566 433.771 421.584 420.4C457.501 403.209 492.41 385.252 526.436 367.262C601.413 327.604 672.045 289.579 741.013 254.415C753.434 248.109 765.916 241.852 778.46 235.642" stroke="#CDCCCD" stroke-width="3.09" stroke-miterlimit="10"/>
<path d="M28.3037 543.067C115.844 549.799 230.242 519.229 334.85 476.483C363.969 464.602 392.592 451.559 420.34 437.776C455.963 420.047 490.494 401.257 524.108 382.173C598.186 340.1 667.81 298.145 736.08 258.832C748.378 251.792 760.728 244.793 773.132 237.837" stroke="#D4D4D4" stroke-width="3.09" stroke-miterlimit="10"/>
<path d="M23.665 551.633C115.121 564.92 229.696 537.421 334.119 494.524C363.137 482.617 391.583 469.347 419.097 455.144C454.392 436.876 488.578 417.278 521.789 397.083C594.967 352.604 663.549 306.702 731.148 263.292C743.31 255.5 755.526 247.756 767.796 240.059" stroke="#DCDBDB" stroke-width="3.09" stroke-miterlimit="10"/>
<path d="M19.0347 560.208C114.39 580.016 229.125 555.622 333.388 512.565C362.197 500.642 390.388 487.274 417.853 472.511C452.896 453.713 486.662 433.249 519.461 411.977C591.732 365.074 659.305 315.209 726.19 267.65C738.223 259.118 750.308 250.633 762.443 242.196" stroke="#E3E2E2" stroke-width="3.09" stroke-miterlimit="10"/>
<path d="M14.4043 568.774C113.659 595.111 228.612 573.822 332.657 530.614C361.39 518.645 389.42 505.047 416.609 489.887C451.358 470.534 484.746 449.253 517.133 426.879C588.564 377.57 655.061 323.784 721.273 272.051C733.179 262.773 745.131 253.547 757.132 244.375" stroke="#EAE9E9" stroke-width="3.09" stroke-miterlimit="10"/>
<path d="M9.76514 577.348C112.928 610.207 228.066 592.015 331.934 548.655C360.592 536.639 388.459 522.811 415.365 507.255C449.82 487.38 482.829 465.25 514.813 441.781C585.303 390.057 650.817 332.333 716.34 276.477C728.105 266.447 739.923 256.479 751.795 246.572" stroke="#F1F1F1" stroke-width="3.09" stroke-miterlimit="10"/>
<path d="M5.13477 585.923C112.197 625.303 227.519 610.216 331.195 566.696C359.785 554.636 387.493 540.577 414.113 524.623C448.274 504.209 480.905 481.246 512.435 456.684C582.034 402.536 646.523 340.874 711.357 280.878C723.004 270.107 734.691 259.399 746.417 248.751" stroke="#F8F8F8" stroke-width="3.09" stroke-miterlimit="10"/>
<path d="M0.496094 594.489C142.021 653.037 290.925 617.427 412.878 541.999C534.831 466.571 635.674 354.286 741.097 250.947" stroke="white" stroke-width="3.09" stroke-miterlimit="10"/>
</g>
</g>
<defs>
<clipPath id="clip0_88_733">
<rect width="875" height="625" fill="white"/>
</clipPath>
</defs>
</svg>
