<svg width="18" height="18" viewBox="0 0 18 18" fill="none" xmlns="http://www.w3.org/2000/svg">
<path d="M10.0697 12.4297H5.35636C5.24294 12.4292 5.13391 12.4735 5.05303 12.553C4.97382 12.6341 4.92955 12.743 4.92969 12.8564V15.8564C4.92919 15.9698 4.97352 16.0788 5.05303 16.1597C5.13521 16.2368 5.24367 16.2797 5.35636 16.2797C5.46905 16.2797 5.57751 16.2368 5.65969 16.1597C5.74011 16.0791 5.78561 15.9702 5.78636 15.8564V13.2864H7.28636V15.8564C7.28574 15.9126 7.29633 15.9684 7.31751 16.0204C7.33868 16.0725 7.37002 16.1199 7.40969 16.1597C7.49044 16.2398 7.59927 16.2853 7.71302 16.2864C7.8268 16.2855 7.93566 16.2399 8.01612 16.1595C8.09657 16.079 8.14215 15.9701 8.14302 15.8564V13.2864H9.64302V15.8564C9.64388 15.9696 9.68901 16.0779 9.76874 16.1583C9.84848 16.2387 9.9565 16.2846 10.0697 16.2864C10.1261 16.2864 10.182 16.2752 10.234 16.2534C10.2861 16.2317 10.3334 16.1998 10.373 16.1597C10.4534 16.0791 10.4989 15.9702 10.4997 15.8564V12.8564C10.4997 12.8001 10.4885 12.7443 10.4669 12.6923C10.4452 12.6403 10.4135 12.5931 10.3735 12.5535C10.3336 12.5138 10.2861 12.4825 10.234 12.4612C10.1818 12.44 10.126 12.4293 10.0697 12.4297Z" fill="#1E1E1E"/>
<path d="M13.667 4.7634C13.7013 4.80012 13.7435 4.82861 13.7904 4.84673C13.8356 4.86609 13.8846 4.8752 13.9337 4.8734H15.217C15.2662 4.8752 15.3152 4.86609 15.3604 4.84673C15.4065 4.82728 15.4484 4.79897 15.4837 4.7634C15.5184 4.73068 15.5457 4.6909 15.5637 4.64673C15.5835 4.60037 15.5937 4.55048 15.5937 4.50007V3.2134C15.5937 3.16406 15.5835 3.11525 15.5637 3.07007C15.5454 3.02508 15.5182 2.98426 15.4837 2.95007C15.4484 2.9145 15.4065 2.88619 15.3604 2.86673C15.3152 2.84738 15.2662 2.83827 15.217 2.84007H13.9304C13.8802 2.83862 13.8302 2.84771 13.7837 2.86673C13.7386 2.88626 13.6978 2.91459 13.6637 2.95007C13.6286 2.98375 13.6013 3.02471 13.5837 3.07007C13.5643 3.11537 13.5541 3.1641 13.5537 3.2134V4.50007C13.5537 4.5494 13.5639 4.59821 13.5837 4.6434C13.6023 4.68907 13.6307 4.73005 13.667 4.7634ZM14.307 4.12673V3.59007H14.8437V4.12673H14.307Z" fill="#1E1E1E"/>
<path d="M13.667 7.7634C13.7013 7.80012 13.7435 7.82861 13.7904 7.84673C13.8356 7.86609 13.8846 7.8752 13.9337 7.8734H15.217C15.2662 7.8752 15.3152 7.86609 15.3604 7.84673C15.4065 7.82728 15.4484 7.79897 15.4837 7.7634C15.5184 7.73068 15.5457 7.6909 15.5637 7.64673C15.5835 7.60037 15.5937 7.55048 15.5937 7.50007V6.2134C15.5937 6.16406 15.5835 6.11525 15.5637 6.07007C15.5454 6.02508 15.5182 5.98426 15.4837 5.95007C15.4484 5.9145 15.4065 5.88619 15.3604 5.86673C15.3152 5.84738 15.2662 5.83827 15.217 5.84007H13.9304C13.8802 5.83862 13.8302 5.84771 13.7837 5.86673C13.7386 5.88626 13.6978 5.91459 13.6637 5.95007C13.6286 5.98375 13.6013 6.02471 13.5837 6.07007C13.5643 6.11537 13.5541 6.1641 13.5537 6.2134V7.50007C13.5537 7.5494 13.5639 7.59821 13.5837 7.6434C13.6023 7.68907 13.6307 7.73005 13.667 7.7634ZM14.307 7.12673V6.59007H14.8437V7.12673H14.307Z" fill="#1E1E1E"/>
<path d="M13.667 10.7671C13.7028 10.8013 13.7446 10.8284 13.7904 10.8471C13.8356 10.8665 13.8846 10.8756 13.9337 10.8738H15.217C15.2662 10.8756 15.3152 10.8665 15.3604 10.8471C15.4057 10.8276 15.4474 10.8006 15.4837 10.7671C15.5164 10.7315 15.5434 10.691 15.5637 10.6471C15.5835 10.6008 15.5937 10.5509 15.5937 10.5005V9.21379C15.5937 9.16445 15.5835 9.11565 15.5637 9.07046C15.5454 9.02547 15.5182 8.98465 15.4837 8.95046C15.4484 8.91489 15.4065 8.88658 15.3604 8.86712C15.3156 8.84645 15.2663 8.83729 15.217 8.84046H13.9304C13.8802 8.83902 13.8302 8.8481 13.7837 8.86712C13.7386 8.88665 13.6978 8.91498 13.6637 8.95046C13.6286 8.98414 13.6013 9.0251 13.5837 9.07046C13.5643 9.11576 13.5541 9.16449 13.5537 9.21379V10.5005C13.5537 10.5498 13.5639 10.5986 13.5837 10.6438C13.6029 10.6901 13.6313 10.732 13.667 10.7671ZM14.307 10.1238V9.59046H14.8437V10.1238H14.307Z" fill="#1E1E1E"/>
<path d="M13.667 13.7665C13.7028 13.8007 13.7446 13.8278 13.7904 13.8465C13.8356 13.8659 13.8846 13.875 13.9337 13.8732H15.217C15.2662 13.875 15.3152 13.8659 15.3604 13.8465C15.4057 13.827 15.4474 13.8 15.4837 13.7665C15.5164 13.7309 15.5434 13.6904 15.5637 13.6465C15.5835 13.6001 15.5937 13.5503 15.5937 13.4998V12.2132C15.5945 12.1638 15.5842 12.1148 15.5637 12.0698C15.5451 12.024 15.518 11.9822 15.4837 11.9465C15.4474 11.9131 15.4057 11.886 15.3604 11.8665C15.3146 11.8491 15.266 11.84 15.217 11.8398H13.9304C13.8803 11.8403 13.8307 11.8493 13.7837 11.8665C13.738 11.8851 13.6971 11.9135 13.6637 11.9498C13.6286 11.9835 13.6013 12.0245 13.5837 12.0698C13.5643 12.1151 13.5541 12.1639 13.5537 12.2132V13.4998C13.5537 13.5492 13.5639 13.598 13.5837 13.6432C13.6029 13.6895 13.6313 13.7314 13.667 13.7665ZM14.307 13.1232V12.5898H14.8437V13.1232H14.307Z" fill="#1E1E1E"/>
<path d="M17.8733 16C17.8337 15.9599 17.7864 15.9281 17.7344 15.9063C17.6823 15.8846 17.6264 15.8734 17.57 15.8734V0.430037C17.5706 0.37382 17.56 0.318043 17.5388 0.265963C17.5177 0.213882 17.4863 0.166542 17.4467 0.126704C17.3661 0.0462812 17.2572 0.000781643 17.1433 3.69747e-05H8.14333C8.0868 -0.000719249 8.03071 0.0101318 7.97853 0.031919C7.92636 0.0537062 7.87921 0.0859662 7.84 0.126704C7.79988 0.166377 7.76802 0.213615 7.74628 0.265682C7.72454 0.31775 7.71334 0.373612 7.71333 0.430037V1.9167L3.53333 0.870037C3.46977 0.855003 3.40357 0.855003 3.34 0.870037C3.27677 0.882813 3.21741 0.91021 3.16667 0.950037C3.11417 0.99084 3.07194 1.04335 3.04333 1.10337C3.01425 1.16007 2.99938 1.22298 3 1.2867V5.57004H0.856667C0.800354 5.57003 0.744599 5.58118 0.692615 5.60283C0.640631 5.62448 0.593447 5.65621 0.553783 5.69618C0.51412 5.73615 0.482761 5.78358 0.461516 5.83573C0.440271 5.88789 0.42956 5.94373 0.43 6.00004V15.8567C0.372377 15.8589 0.31579 15.8727 0.263654 15.8973C0.211519 15.9219 0.164918 15.9569 0.126667 16C0.0462443 16.0806 0.000744669 16.1895 0 16.3034L0 17.5867C0.000744669 17.7005 0.0462443 17.8095 0.126667 17.89C0.16634 17.9302 0.213578 17.962 0.265645 17.9838C0.317713 18.0055 0.373575 18.0167 0.43 18.0167H17.57C17.6265 18.0175 17.6826 18.0066 17.7348 17.9848C17.787 17.963 17.8341 17.9308 17.8733 17.89C17.9538 17.8095 17.9993 17.7005 18 17.5867V16.2867C17.995 16.1787 17.9498 16.0764 17.8733 16ZM0.873333 16.73H3.44667C3.55983 16.73 3.66835 16.6851 3.74837 16.6051C3.82838 16.5251 3.87333 16.4165 3.87333 16.3034V1.83337L11.5867 3.76337V16.2867C11.5878 16.4005 11.6332 16.5093 11.7133 16.59C11.7942 16.6695 11.9032 16.7139 12.0167 16.7134H17.1433V17.1434H0.856667L0.873333 16.73ZM3 15.8567H1.28667V6.43004H3V15.8567ZM16.7133 15.8567H12.43V3.43004C12.4283 3.33351 12.3947 3.24026 12.3344 3.16487C12.2741 3.08948 12.1905 3.0362 12.0967 3.01337L8.57 2.13004V0.856704H16.7133V15.8567Z" fill="#1E1E1E"/>
<path d="M6.10652 6.33353C6.16283 6.33397 6.21867 6.32325 6.27082 6.30201C6.32297 6.28076 6.3704 6.24941 6.41037 6.20974C6.45035 6.17008 6.48207 6.1229 6.50372 6.07091C6.52537 6.01893 6.53652 5.96317 6.53652 5.90686V5.66686H6.74985C6.86389 5.66686 6.97327 5.62156 7.05391 5.54092C7.13455 5.46027 7.17985 5.3509 7.17985 5.23686C7.17985 5.12282 7.13455 5.01344 7.05391 4.9328C6.97327 4.85216 6.86389 4.80686 6.74985 4.80686H6.10652C6.04794 4.80498 5.98961 4.81519 5.93516 4.83685C5.8807 4.85851 5.8313 4.89115 5.79001 4.93275C5.74873 4.97434 5.71646 5.024 5.69521 5.07861C5.67397 5.13323 5.6642 5.19164 5.66652 5.25019V5.89353C5.66366 5.95206 5.67308 6.01055 5.69418 6.06523C5.71528 6.11991 5.74759 6.16957 5.78903 6.21101C5.83047 6.25245 5.88013 6.28476 5.93481 6.30586C5.98949 6.32696 6.04798 6.33639 6.10652 6.33353Z" fill="#1E1E1E"/>
<path d="M8.66619 6.33331C8.7219 6.33385 8.77715 6.32322 8.82868 6.30203C8.88021 6.28085 8.92697 6.24954 8.96619 6.20997C9.04661 6.12942 9.09211 6.02046 9.09285 5.90664V5.66664H9.33285C9.38928 5.66663 9.44514 5.65543 9.49721 5.63369C9.54928 5.61195 9.59651 5.5801 9.63619 5.53997C9.6763 5.5003 9.70814 5.45306 9.72988 5.40099C9.75161 5.34892 9.7628 5.29306 9.7628 5.23664C9.7628 5.18022 9.75161 5.12436 9.72988 5.07229C9.70814 5.02023 9.6763 4.97299 9.63619 4.93331C9.59651 4.89319 9.54928 4.86133 9.49721 4.83959C9.44514 4.81785 9.38928 4.80665 9.33285 4.80664H8.66619C8.55149 4.80792 8.44169 4.85328 8.35952 4.93331C8.28032 5.0144 8.23604 5.12329 8.23619 5.23664V5.87997C8.23252 5.93849 8.24095 5.99713 8.26096 6.05224C8.28096 6.10735 8.31211 6.15775 8.35246 6.20029C8.39281 6.24283 8.44149 6.27659 8.49547 6.29948C8.54945 6.32236 8.60756 6.33388 8.66619 6.33331Z" fill="#1E1E1E"/>
<path d="M6.10637 8.89355C6.22014 8.89268 6.32901 8.8471 6.40946 8.76665C6.48991 8.68619 6.5355 8.57733 6.53637 8.46355V8.25022H6.7497C6.86352 8.24948 6.97248 8.20398 7.05303 8.12355C7.09304 8.08416 7.12482 8.0372 7.14651 7.98541C7.1682 7.93362 7.17937 7.87804 7.17937 7.82189C7.17937 7.76574 7.1682 7.71015 7.14651 7.65836C7.12482 7.60657 7.09304 7.55961 7.05303 7.52022C6.97248 7.4398 6.86352 7.3943 6.7497 7.39355H6.10637C5.99254 7.3943 5.88358 7.4398 5.80303 7.52022C5.76361 7.55955 5.73241 7.60633 5.71124 7.65784C5.69006 7.70934 5.67934 7.76454 5.6797 7.82022V8.46355C5.67926 8.51986 5.68997 8.57571 5.71122 8.62786C5.73246 8.68001 5.76382 8.72744 5.80348 8.76741C5.84315 8.80738 5.89033 8.83911 5.94232 8.86076C5.9943 8.88241 6.05005 8.89356 6.10637 8.89355Z" fill="#1E1E1E"/>
<path d="M8.66634 8.89355C8.72226 8.89348 8.7776 8.88223 8.82911 8.86048C8.88063 8.83873 8.92728 8.80691 8.96634 8.76689C9.04676 8.68634 9.09226 8.57738 9.093 8.46355V8.25022H9.333C9.44008 8.24077 9.53974 8.19155 9.61233 8.11226C9.68492 8.03298 9.72518 7.92938 9.72518 7.82189C9.72518 7.71439 9.68492 7.6108 9.61233 7.53151C9.53974 7.45223 9.44008 7.40301 9.333 7.39355H8.66634C8.55164 7.39484 8.44184 7.44019 8.35967 7.52022C8.32025 7.55955 8.28905 7.60633 8.26787 7.65784C8.2467 7.70934 8.23598 7.76454 8.23634 7.82022V8.46355C8.23721 8.57733 8.28279 8.68619 8.36324 8.76665C8.4437 8.8471 8.55256 8.89268 8.66634 8.89355Z" fill="#1E1E1E"/>
<path d="M6.10701 11.4631C6.22043 11.4636 6.32945 11.4193 6.41034 11.3398C6.49046 11.259 6.53591 11.1502 6.53701 11.0364V10.8198H6.75034C6.85742 10.8103 6.95707 10.7611 7.02966 10.6818C7.10225 10.6025 7.14252 10.4989 7.14252 10.3914C7.14252 10.2839 7.10225 10.1803 7.02966 10.1011C6.95707 10.0218 6.85742 9.97255 6.75034 9.9631H6.10701C6.04958 9.9613 5.99239 9.97112 5.93885 9.99197C5.88531 10.0128 5.83654 10.0443 5.79545 10.0844C5.75436 10.1246 5.7218 10.1726 5.69973 10.2257C5.67766 10.2787 5.66653 10.3356 5.66701 10.3931V11.0364C5.66686 11.1498 5.71114 11.2587 5.79034 11.3398C5.83198 11.3808 5.88153 11.4128 5.93597 11.434C5.99042 11.4552 6.04861 11.4651 6.10701 11.4631Z" fill="#1E1E1E"/>
<path d="M8.66634 11.4629C8.72205 11.4634 8.77731 11.4528 8.82884 11.4316C8.88036 11.4104 8.92712 11.3791 8.96634 11.3396C9.00661 11.3 9.03857 11.2528 9.06032 11.2007C9.08207 11.1486 9.09319 11.0927 9.09301 11.0362V10.8196H9.33301C9.38932 10.82 9.44516 10.8093 9.49731 10.7881C9.54946 10.7668 9.59689 10.7355 9.63686 10.6958C9.67684 10.6561 9.70856 10.6089 9.73021 10.557C9.75186 10.505 9.76301 10.4492 9.76301 10.3929C9.76226 10.2791 9.71676 10.1701 9.63634 10.0896C9.59667 10.0494 9.54943 10.0176 9.49736 9.99585C9.4453 9.97411 9.38943 9.96291 9.33301 9.9629H8.66634C8.60975 9.96246 8.55363 9.97328 8.50126 9.99473C8.44889 10.0162 8.40131 10.0478 8.3613 10.0879C8.32128 10.1279 8.28962 10.1755 8.26817 10.2278C8.24672 10.2802 8.2359 10.3363 8.23634 10.3929V11.0362C8.23616 11.0927 8.24728 11.1486 8.26903 11.2007C8.29078 11.2528 8.32274 11.3 8.36301 11.3396C8.4439 11.4191 8.55292 11.4634 8.66634 11.4629Z" fill="#1E1E1E"/>
</svg>
