<svg width="28" height="29" viewBox="0 0 28 29" fill="none" xmlns="http://www.w3.org/2000/svg">
<path d="M15.6638 19.3291H8.33439C8.15802 19.3283 7.98848 19.3973 7.86269 19.5209C7.73953 19.647 7.67068 19.8163 7.67091 19.9926V24.6577C7.67012 24.8341 7.73906 25.0036 7.86269 25.1294C7.99049 25.2493 8.15915 25.316 8.33439 25.316C8.50963 25.316 8.67829 25.2493 8.80608 25.1294C8.93114 25.0042 9.0019 24.8347 9.00306 24.6577V20.6613H11.3356V24.6577C11.3347 24.7451 11.3511 24.8319 11.3841 24.9129C11.417 24.9939 11.4657 25.0675 11.5274 25.1294C11.653 25.254 11.8222 25.3247 11.9991 25.3264C12.176 25.325 12.3453 25.2542 12.4704 25.129C12.5955 25.0039 12.6664 24.8346 12.6678 24.6577V20.6613H15.0003V24.6577C15.0017 24.8338 15.0718 25.0023 15.1958 25.1272C15.3198 25.2522 15.4878 25.3237 15.6638 25.3264C15.7515 25.3264 15.8384 25.309 15.9194 25.2752C16.0004 25.2413 16.0738 25.1918 16.1355 25.1294C16.2606 25.0042 16.3313 24.8347 16.3325 24.6577V19.9926C16.3325 19.905 16.3151 19.8183 16.2815 19.7375C16.2478 19.6567 16.1985 19.5833 16.1363 19.5216C16.0742 19.4599 16.0004 19.4112 15.9193 19.3781C15.8382 19.3451 15.7514 19.3284 15.6638 19.3291Z" fill="#1E1E1E" fill-opacity="0.2"/>
<path d="M21.2573 7.40722C21.3106 7.46432 21.3762 7.50862 21.4491 7.53681C21.5194 7.56691 21.5955 7.58107 21.672 7.57827H23.6676C23.7441 7.58107 23.8202 7.56691 23.8905 7.53681C23.9623 7.50656 24.0274 7.46253 24.0823 7.40722C24.1363 7.35634 24.1787 7.29448 24.2067 7.2258C24.2375 7.1537 24.2533 7.07612 24.2533 6.99773V4.99691C24.2534 4.92019 24.2375 4.84429 24.2067 4.77402C24.1782 4.70406 24.1359 4.64059 24.0823 4.58742C24.0274 4.5321 23.9623 4.48808 23.8905 4.45783C23.8202 4.42773 23.7441 4.41357 23.6676 4.41636H21.6668C21.5887 4.41412 21.511 4.42825 21.4387 4.45783C21.3685 4.48819 21.3051 4.53225 21.2521 4.58742C21.1975 4.63979 21.1551 4.70349 21.1277 4.77402C21.0975 4.84447 21.0816 4.92025 21.0811 4.99691V6.99773C21.081 7.07445 21.0969 7.15035 21.1277 7.22062C21.1566 7.29163 21.2008 7.35537 21.2573 7.40722ZM22.2525 6.41718V5.58264H23.0871V6.41718H22.2525Z" fill="#1E1E1E" fill-opacity="0.2"/>
<path d="M21.2573 12.0723C21.3106 12.1294 21.3762 12.1737 21.4491 12.2018C21.5194 12.2319 21.5955 12.2461 21.672 12.2433H23.6676C23.7441 12.2461 23.8202 12.2319 23.8905 12.2018C23.9623 12.1716 24.0274 12.1276 24.0823 12.0723C24.1363 12.0214 24.1787 11.9595 24.2067 11.8908C24.2375 11.8187 24.2533 11.7412 24.2533 11.6628V9.66195C24.2534 9.58522 24.2375 9.50933 24.2067 9.43906C24.1782 9.3691 24.1359 9.30563 24.0823 9.25245C24.0274 9.19714 23.9623 9.15312 23.8905 9.12287C23.8202 9.09277 23.7441 9.07861 23.6676 9.0814H21.6668C21.5887 9.07916 21.511 9.09328 21.4387 9.12287C21.3685 9.15323 21.3051 9.19729 21.2521 9.25245C21.1975 9.30483 21.1551 9.36852 21.1277 9.43906C21.0975 9.50951 21.0816 9.58529 21.0811 9.66195V11.6628C21.081 11.7395 21.0969 11.8154 21.1277 11.8857C21.1566 11.9567 21.2008 12.0204 21.2573 12.0723ZM22.2525 11.0822V10.2477H23.0871V11.0822H22.2525Z" fill="#1E1E1E" fill-opacity="0.2"/>
<path d="M21.2573 16.7421C21.3128 16.7953 21.3779 16.8375 21.4491 16.8665C21.5194 16.8966 21.5955 16.9108 21.672 16.908H23.6676C23.7441 16.9108 23.8202 16.8966 23.8905 16.8665C23.961 16.8362 24.0258 16.7941 24.0823 16.7421C24.1331 16.6867 24.1751 16.6237 24.2067 16.5555C24.2375 16.4834 24.2533 16.4058 24.2533 16.3274V14.3266C24.2534 14.2499 24.2375 14.174 24.2067 14.1037C24.1782 14.0338 24.1359 13.9703 24.0823 13.9171C24.0274 13.8618 23.9623 13.8178 23.8905 13.7875C23.8208 13.7554 23.7442 13.7411 23.6676 13.7461H21.6668C21.5887 13.7438 21.511 13.758 21.4387 13.7875C21.3685 13.8179 21.3051 13.862 21.2521 13.9171C21.1975 13.9695 21.1551 14.0332 21.1277 14.1037C21.0975 14.1742 21.0816 14.25 21.0811 14.3266V16.3274C21.081 16.4042 21.0969 16.4801 21.1277 16.5503C21.1576 16.6223 21.2017 16.6875 21.2573 16.7421ZM22.2525 15.7417V14.9124H23.0871V15.7417H22.2525Z" fill="#1E1E1E" fill-opacity="0.2"/>
<path d="M21.2573 21.4072C21.3128 21.4603 21.3779 21.5025 21.4491 21.5316C21.5194 21.5617 21.5955 21.5758 21.672 21.573H23.6676C23.7441 21.5758 23.8202 21.5617 23.8905 21.5316C23.961 21.5012 24.0258 21.4592 24.0823 21.4072C24.1331 21.3517 24.1751 21.2888 24.2067 21.2206C24.2375 21.1485 24.2533 21.0709 24.2533 20.9925V18.9917C24.2545 18.9148 24.2386 18.8387 24.2067 18.7688C24.1777 18.6976 24.1355 18.6325 24.0823 18.577C24.0258 18.525 23.961 18.4829 23.8905 18.4526C23.8193 18.4255 23.7438 18.4114 23.6676 18.4111H21.6668C21.589 18.4119 21.5118 18.4259 21.4387 18.4526C21.3677 18.4815 21.304 18.5257 21.2521 18.5822C21.1975 18.6346 21.1551 18.6983 21.1277 18.7688C21.0975 18.8392 21.0816 18.915 21.0811 18.9917V20.9925C21.081 21.0692 21.0969 21.1451 21.1277 21.2154C21.1576 21.2874 21.2017 21.3526 21.2573 21.4072ZM22.2525 20.4068V19.5774H23.0871V20.4068H22.2525Z" fill="#1E1E1E" fill-opacity="0.2"/>
<path d="M27.7986 24.8807C27.7369 24.8183 27.6635 24.7688 27.5825 24.735C27.5015 24.7011 27.4147 24.6837 27.3269 24.6837V0.668724C27.3279 0.581304 27.3114 0.49457 27.2785 0.413583C27.2456 0.332596 27.1968 0.258979 27.1351 0.197029C27.0099 0.0719692 26.8404 0.00121549 26.6634 5.74971e-05H12.6681C12.5802 -0.00111846 12.4929 0.0157554 12.4118 0.0496353C12.3307 0.0835152 12.2574 0.133681 12.1964 0.197029C12.134 0.258723 12.0845 0.33218 12.0507 0.413146C12.0168 0.494113 11.9994 0.580982 11.9994 0.668724V2.98055L5.49936 1.35294C5.40051 1.32956 5.29756 1.32956 5.19871 1.35294C5.10039 1.37281 5.00808 1.41541 4.92917 1.47734C4.84754 1.5408 4.78186 1.62245 4.73739 1.71578C4.69216 1.80395 4.66904 1.90179 4.67 2.00087V8.66163H1.33703C1.24947 8.66162 1.16276 8.67896 1.08193 8.71262C1.00109 8.74629 0.927716 8.79563 0.866037 8.85779C0.804359 8.91995 0.755596 8.9937 0.722559 9.0748C0.689522 9.15589 0.672866 9.24273 0.67355 9.33029V24.6578C0.583944 24.6611 0.495948 24.6826 0.414875 24.7209C0.333803 24.7592 0.261337 24.8136 0.201854 24.8807C0.0767945 25.0059 0.0060408 25.1754 0.00488281 25.3524L0.00488281 27.348C0.0060408 27.525 0.0767945 27.6945 0.201854 27.8197C0.263548 27.8821 0.337005 27.9316 0.417972 27.9654C0.498938 27.9993 0.585807 28.0167 0.67355 28.0167H27.3269C27.4148 28.0179 27.5021 28.001 27.5832 27.9671C27.6643 27.9332 27.7376 27.8831 27.7986 27.8197C27.9237 27.6945 27.9944 27.525 27.9956 27.348V25.3265C27.9878 25.1585 27.9176 24.9995 27.7986 24.8807ZM1.36295 26.0159H5.36458C5.54055 26.0159 5.70931 25.946 5.83374 25.8215C5.95817 25.6971 6.02807 25.5284 6.02807 25.3524V2.85096L18.0226 5.85219V25.3265C18.0243 25.5034 18.095 25.6726 18.2196 25.7982C18.3454 25.9218 18.5149 25.9907 18.6913 25.99H26.6634V26.6586H1.33703L1.36295 26.0159ZM4.67 24.6578H2.0057V9.99896H4.67V24.6578ZM25.9948 24.6578H19.334V5.33384C19.3314 5.18373 19.2791 5.03873 19.1853 4.92149C19.0915 4.80426 18.9615 4.72141 18.8157 4.68591L13.3316 3.31229V1.33221H25.9948V24.6578Z" fill="#1E1E1E" fill-opacity="0.2"/>
<path d="M9.50043 9.84898C9.58799 9.84966 9.67483 9.833 9.75592 9.79997C9.83702 9.76693 9.91077 9.71817 9.97293 9.65649C10.0351 9.59481 10.0844 9.52144 10.1181 9.4406C10.1518 9.35976 10.1691 9.27306 10.1691 9.18549V8.81228H10.5008C10.6782 8.81228 10.8483 8.74183 10.9737 8.61644C11.0991 8.49104 11.1695 8.32096 11.1695 8.14362C11.1695 7.96628 11.0991 7.7962 10.9737 7.6708C10.8483 7.5454 10.6782 7.47495 10.5008 7.47495H9.50043C9.40934 7.47203 9.31863 7.48791 9.23396 7.52159C9.14928 7.55527 9.07245 7.60603 9.00825 7.67071C8.94406 7.73539 8.89387 7.81261 8.86083 7.89754C8.82779 7.98247 8.8126 8.07329 8.81621 8.16435V9.16476C8.81176 9.25579 8.82641 9.34674 8.85922 9.43177C8.89203 9.5168 8.94228 9.59402 9.00672 9.65846C9.07117 9.72291 9.14839 9.77315 9.23342 9.80596C9.31844 9.83877 9.4094 9.85343 9.50043 9.84898Z" fill="#1E1E1E" fill-opacity="0.2"/>
<path d="M13.4805 9.84864C13.5671 9.84948 13.6531 9.83294 13.7332 9.8C13.8133 9.76706 13.886 9.71838 13.947 9.65685C14.0721 9.53159 14.1428 9.36215 14.144 9.18515V8.81194H14.5172C14.6049 8.81193 14.6918 8.79452 14.7728 8.76071C14.8538 8.7269 14.9272 8.67736 14.9889 8.61497C15.0513 8.55327 15.1008 8.47981 15.1346 8.39884C15.1684 8.31788 15.1858 8.23101 15.1858 8.14328C15.1858 8.05554 15.1684 7.96867 15.1346 7.88771C15.1008 7.80674 15.0513 7.73328 14.9889 7.67158C14.9272 7.60919 14.8538 7.55966 14.7728 7.52585C14.6918 7.49204 14.6049 7.47462 14.5172 7.47461H13.4805C13.3022 7.4766 13.1314 7.54713 13.0036 7.67158C12.8805 7.79768 12.8116 7.96701 12.8118 8.14328V9.14368C12.8061 9.23468 12.8193 9.32587 12.8504 9.41157C12.8815 9.49727 12.9299 9.57564 12.9927 9.64179C13.0554 9.70793 13.1311 9.76044 13.215 9.79603C13.299 9.83162 13.3893 9.84953 13.4805 9.84864Z" fill="#1E1E1E" fill-opacity="0.2"/>
<path d="M9.50042 13.8296C9.67734 13.8283 9.84663 13.7574 9.97174 13.6323C10.0968 13.5072 10.1677 13.3379 10.1691 13.161V12.8292H10.5008C10.6778 12.8281 10.8473 12.7573 10.9725 12.6322C11.0347 12.571 11.0842 12.498 11.1179 12.4174C11.1516 12.3369 11.169 12.2505 11.169 12.1631C11.169 12.0758 11.1516 11.9894 11.1179 11.9089C11.0842 11.8283 11.0347 11.7553 10.9725 11.694C10.8473 11.569 10.6778 11.4982 10.5008 11.4971H9.50042C9.32342 11.4982 9.15398 11.569 9.02872 11.694C8.96742 11.7552 8.9189 11.8279 8.88598 11.908C8.85305 11.9881 8.83638 12.074 8.83693 12.1606V13.161C8.83625 13.2485 8.85291 13.3354 8.88594 13.4165C8.91898 13.4976 8.96774 13.5713 9.02942 13.6335C9.0911 13.6956 9.16447 13.745 9.24531 13.7786C9.32615 13.8123 9.41285 13.8296 9.50042 13.8296Z" fill="#1E1E1E" fill-opacity="0.2"/>
<path d="M13.4812 13.8296C13.5681 13.8295 13.6542 13.812 13.7343 13.7782C13.8144 13.7444 13.887 13.6949 13.9477 13.6327C14.0728 13.5074 14.1435 13.338 14.1447 13.161V12.8292H14.5179C14.6844 12.8145 14.8394 12.738 14.9522 12.6147C15.0651 12.4914 15.1277 12.3303 15.1277 12.1631C15.1277 11.996 15.0651 11.8349 14.9522 11.7116C14.8394 11.5883 14.6844 11.5118 14.5179 11.4971H13.4812C13.3028 11.4991 13.1321 11.5696 13.0043 11.694C12.943 11.7552 12.8945 11.8279 12.8616 11.908C12.8286 11.9881 12.812 12.074 12.8125 12.1606V13.161C12.8139 13.3379 12.8848 13.5072 13.0099 13.6323C13.135 13.7574 13.3043 13.8283 13.4812 13.8296Z" fill="#1E1E1E" fill-opacity="0.2"/>
<path d="M9.50162 17.826C9.678 17.8268 9.84753 17.7579 9.97332 17.6343C10.0979 17.5087 10.1686 17.3395 10.1703 17.1626V16.8256H10.502C10.6685 16.8109 10.8235 16.7344 10.9364 16.6111C11.0493 16.4878 11.1119 16.3267 11.1119 16.1596C11.1119 15.9924 11.0493 15.8313 10.9364 15.708C10.8235 15.5847 10.6685 15.5082 10.502 15.4935H9.50162C9.41233 15.4907 9.32338 15.506 9.24013 15.5384C9.15688 15.5708 9.08103 15.6197 9.01714 15.6821C8.95324 15.7446 8.90261 15.8193 8.86829 15.9018C8.83397 15.9843 8.81666 16.0728 8.81741 16.1622V17.1626C8.81718 17.3388 8.88603 17.5082 9.00919 17.6343C9.07394 17.698 9.15099 17.7479 9.23566 17.7809C9.32032 17.8138 9.41082 17.8292 9.50162 17.826Z" fill="#1E1E1E" fill-opacity="0.2"/>
<path d="M13.4812 17.8257C13.5678 17.8266 13.6537 17.8101 13.7339 17.7771C13.814 17.7442 13.8867 17.6955 13.9477 17.634C14.0103 17.5724 14.06 17.499 14.0938 17.418C14.1277 17.337 14.1449 17.25 14.1447 17.1623V16.8253H14.5179C14.6054 16.826 14.6923 16.8094 14.7734 16.7763C14.8545 16.7433 14.9282 16.6945 14.9904 16.6328C15.0525 16.5712 15.1019 16.4978 15.1356 16.417C15.1692 16.3361 15.1866 16.2494 15.1865 16.1619C15.1854 15.9849 15.1146 15.8154 14.9896 15.6902C14.9279 15.6278 14.8544 15.5782 14.7735 15.5444C14.6925 15.5106 14.6056 15.4932 14.5179 15.4932H13.4812C13.3932 15.4925 13.3059 15.5093 13.2245 15.5427C13.143 15.576 13.0691 15.6253 13.0068 15.6875C12.9446 15.7497 12.8954 15.8237 12.862 15.9051C12.8287 15.9866 12.8118 16.0738 12.8125 16.1619V17.1623C12.8122 17.25 12.8295 17.337 12.8634 17.418C12.8972 17.499 12.9469 17.5724 13.0095 17.634C13.1353 17.7576 13.3048 17.8265 13.4812 17.8257Z" fill="#1E1E1E" fill-opacity="0.2"/>
</svg>
