<svg width="24" height="27" viewBox="0 0 24 27" fill="none" xmlns="http://www.w3.org/2000/svg">
<path d="M0 24.4759C0.00234058 25.1462 0.274364 25.7881 0.756478 26.2612C1.23859 26.7344 1.89148 27 2.57212 27H21.4279C22.11 27 22.7643 26.7332 23.2466 26.2582C23.729 25.7832 24 25.139 24 24.4672V10.1276H0V24.4759ZM17.1416 14.1375C17.1421 13.97 17.2099 13.8094 17.3302 13.6909C17.4505 13.5725 17.6136 13.5057 17.7837 13.5052H19.926C20.0962 13.5057 20.2592 13.5725 20.3795 13.6909C20.4999 13.8094 20.5677 13.97 20.5681 14.1375V16.247C20.5677 16.4146 20.4999 16.5752 20.3795 16.6936C20.2592 16.8121 20.0962 16.8789 19.926 16.8794H17.7855C17.6153 16.8789 17.4523 16.8121 17.332 16.6936C17.2116 16.5752 17.1438 16.4146 17.1434 16.247L17.1416 14.1375ZM17.1416 20.8893C17.1421 20.7217 17.2099 20.5612 17.3302 20.4427C17.4505 20.3242 17.6136 20.2574 17.7837 20.257H19.926C20.0962 20.2574 20.2592 20.3242 20.3795 20.4427C20.4999 20.5612 20.5677 20.7217 20.5681 20.8893V22.9935C20.5677 23.1611 20.4999 23.3217 20.3795 23.4402C20.2592 23.5586 20.0962 23.6254 19.926 23.6259H17.7855C17.615 23.6259 17.4515 23.5593 17.3308 23.4408C17.2101 23.3222 17.1421 23.1614 17.1416 22.9935V20.8893ZM10.285 14.1375C10.2854 13.97 10.3532 13.8094 10.4736 13.6909C10.5939 13.5725 10.7569 13.5057 10.9271 13.5052H13.0711C13.2413 13.5057 13.4044 13.5725 13.5247 13.6909C13.645 13.8094 13.7128 13.97 13.7133 14.1375V16.247C13.7128 16.4146 13.645 16.5752 13.5247 16.6936C13.4044 16.8121 13.2413 16.8789 13.0711 16.8794H10.9289C10.7587 16.8789 10.5956 16.8121 10.4753 16.6936C10.355 16.5752 10.2872 16.4146 10.2867 16.247L10.285 14.1375ZM10.285 20.8893C10.2854 20.7217 10.3532 20.5612 10.4736 20.4427C10.5939 20.3242 10.7569 20.2574 10.9271 20.257H13.0711C13.2413 20.2574 13.4044 20.3242 13.5247 20.4427C13.645 20.5612 13.7128 20.7217 13.7133 20.8893V22.9935C13.7128 23.1611 13.645 23.3217 13.5247 23.4402C13.4044 23.5586 13.2413 23.6254 13.0711 23.6259H10.9289C10.7587 23.6254 10.5956 23.5586 10.4753 23.4402C10.355 23.3217 10.2872 23.1611 10.2867 22.9935L10.285 20.8893ZM3.42832 14.1375C3.42832 13.97 3.49567 13.8092 3.61566 13.6904C3.73566 13.5716 3.89853 13.5044 4.0687 13.5035H6.21449C6.38465 13.5039 6.54772 13.5707 6.66804 13.6892C6.78837 13.8077 6.85617 13.9682 6.85664 14.1358V16.247C6.85617 16.4146 6.78837 16.5752 6.66804 16.6936C6.54772 16.8121 6.38465 16.8789 6.21449 16.8794H4.0687C3.89853 16.8789 3.73547 16.8121 3.61515 16.6936C3.49482 16.5752 3.42702 16.4146 3.42655 16.247L3.42832 14.1375ZM3.42832 20.8893C3.42879 20.7217 3.49659 20.5612 3.61691 20.4427C3.73724 20.3242 3.9003 20.2574 4.07047 20.257H6.21449C6.38465 20.2574 6.54772 20.3242 6.66804 20.4427C6.78837 20.5612 6.85617 20.7217 6.85664 20.8893V22.9935C6.85617 23.1611 6.78837 23.3217 6.66804 23.4402C6.54772 23.5586 6.38465 23.6254 6.21449 23.6259H4.0687C3.89853 23.6254 3.73547 23.5586 3.61515 23.4402C3.49482 23.3217 3.42702 23.1611 3.42655 22.9935L3.42832 20.8893ZM21.4279 3.37587H18.8558V0.844839C18.8553 0.621216 18.765 0.406857 18.6046 0.248569C18.4442 0.0902799 18.2267 0.000919791 17.9996 0L16.2854 0C16.058 0.000460276 15.84 0.0896176 15.6792 0.247956C15.5184 0.406294 15.4279 0.620915 15.4274 0.844839V3.37587H8.5708V0.844839C8.57033 0.621216 8.48003 0.406857 8.31962 0.248569C8.1592 0.0902799 7.9417 0.000919791 7.7146 0L6.00044 0C5.77304 0.000460276 5.55508 0.0896176 5.39429 0.247956C5.23349 0.406294 5.14295 0.620915 5.14248 0.844839V3.37587H2.57212C1.88995 3.37587 1.23572 3.64272 0.753358 4.1177C0.270991 4.59269 0 5.23691 0 5.90865L0 8.43968H23.9982V5.90865C23.9982 5.23721 23.7275 4.59326 23.2455 4.11832C22.7635 3.64338 22.1097 3.37633 21.4279 3.37587Z" fill="#1E1E1E" fill-opacity="0.2"/>
</svg>
