<svg width="114" height="133" viewBox="0 0 114 133" fill="none" xmlns="http://www.w3.org/2000/svg">
<path d="M0 120.567C0.0111177 123.868 1.30323 127.03 3.59327 129.361C5.88331 131.691 8.98455 133 12.2176 133H101.782C105.023 133 108.13 131.686 110.422 129.346C112.713 127.006 114 123.833 114 120.524V49.8879H0V120.567ZM81.4226 69.6405C81.4248 68.8151 81.7469 68.0242 82.3184 67.4405C82.8899 66.8569 83.6645 66.528 84.4728 66.5257H94.6485C95.4568 66.528 96.2313 66.8569 96.8028 67.4405C97.3744 68.0242 97.6965 68.8151 97.6987 69.6405V80.0317C97.6965 80.8571 97.3744 81.648 96.8028 82.2317C96.2313 82.8153 95.4568 83.1442 94.6485 83.1465H84.4812C83.6729 83.1442 82.8983 82.8153 82.3268 82.2317C81.7553 81.648 81.4332 80.8571 81.431 80.0317L81.4226 69.6405ZM81.4226 102.899C81.4248 102.074 81.7469 101.283 82.3184 100.699C82.8899 100.115 83.6645 99.7866 84.4728 99.7843H94.6485C95.4568 99.7866 96.2313 100.115 96.8028 100.699C97.3744 101.283 97.6965 102.074 97.6987 102.899V113.265C97.6965 114.09 97.3744 114.881 96.8028 115.465C96.2313 116.048 95.4568 116.377 94.6485 116.379H84.4812C83.6714 116.379 82.8947 116.051 82.3214 115.468C81.748 114.884 81.4248 114.091 81.4226 113.265V102.899ZM48.8535 69.6405C48.8558 68.8151 49.1778 68.0242 49.7494 67.4405C50.3209 66.8569 51.0955 66.528 51.9037 66.5257H62.0879C62.8961 66.528 63.6707 66.8569 64.2422 67.4405C64.8138 68.0242 65.1358 68.8151 65.1381 69.6405V80.0317C65.1358 80.8571 64.8138 81.648 64.2422 82.2317C63.6707 82.8153 62.8961 83.1442 62.0879 83.1465H51.9121C51.1039 83.1442 50.3293 82.8153 49.7578 82.2317C49.1862 81.648 48.8642 80.8571 48.8619 80.0317L48.8535 69.6405ZM48.8535 102.899C48.8558 102.074 49.1778 101.283 49.7494 100.699C50.3209 100.115 51.0955 99.7866 51.9037 99.7843H62.0879C62.8961 99.7866 63.6707 100.115 64.2422 100.699C64.8138 101.283 65.1358 102.074 65.1381 102.899V113.265C65.1358 114.09 64.8138 114.881 64.2422 115.465C63.6707 116.048 62.8961 116.377 62.0879 116.379H51.9121C51.1039 116.377 50.3293 116.048 49.7578 115.465C49.1862 114.881 48.8642 114.09 48.8619 113.265L48.8535 102.899ZM16.2845 69.6405C16.2845 68.8151 16.6044 68.0233 17.1744 67.438C17.7444 66.8528 18.518 66.5217 19.3263 66.5172H29.5188C30.3271 66.5194 31.1017 66.8483 31.6732 67.432C32.2447 68.0156 32.5668 68.8065 32.569 69.6319V80.0317C32.5668 80.8571 32.2447 81.648 31.6732 82.2317C31.1017 82.8153 30.3271 83.1442 29.5188 83.1465H19.3263C18.518 83.1442 17.7435 82.8153 17.1719 82.2317C16.6004 81.648 16.2783 80.8571 16.2761 80.0317L16.2845 69.6405ZM16.2845 102.899C16.2867 102.074 16.6088 101.283 17.1803 100.699C17.7519 100.115 18.5264 99.7866 19.3347 99.7843H29.5188C30.3271 99.7866 31.1017 100.115 31.6732 100.699C32.2447 101.283 32.5668 102.074 32.569 102.899V113.265C32.5668 114.09 32.2447 114.881 31.6732 115.465C31.1017 116.048 30.3271 116.377 29.5188 116.379H19.3263C18.518 116.377 17.7435 116.048 17.1719 115.465C16.6004 114.881 16.2783 114.09 16.2761 113.265L16.2845 102.899ZM101.782 16.6293H89.5648V4.16161C89.5626 3.06006 89.1337 2.00415 88.3717 1.22443C87.6097 0.444712 86.5766 0.00453082 85.4979 0L77.3556 0C76.2755 0.00226729 75.2402 0.44145 74.4764 1.22141C73.7126 2.00138 73.2825 3.05858 73.2803 4.16161V16.6293H40.7113V4.16161C40.7091 3.06006 40.2802 2.00415 39.5182 1.22443C38.7562 0.444712 37.7231 0.00453082 36.6444 0L28.5021 0C27.4219 0.00226729 26.3867 0.44145 25.6229 1.22141C24.8591 2.00138 24.429 3.05858 24.4268 4.16161V16.6293H12.2176C8.97728 16.6293 5.86969 17.9438 3.57845 20.2835C1.28721 22.6233 0 25.7966 0 29.1055L0 41.5732H113.992V29.1055C113.992 25.7981 112.706 22.626 110.416 20.2865C108.127 17.947 105.021 16.6316 101.782 16.6293Z" fill="#1E1E1E" fill-opacity="0.5"/>
</svg>
