 <svg
              width="30"
              height="30"
              viewBox="0 0 30 30"
              fill="none"
              xmlns="http://www.w3.org/2000/svg"
            >
              <path
                d="M15 1.07141V28.9286H22.5C26.0614 28.9286 28.9286 26.0614 28.9286 22.5V7.49998C28.9286 3.93855 26.0614 1.07141 22.5 1.07141H15Z"
                fill="#FD983D"
              />
              <path
                d="M7.5 0C3.36354 0 0 3.36353 0 7.5V22.5C0 26.6365 3.36354 30 7.5 30H22.5C26.6365 30 30 26.6365 30 22.5V7.5C30 3.36353 26.6365 0 22.5 0H7.5ZM7.5 2.14286H22.5C25.4864 2.14286 27.8571 4.51361 27.8571 7.5V22.5C27.8571 25.4864 25.4864 27.8571 22.5 27.8571H7.5C4.51361 27.8571 2.14286 25.4864 2.14286 22.5V7.5C2.14286 4.51361 4.51361 2.14286 7.5 2.14286Z"
                fill="#1E1E1E"
              />
              <path
                d="M14.9992 7.5C14.715 7.5 14.4425 7.61288 14.2415 7.81381C14.0406 8.01475 13.9277 8.28727 13.9277 8.57143V14.9728C13.9277 15.133 13.9636 15.2912 14.0328 15.4357C14.1019 15.5802 14.2026 15.7073 14.3274 15.8078L19.6846 20.1207C19.7942 20.2089 19.9202 20.2747 20.0552 20.3142C20.1903 20.3538 20.3318 20.3663 20.4717 20.3512C20.6117 20.336 20.7472 20.2935 20.8707 20.2259C20.9941 20.1583 21.1031 20.0671 21.1913 19.9574C21.2795 19.8478 21.3453 19.7219 21.3848 19.5868C21.4244 19.4517 21.4369 19.3102 21.4218 19.1703C21.4066 19.0304 21.364 18.8948 21.2965 18.7713C21.2289 18.6479 21.1377 18.5389 21.028 18.4508L16.0706 14.4601V8.57143C16.0706 8.28727 15.9577 8.01475 15.7568 7.81381C15.5558 7.61288 15.2833 7.5 14.9992 7.5Z"
                fill="#1E1E1E"
              />
            </svg>