<svg width="25" height="25" viewBox="0 0 25 25" fill="none" xmlns="http://www.w3.org/2000/svg">
<path d="M22.8152 25C22.5279 25.0001 22.2434 24.9434 21.9781 24.8333C21.7128 24.7232 21.4718 24.5618 21.269 24.3584L0.641041 3.73536C0.437806 3.53217 0.276592 3.29095 0.166602 3.02548C0.0566118 2.76 2.14143e-09 2.47547 0 2.18812C-2.14143e-09 1.90077 0.0566118 1.61624 0.166602 1.35076C0.276592 1.08529 0.437806 0.844072 0.641041 0.640886C0.844276 0.4377 1.08555 0.276525 1.35109 0.166562C1.61663 0.0565981 1.90123 -2.14091e-09 2.18865 0C2.47607 2.14091e-09 2.76067 0.0565981 3.02621 0.166562C3.29175 0.276525 3.53302 0.4377 3.73626 0.640886L24.3613 21.2639C24.6665 21.5702 24.8742 21.9599 24.9582 22.384C25.0423 22.8081 24.9989 23.2476 24.8336 23.6471C24.6682 24.0465 24.3884 24.3882 24.0292 24.6289C23.67 24.8697 23.2476 24.9988 22.8152 25Z" fill="#FD983D"/>
<path d="M2.18711 25C1.75423 24.9988 1.33138 24.8696 0.971824 24.6285C0.612272 24.3875 0.332102 24.0455 0.166605 23.6456C0.00110787 23.2456 -0.0423119 22.8057 0.0418131 22.3811C0.125938 21.9566 0.333846 21.5664 0.639347 21.2598L21.2889 0.614004C21.7022 0.215299 22.2555 -0.00516631 22.8298 9.19438e-05C23.4041 0.0053502 23.9533 0.235911 24.3592 0.642117C24.7651 1.04832 24.9952 1.59767 24.9999 2.17185C25.0046 2.74602 24.7836 3.29907 24.3845 3.71189L3.7378 24.3577C3.32637 24.7686 2.76869 24.9996 2.18711 25Z" fill="#FD983D"/>
</svg>