<svg width="28" height="28" viewBox="0 0 28 28" fill="none" xmlns="http://www.w3.org/2000/svg">
<path fill-rule="evenodd" clip-rule="evenodd" d="M21.436 11.5039C21.364 11.814 21.2463 12.1145 21.0844 12.395L14.6484 23.5421L15.0452 24.2293C15.7023 25.3674 17.1575 25.7574 18.2956 25.1003L24.4776 21.5311C25.6157 20.8741 26.0056 19.4188 25.3485 18.2807L21.436 11.5039Z" fill="#1E1E1E"/>
<path fill-rule="evenodd" clip-rule="evenodd" d="M20.0929 9.85643C20.2345 10.4486 20.1438 11.0724 19.8394 11.5997L13.3403 22.8564C12.6833 23.9945 11.228 24.3844 10.0899 23.7274L3.9079 20.1582C2.76982 19.5011 2.37989 18.0458 3.03696 16.9077L9.53602 5.65104C9.84043 5.12378 10.3354 4.73327 10.919 4.55986L15.8937 3.08173C17.2019 2.69305 18.5682 3.48189 18.8856 4.80911L20.0929 9.85643ZM16.9521 7.08273C16.6236 7.65177 15.8959 7.84673 15.3269 7.5182C14.7578 7.18967 14.5629 6.46204 14.8914 5.893C15.22 5.32396 15.9476 5.12899 16.5166 5.45753C17.0857 5.78606 17.2806 6.51369 16.9521 7.08273ZM7.68856 14.4469C7.79323 14.8248 8.03651 15.124 8.41837 15.3444C8.80023 15.5649 9.18098 15.626 9.56063 15.5277C9.94026 15.4293 10.2504 15.1718 10.491 14.7551C10.6522 14.4758 10.7352 14.2032 10.7397 13.9372C10.7443 13.671 10.6768 13.4277 10.5374 13.2067C10.4026 12.9884 10.2118 12.8081 9.96502 12.6656C9.71821 12.523 9.46427 12.4466 9.20322 12.4364C8.94682 12.4288 8.70458 12.4934 8.47648 12.6304C8.24839 12.7673 8.0537 12.9756 7.89242 13.2549C7.65183 13.6716 7.58388 14.0689 7.68856 14.4469ZM13.05 14.5382C12.8911 14.4465 12.6974 14.4385 12.5315 14.5166L7.64959 16.8161C7.24074 17.0088 7.21684 17.5815 7.60825 17.8075C7.76709 17.8992 7.96079 17.9072 8.12673 17.829L13.0085 15.5295C13.4175 15.3369 13.4414 14.7642 13.05 14.5382ZM9.14253 14.5903C9.03377 14.6495 8.93516 14.6537 8.84668 14.6026C8.7582 14.5515 8.71012 14.4627 8.70246 14.3362C8.7021 14.2077 8.76272 14.0382 8.88434 13.8276C9.00596 13.6169 9.12115 13.4819 9.2299 13.4227C9.34596 13.3614 9.44823 13.3563 9.53671 13.4074C9.62521 13.4585 9.66962 13.5483 9.66998 13.6766C9.67765 13.8032 9.62067 13.9718 9.49905 14.1825C9.37744 14.3931 9.25859 14.529 9.14253 14.5903ZM9.96333 18.7824C10.068 19.1604 10.3113 19.4596 10.6931 19.6801C11.075 19.9006 11.4558 19.9616 11.8355 19.8634C12.2151 19.765 12.5252 19.5075 12.7658 19.0908C12.927 18.8115 13.0099 18.5388 13.0145 18.2727C13.019 18.0067 12.9516 17.7632 12.8122 17.5424C12.6774 17.3241 12.4866 17.1437 12.2398 17.0012C11.993 16.8587 11.7391 16.7823 11.478 16.772C11.2216 16.7645 10.9793 16.8291 10.7512 16.9661C10.5232 17.103 10.3285 17.3112 10.1672 17.5906C9.9266 18.0072 9.85865 18.4046 9.96333 18.7824ZM11.4173 18.9259C11.3085 18.9852 11.2099 18.9893 11.1214 18.9383C11.033 18.8872 10.9849 18.7983 10.9772 18.6718C10.9769 18.5434 11.0375 18.3739 11.1591 18.1632C11.2807 17.9526 11.3959 17.8176 11.5047 17.7582C11.6207 17.6971 11.723 17.692 11.8115 17.7431C11.9 17.7942 11.9444 17.8839 11.9448 18.0123C11.9525 18.1389 11.8954 18.3075 11.7739 18.5181C11.6522 18.7288 11.5334 18.8647 11.4173 18.9259Z" fill="#1E1E1E"/>
</svg>
