<svg width="27" height="23" viewBox="0 0 27 23" fill="none" xmlns="http://www.w3.org/2000/svg">
<path d="M20.8522 0H13.0533H5.25444C5.08911 0 4.9366 0.0555164 4.80078 0.140553L5.28154 5.90329L7.85407 7.79888L12.2139 5.57833L18.2526 7.79888L20.8522 5.76793L21.3059 0.140611C21.1702 0.0555163 21.0175 0 20.8522 0Z" fill="#B5E550"/>
<path d="M18.253 7.79891L20.8526 5.76797L21.3063 0.140645C21.1706 0.0556079 21.0179 9.15527e-05 20.8526 9.15527e-05H13.0537V5.88715L18.253 7.79891Z" fill="#ABC32F"/>
<path d="M26.0117 7.33938L21.5866 0.407044C21.5159 0.294047 21.4152 0.209241 21.3058 0.140611L18.2524 7.79888L13.0532 0L7.85391 7.79888L4.80062 0.140553C4.69114 0.209183 4.59045 0.294046 4.5198 0.406986L0.106211 7.33932C0.0204237 7.47618 -0.0036662 7.63834 0.000435436 7.79882L2.54639 10.3984H22.4046L26.1029 7.79882C26.1047 7.63267 26.0892 7.46301 26.0117 7.33938Z" fill="#ABC32F"/>
<path d="M22.4051 10.3985L26.1033 7.79888C26.1052 7.63268 26.0898 7.46301 26.0123 7.33938L21.5871 0.407044C21.5165 0.294047 21.4158 0.209241 21.3063 0.140611L18.253 7.79888L13.0537 0V10.3985H22.4051Z" fill="#809C13"/>
<path d="M18.2518 7.79889H7.85327L6.82422 13.648L13.0525 22.5879L18.8746 14.8395L18.2518 7.79889Z" fill="#B5E550"/>
<path d="M18.253 7.79889H13.0537V22.5879L18.8758 14.8395L18.253 7.79889Z" fill="#ABC32F"/>
<path d="M0 7.79889C0.00612356 8.03719 0.0875784 8.2715 0.227612 8.41153L12.4401 22.334C12.6093 22.5032 12.8311 22.5879 13.0527 22.5879L7.85347 7.79889H0Z" fill="#809C13"/>
<path d="M18.253 7.79889L13.0537 22.5879C13.2754 22.5879 13.4972 22.5032 13.6664 22.334L25.8904 8.41153C26.045 8.25689 26.1007 8.02777 26.1033 7.79889H18.253Z" fill="#607C3C"/>
</svg>
