<svg width="26" height="26" viewBox="0 0 26 26" fill="none" xmlns="http://www.w3.org/2000/svg">
<g clip-path="url(#clip0_35_679)">
<path d="M25.4014 12.7007C25.4014 19.0401 20.7567 24.2945 14.6852 25.2471V16.372H17.6445L18.2076 12.7007H14.6852V10.3183C14.6852 9.31367 15.1773 8.33483 16.755 8.33483H18.3565V5.20927C18.3565 5.20927 16.9028 4.96121 15.5132 4.96121C12.6124 4.96121 10.7162 6.71946 10.7162 9.90257V12.7007H7.49142V16.372H10.7162V25.2471C4.64468 24.2945 0 19.0401 0 12.7007C0 5.68653 5.68653 0 12.7007 0C19.7148 0 25.4014 5.68653 25.4014 12.7007Z" fill="#1877F2"/>
<path d="M17.6443 16.372L18.2074 12.7007H14.685V10.3183C14.685 9.31388 15.177 8.33483 16.7547 8.33483H18.3563V5.20927C18.3563 5.20927 16.9028 4.96121 15.5132 4.96121C12.6121 4.96121 10.716 6.71946 10.716 9.90257V12.7007H7.49121V16.372H10.716V25.247C11.3626 25.3485 12.0254 25.4014 12.7005 25.4014C13.3756 25.4014 14.0383 25.3485 14.685 25.247V16.372H17.6443Z" fill="white"/>
</g>
<defs>
<clipPath id="clip0_35_679">
<rect width="25.4014" height="25.4014" fill="white"/>
</clipPath>
</defs>
</svg>
