<svg width="91" height="91" viewBox="0 0 91 91" fill="none" xmlns="http://www.w3.org/2000/svg">
<path d="M81.9811 61.8252C81.2495 61.0821 80.3236 60.5636 79.3111 60.3299C78.2986 60.0963 77.2411 60.157 76.2615 60.5051L75.7476 55.9434L79.5772 52.117C80.5991 51.0593 81.1709 49.6414 81.1709 48.1652C81.1709 46.6889 80.5991 45.271 79.5772 44.2133C78.8799 43.5193 78.0108 43.0262 77.0604 42.7853C76.1099 42.5443 75.1128 42.5643 74.1726 42.8432L72.8795 33.937L82.4951 25.0643L83.5064 24.1285C88.9607 18.7982 93.9012 7.30204 88.9607 2.15551C88.1461 1.40199 87.1885 0.822533 86.1457 0.452075C85.1028 0.0816179 83.9964 -0.0721688 82.893 -1.39941e-05C79.9145 0.18809 77.0019 0.965978 74.3218 2.28919C71.4914 3.57467 68.9138 5.36327 66.7122 7.5694L66.1154 8.20436L56.1683 18.8316L47.8789 17.4614C48.177 16.5011 48.2094 15.477 47.9728 14.4995C47.7361 13.5219 47.2394 12.628 46.5361 11.9139C45.486 10.879 44.0756 10.2995 42.6069 10.2995C41.1383 10.2995 39.7279 10.879 38.6778 11.9139L34.8482 15.7571L30.1896 15.2224C30.5883 14.2149 30.6861 13.1119 30.4711 12.0491C30.2561 10.9863 29.7376 10.01 28.9793 9.24035C28.6163 8.88534 28.2028 8.58686 27.7525 8.35474C26.9223 7.96257 26.0168 7.75927 25.0999 7.75927C24.1831 7.75927 23.2775 7.96257 22.4474 8.35474C21.9821 8.58556 21.5567 8.89021 21.1874 9.25706L16.794 13.6517L10.6765 12.9331C9.02438 12.7564 7.35382 12.9361 5.77593 13.4605C4.19805 13.9848 2.749 14.8418 1.52515 15.9743L1.35936 16.1414C0.478441 17.0472 -0.0149841 18.265 -0.0149841 19.5334C-0.0149841 20.8018 0.478441 22.0196 1.35936 22.9254C1.79297 23.375 2.31933 23.7229 2.90117 23.9447C8.5224 26.2987 14.0224 28.9366 19.3803 31.8483C22.5966 33.5193 25.7465 35.374 28.6643 37.1118L29.2612 37.4794C31.4164 38.7661 33.4556 40.0193 35.2792 41.2056L24.7684 52.4678L24.1881 52.3175L9.83103 48.7583H9.35025C8.80968 48.7133 8.26586 48.7871 7.75635 48.9746C7.24685 49.1621 6.78382 49.4589 6.39926 49.8445L6.16716 50.1285L3.82957 52.4344C3.57892 52.7408 3.36728 53.0776 3.19958 53.437C2.93222 54.0292 2.80183 54.6748 2.81828 55.3252C3.00046 56.4379 3.59251 57.4404 4.47614 58.1324L13.2628 64.081L16.9101 66.554L17.1422 66.7211L16.5619 67.3226C15.8379 68.2227 15.4298 69.339 15.4014 70.4974C15.4061 71.0839 15.5291 71.6633 15.7628 72.2005C15.9965 72.7376 16.336 73.2213 16.7609 73.6221C17.6172 74.4904 18.7791 74.9828 19.9937 74.9923C20.5433 75.0114 21.0906 74.9125 21.5993 74.7022C22.1081 74.4919 22.5667 74.175 22.9447 73.7725L23.9726 72.7365L24.9176 74.1568L27.4044 77.883L33.3063 86.8894C33.5978 87.3525 33.9892 87.7432 34.4513 88.0326C34.9135 88.3219 35.4345 88.5023 35.9755 88.5604H36.4729C37.1935 88.5816 37.8984 88.3448 38.4623 87.892C38.5672 87.8145 38.6572 87.7182 38.7276 87.608L41.2309 85.0848C41.4261 84.8894 41.6036 84.6769 41.7614 84.4499C42.0699 84.0249 42.2781 83.5345 42.37 83.0162C42.4619 82.4979 42.4352 81.9652 42.292 81.4589L38.4291 67.8573L37.9484 66.1864L50.1834 54.9241C51.6423 57.2468 53.2173 59.937 54.842 62.7609C56.4998 65.7519 58.3069 68.9768 60.0145 72.2686C62.75 77.5822 65.3694 83.063 67.4085 88.0758C67.6124 88.7122 67.9715 89.2867 68.453 89.7468C69.3509 90.6029 70.533 91.0914 71.7687 91.117C72.4 91.1485 73.0297 91.0286 73.6061 90.7672C74.1825 90.5058 74.6892 90.1102 75.0844 89.6131C76.2753 88.3807 77.1881 86.9036 77.7604 85.2829C78.3326 83.6621 78.5509 81.9359 78.4002 80.2223L77.7039 74.1735L81.948 69.7789C82.1809 69.5289 82.3866 69.2544 82.5614 68.9601C83.185 68.0331 83.5184 66.9388 83.5184 65.8187C83.5184 64.6987 83.185 63.6044 82.5614 62.6774C82.3998 62.3726 82.2052 62.0868 81.9811 61.8252ZM69.7296 10.8445C70.7346 9.83881 71.8466 8.94783 73.0453 8.18765C75.9826 6.2146 79.3735 5.03509 82.893 4.7622C83.363 4.6815 83.8447 4.70392 84.3053 4.82791C84.766 4.95191 85.1946 5.17457 85.5621 5.48071C87.3858 7.41901 85.6948 13.6684 82.4951 18.3303C81.8099 19.3468 81.0269 20.2927 80.1575 21.1542L71.6527 28.991L65.0212 35.0732L49.4705 49.3766H49.3379C49.0544 49.5594 48.8162 49.8052 48.6416 50.0951L34.4171 63.1619C34.0255 63.3535 33.6973 63.6553 33.4721 64.0308C32.7462 64.5792 31.9484 65.0234 31.1014 65.3509C31.7245 64.5115 32.0618 63.4917 32.0629 62.4434C32.0979 61.8438 32.0066 61.2436 31.7952 60.6821C31.5837 60.1205 31.2569 59.6104 30.8361 59.1851C30.1133 58.5772 29.2342 58.1886 28.301 58.0644C27.3678 57.9402 26.4187 58.0854 25.5641 58.4833C25.895 57.7877 26.3189 57.1412 26.8241 56.5617L53.1509 28.4897L60.9429 20.1349L69.7296 10.8445ZM28.0012 62.4601H27.8851V61.6247L28.0012 62.4601ZM41.7946 15.0385C42.0285 14.8458 42.3214 14.7405 42.6235 14.7405C42.9257 14.7405 43.2185 14.8458 43.4524 15.0385C43.6467 15.2729 43.7531 15.5686 43.7531 15.874C43.7531 16.1794 43.6467 16.4751 43.4524 16.7095L40.5678 16.3753L41.7946 15.0385ZM24.2876 12.3817C24.524 12.1947 24.8159 12.0931 25.1165 12.0931C25.4171 12.0931 25.709 12.1947 25.9454 12.3817C26.1338 12.6188 26.2364 12.9135 26.2364 13.2172C26.2364 13.5209 26.1338 13.8156 25.9454 14.0527L25.3155 14.6709L22.4308 14.3367L24.2876 12.3817ZM4.77455 19.9177C4.68897 19.8627 4.60041 19.8125 4.5093 19.7673C4.39325 19.6671 4.40982 19.4499 4.5093 19.2493C5.2807 18.5644 6.18344 18.0463 7.16158 17.7273C8.13972 17.4082 9.17243 17.295 10.1958 17.3946L17.4075 18.2134H17.5732L25.5973 19.1324C25.746 19.1498 25.8962 19.1498 26.0449 19.1324H26.161L35.0471 20.1349C35.2954 20.2029 35.5527 20.2311 35.8097 20.2185L43.2867 21.0707C43.5634 21.1939 43.8628 21.2565 44.1653 21.2545H44.3311L52.6204 22.6247L50.7802 24.5964L38.3462 37.964L37.8986 37.6799C27.3755 30.8256 16.2945 24.8836 4.77455 19.9177ZM7.85817 55.0077L9.38341 53.4704L13.5115 54.4396L20.7066 56.1105L21.8505 56.3779C20.709 58.4748 19.9985 60.7821 19.7616 63.1619L7.85817 55.0077ZM22.4639 68.1247L19.9937 70.6144L22.5468 68.0578C22.5196 68.0508 22.4911 68.0508 22.4639 68.0578V68.1247ZM35.445 73.6889L37.8323 82.0437L36.506 83.3637L32.179 76.9306L30.7201 74.7583L28.1836 71.0655V70.8817H28.598C30.5421 70.5315 32.4245 69.8954 34.185 68.9936L34.7984 71.1825L35.445 73.6889ZM72.1666 86.5553C72.0941 86.5995 72.011 86.6229 71.9262 86.6229C71.8415 86.6229 71.7583 86.5995 71.6858 86.5553L71.5366 86.2879C66.6744 74.777 60.9204 63.6698 54.328 53.0694L53.4659 51.7995L68.9006 37.5797L70.1772 46.3522C70.0906 46.7987 70.1487 47.2615 70.343 47.6722L71.1719 54.8573C71.0691 55.3307 71.1275 55.8251 71.3377 56.2609L72.2163 64.0141C72.0897 64.3421 72.0446 64.6962 72.0851 65.0458C72.1256 65.3953 72.2503 65.7295 72.4484 66.0193L73.2608 73.0038C73.1604 73.4592 73.2129 73.9353 73.41 74.3573L74.156 80.8239C74.2624 81.8577 74.139 82.9024 73.7949 83.8822C73.4508 84.862 72.8946 85.7523 72.1666 86.4884V86.5553ZM75.0347 50.3792L74.7031 47.455C74.812 47.3453 74.9412 47.2583 75.0835 47.1989C75.2257 47.1395 75.3781 47.1089 75.5321 47.1089C75.686 47.1089 75.8385 47.1395 75.9807 47.1989C76.1229 47.2583 76.2521 47.3453 76.361 47.455C76.4699 47.5647 76.5562 47.695 76.6151 47.8383C76.674 47.9817 76.7044 48.1353 76.7044 48.2905C76.7044 48.4456 76.674 48.5993 76.6151 48.7426C76.5562 48.886 76.4699 49.0162 76.361 49.1259L75.0347 50.3792ZM78.8478 66.6208L77.107 68.4254L76.7755 65.4511L77.1899 65.0334C77.2919 64.9181 77.4159 64.8246 77.5544 64.7586C77.6929 64.6925 77.8432 64.6551 77.9964 64.6487C78.1495 64.6423 78.3023 64.667 78.4458 64.7213C78.5893 64.7756 78.7205 64.8584 78.8316 64.9648C78.9427 65.0712 79.0315 65.199 79.0927 65.3407C79.1538 65.4823 79.1861 65.6349 79.1876 65.7894C79.1891 65.9438 79.1598 66.097 79.1014 66.2399C79.0431 66.3827 78.9568 66.5122 78.8478 66.6208Z" fill="#1E1E1E"/>
<path d="M82.2298 14.554C82.2501 14.862 82.2079 15.171 82.1058 15.4621C82.0037 15.7531 81.8438 16.0202 81.636 16.2469C81.4281 16.4736 81.1765 16.6553 80.8967 16.7808C80.6168 16.9063 80.3146 16.973 80.0083 16.9769C79.4406 16.9906 78.8901 16.7796 78.4749 16.3892C78.0596 15.9988 77.8126 15.4599 77.7867 14.8882C77.7252 14.4719 77.51 14.0943 77.1842 13.831C76.8584 13.5677 76.446 13.438 76.0294 13.4679H75.8305C75.5356 13.4796 75.2415 13.4297 74.9667 13.3214C74.6919 13.213 74.4423 13.0485 74.2337 12.8382C74.025 12.6279 73.8618 12.3763 73.7543 12.0994C73.6467 11.8224 73.5973 11.526 73.6089 11.2288C73.5997 10.9322 73.6509 10.6369 73.7593 10.3611C73.8677 10.0852 74.031 9.83468 74.2391 9.62488C74.4473 9.41509 74.6959 9.25049 74.9696 9.14125C75.2433 9.03201 75.5362 8.98043 75.8305 8.98971H76.2615C77.7732 8.97346 79.2338 9.54088 80.3436 10.5755C81.4534 11.6102 82.1283 13.0337 82.2298 14.554Z" fill="#1E1E1E"/>
</svg>
