<svg width="26" height="26" viewBox="0 0 26 26" fill="none" xmlns="http://www.w3.org/2000/svg">
<path d="M5.73695 15.6434L4.83588 19.0072L1.54251 19.0769C0.558274 17.2514 0 15.1627 0 12.9432C0 10.7969 0.521973 8.77288 1.44721 6.99072H1.44791L4.37994 7.52827L5.66435 10.4427C5.39552 11.2264 5.249 12.0677 5.249 12.9432C5.2491 13.8933 5.42121 14.8036 5.73695 15.6434Z" fill="#FBBB00"/>
<path d="M25.6607 10.5254C25.8094 11.3083 25.8869 12.1169 25.8869 12.9433C25.8869 13.87 25.7894 14.7739 25.6038 15.6458C24.9738 18.6127 23.3274 21.2035 21.0467 23.0369L21.046 23.0362L17.353 22.8477L16.8303 19.5849C18.3436 18.6974 19.5263 17.3085 20.1493 15.6458H13.2283V10.5254H20.2503H25.6607Z" fill="#518EF8"/>
<path d="M21.0449 23.0361L21.0456 23.0368C18.8275 24.8196 16.0099 25.8864 12.9426 25.8864C8.01357 25.8864 3.72812 23.1314 1.54199 19.077L5.73643 15.6436C6.82947 18.5607 9.64354 20.6373 12.9426 20.6373C14.3607 20.6373 15.6892 20.254 16.8291 19.5848L21.0449 23.0361Z" fill="#28B446"/>
<path d="M21.2055 2.97976L17.0125 6.41252C15.8327 5.67506 14.4381 5.24905 12.9439 5.24905C9.57018 5.24905 6.70347 7.42092 5.66519 10.4427L1.44871 6.99072H1.448C3.60212 2.83753 7.94162 0 12.9439 0C16.0844 0 18.9639 1.11867 21.2055 2.97976Z" fill="#F14336"/>
</svg>
