<svg width="91" height="90" viewBox="0 0 91 90" fill="none" xmlns="http://www.w3.org/2000/svg">
<g clip-path="url(#clip0_214_539)">
<path d="M50.9094 62.15H27.0809C26.5075 62.1475 25.9563 62.3691 25.5474 62.7667C25.147 63.1721 24.9232 63.7166 24.9239 64.2833V79.2833C24.9214 79.8504 25.1455 80.3956 25.5474 80.8C25.9629 81.1855 26.5112 81.4001 27.0809 81.4001C27.6506 81.4001 28.199 81.1855 28.6144 80.8C29.021 80.3972 29.2511 79.8524 29.2548 79.2833V66.4333H36.8382V79.2833C36.8351 79.5644 36.8886 79.8433 36.9956 80.1037C37.1027 80.3641 37.2611 80.6008 37.4617 80.8C37.8699 81.2006 38.4201 81.4278 38.9952 81.4333C39.5704 81.429 40.1208 81.2011 40.5275 80.7988C40.9342 80.3965 41.1647 79.8522 41.1691 79.2833V66.4333H48.7524V79.2833C48.7567 79.8493 48.9849 80.3912 49.388 80.793C49.7911 81.1948 50.3372 81.4246 50.9094 81.4333C51.1947 81.4333 51.4771 81.3773 51.7404 81.2686C52.0036 81.1599 52.2424 81.0006 52.443 80.8C52.8496 80.3972 53.0796 79.8524 53.0833 79.2833V64.2833C53.0833 64.0018 53.027 63.723 52.9175 63.4631C52.8081 63.2031 52.6477 62.9672 52.4456 62.7689C52.2435 62.5706 52.0037 62.4138 51.7401 62.3076C51.4764 62.2014 51.1941 62.1478 50.9094 62.15Z" fill="#1E1E1E"/>
<path d="M69.0926 23.8167C69.266 24.0003 69.4792 24.1427 69.7161 24.2333C69.9447 24.3301 70.1922 24.3756 70.4407 24.3667H76.9287C77.1772 24.3756 77.4247 24.3301 77.6533 24.2333C77.8867 24.1361 78.0985 23.9945 78.2769 23.8167C78.4523 23.6531 78.5902 23.4541 78.6813 23.2333C78.7814 23.0015 78.833 22.7521 78.833 22.5V16.0667C78.8331 15.82 78.7814 15.5759 78.6813 15.35C78.5888 15.1251 78.4512 14.921 78.2769 14.75C78.0985 14.5721 77.8867 14.4306 77.6533 14.3333C77.4247 14.2365 77.1772 14.191 76.9287 14.2H70.4239C70.17 14.1928 69.9175 14.2382 69.6824 14.3333C69.4542 14.431 69.248 14.5726 69.0757 14.75C68.8983 14.9184 68.7602 15.1232 68.6713 15.35C68.573 15.5765 68.5214 15.8202 68.5196 16.0667V22.5C68.5195 22.7467 68.5712 22.9907 68.6713 23.2167C68.7651 23.445 68.909 23.6499 69.0926 23.8167ZM72.3281 20.6333V17.95H75.0413V20.6333H72.3281Z" fill="#1E1E1E"/>
<path d="M69.0926 38.8167C69.266 39.0003 69.4792 39.1427 69.7161 39.2333C69.9447 39.3301 70.1922 39.3756 70.4407 39.3667H76.9287C77.1772 39.3756 77.4247 39.3301 77.6533 39.2333C77.8867 39.1361 78.0985 38.9945 78.2769 38.8167C78.4523 38.6531 78.5902 38.4542 78.6813 38.2333C78.7814 38.0015 78.833 37.7521 78.833 37.5V31.0667C78.8331 30.82 78.7814 30.5759 78.6813 30.35C78.5888 30.1251 78.4512 29.921 78.2769 29.75C78.0985 29.5721 77.8867 29.4306 77.6533 29.3333C77.4247 29.2365 77.1772 29.191 76.9287 29.2H70.4239C70.17 29.1928 69.9175 29.2382 69.6824 29.3333C69.4542 29.431 69.248 29.5726 69.0757 29.75C68.8983 29.9184 68.7602 30.1232 68.6713 30.35C68.573 30.5765 68.5214 30.8202 68.5196 31.0667V37.5C68.5195 37.7467 68.5712 37.9907 68.6713 38.2167C68.7651 38.445 68.909 38.6499 69.0926 38.8167ZM72.3281 35.6333V32.95H75.0413V35.6333H72.3281Z" fill="#1E1E1E"/>
<path d="M69.0926 53.8333C69.2732 54.0042 69.4847 54.1399 69.7161 54.2333C69.9447 54.3301 70.1922 54.3756 70.4407 54.3667H76.9287C77.1772 54.3756 77.4247 54.3301 77.6533 54.2333C77.8825 54.1358 78.0934 54.0006 78.2769 53.8333C78.4421 53.6551 78.5785 53.4527 78.6813 53.2333C78.7814 53.0015 78.833 52.7521 78.833 52.5V46.0667C78.8331 45.82 78.7814 45.5759 78.6813 45.35C78.5888 45.1251 78.4512 44.921 78.2769 44.75C78.0985 44.5722 77.8867 44.4306 77.6533 44.3333C77.4268 44.23 77.1777 44.1841 76.9287 44.2H70.4239C70.17 44.1928 69.9175 44.2382 69.6824 44.3333C69.4542 44.431 69.248 44.5726 69.0757 44.75C68.8983 44.9184 68.7602 45.1232 68.6713 45.35C68.573 45.5765 68.5214 45.8202 68.5196 46.0667V52.5C68.5195 52.7467 68.5712 52.9907 68.6713 53.2167C68.7685 53.4481 68.9117 53.6578 69.0926 53.8333ZM72.3281 50.6167V47.95H75.0413V50.6167H72.3281Z" fill="#1E1E1E"/>
<path d="M69.0926 68.8333C69.2732 69.0042 69.4847 69.1399 69.7161 69.2333C69.9447 69.3301 70.1922 69.3756 70.4407 69.3667H76.9287C77.1772 69.3756 77.4247 69.3301 77.6533 69.2333C77.8825 69.1358 78.0934 69.0006 78.2769 68.8333C78.4421 68.6551 78.5785 68.4527 78.6813 68.2333C78.7814 68.0015 78.833 67.7521 78.833 67.5V61.0667C78.8367 60.8196 78.7849 60.5748 78.6813 60.35C78.5872 60.1209 78.45 59.9117 78.2769 59.7333C78.0934 59.5661 77.8825 59.4309 77.6533 59.3333C77.4219 59.2461 77.1764 59.2009 76.9287 59.2H70.4239C70.1709 59.2024 69.9201 59.2475 69.6824 59.3333C69.4515 59.4261 69.2443 59.5684 69.0757 59.75C68.8983 59.9184 68.7602 60.1232 68.6713 60.35C68.573 60.5765 68.5214 60.8202 68.5196 61.0667V67.5C68.5195 67.7467 68.5712 67.9907 68.6713 68.2167C68.7685 68.4481 68.9117 68.6578 69.0926 68.8333ZM72.3281 65.6167V62.95H75.0413V65.6167H72.3281Z" fill="#1E1E1E"/>
<path d="M90.3596 80.0002C90.1591 79.7996 89.9202 79.6403 89.657 79.5316C89.3938 79.4229 89.1114 79.3669 88.8261 79.3669V2.15018C88.8292 1.8691 88.7757 1.59022 88.6686 1.32981C88.5616 1.06941 88.4031 0.832709 88.2026 0.633518C87.7954 0.231406 87.2445 0.00390822 86.6691 0.000184873H41.1691C40.8833 -0.00359625 40.5997 0.050659 40.3359 0.159595C40.0721 0.268531 39.8338 0.429831 39.6356 0.633518C39.4327 0.831886 39.2717 1.06807 39.1618 1.32841C39.0518 1.58875 38.9952 1.86806 38.9952 2.15018V9.58352L17.863 4.35018C17.5416 4.27501 17.2069 4.27501 16.8856 4.35018C16.5659 4.41406 16.2658 4.55105 16.0093 4.75019C15.7439 4.9542 15.5303 5.21674 15.3857 5.51685C15.2387 5.80035 15.1635 6.11492 15.1667 6.43352V27.8502H4.33093C4.04624 27.8502 3.76436 27.9059 3.50155 28.0142C3.23874 28.1224 3.0002 28.281 2.79968 28.4809C2.59916 28.6808 2.44063 28.9179 2.33322 29.1787C2.22582 29.4394 2.17166 29.7186 2.17389 30.0002V79.2835C1.88258 79.2943 1.59649 79.3633 1.33292 79.4865C1.06935 79.6097 0.833753 79.7844 0.64037 80.0002C0.233791 80.4029 0.00376471 80.9477 0 81.5169L0 87.9335C0.00376471 88.5026 0.233791 89.0474 0.64037 89.4502C0.840942 89.6508 1.07975 89.8101 1.34298 89.9188C1.60621 90.0275 1.88863 90.0835 2.17389 90.0835H88.8261C89.1119 90.0873 89.3955 90.0331 89.6593 89.9241C89.923 89.8152 90.1614 89.6539 90.3596 89.4502C90.7662 89.0474 90.9962 88.5026 91 87.9335V81.4335C90.9748 80.8935 90.7464 80.3822 90.3596 80.0002ZM4.41518 83.6502H17.4248C17.9969 83.6502 18.5455 83.4254 18.9501 83.0254C19.3546 82.6253 19.5819 82.0826 19.5819 81.5169V9.16685L58.577 18.8169V81.4335C58.5826 82.0023 58.8124 82.5464 59.2174 82.9502C59.6263 83.3477 60.1775 83.5694 60.7509 83.5669H86.6691V85.7169H4.33093L4.41518 83.6502ZM15.1667 79.2835H6.50481V32.1502H15.1667V79.2835ZM84.4952 79.2835H62.8406V17.1502C62.832 16.6675 62.662 16.2013 62.3571 15.8243C62.0522 15.4474 61.6296 15.181 61.1554 15.0669L43.3261 10.6502V4.28352H84.4952V79.2835Z" fill="#1E1E1E"/>
<path d="M30.8726 31.6667C31.1573 31.6689 31.4396 31.6153 31.7032 31.5091C31.9669 31.4029 32.2067 31.2461 32.4088 31.0478C32.6108 30.8494 32.7712 30.6135 32.8807 30.3536C32.9901 30.0937 33.0465 29.8149 33.0465 29.5333V28.3333H34.125C34.7015 28.3333 35.2545 28.1068 35.6622 27.7036C36.0699 27.3004 36.2989 26.7536 36.2989 26.1833C36.2989 25.6131 36.0699 25.0663 35.6622 24.6631C35.2545 24.2599 34.7015 24.0333 34.125 24.0333H30.8726C30.5765 24.024 30.2816 24.075 30.0063 24.1833C29.731 24.2916 29.4812 24.4548 29.2725 24.6628C29.0638 24.8708 28.9006 25.119 28.7932 25.3921C28.6858 25.6652 28.6364 25.9572 28.6481 26.25V29.4667C28.6337 29.7594 28.6813 30.0518 28.788 30.3252C28.8947 30.5986 29.058 30.8469 29.2675 31.0541C29.477 31.2613 29.7281 31.4229 30.0045 31.5284C30.2809 31.6339 30.5766 31.681 30.8726 31.6667Z" fill="#1E1E1E"/>
<path d="M43.8148 31.6667C44.0965 31.6694 44.3758 31.6162 44.6363 31.5103C44.8968 31.4044 45.1332 31.2478 45.3315 31.05C45.7381 30.6472 45.9681 30.1024 45.9719 29.5333V28.3333H47.1852C47.4704 28.3333 47.7529 28.2773 48.0161 28.1686C48.2793 28.0599 48.5181 27.9006 48.7187 27.7C48.9215 27.5016 49.0825 27.2654 49.1924 27.0051C49.3022 26.7447 49.3588 26.4654 49.3588 26.1833C49.3588 25.9012 49.3022 25.6219 49.1924 25.3616C49.0825 25.1012 48.9215 24.865 48.7187 24.6667C48.5181 24.4661 48.2793 24.3068 48.0161 24.1981C47.7529 24.0894 47.4704 24.0334 47.1852 24.0333H43.8148C43.235 24.0397 42.6798 24.2665 42.2644 24.6667C41.864 25.0721 41.6402 25.6166 41.6409 26.1833V29.4C41.6224 29.6926 41.665 29.9858 41.7662 30.2613C41.8673 30.5369 42.0248 30.7889 42.2287 31.0016C42.4327 31.2143 42.6788 31.3831 42.9517 31.4975C43.2246 31.6119 43.5184 31.6695 43.8148 31.6667Z" fill="#1E1E1E"/>
<path d="M30.8726 44.4667C31.4478 44.4623 31.9982 44.2344 32.4049 43.8321C32.8116 43.4299 33.0421 42.8855 33.0465 42.3167V41.25H34.125C34.7004 41.2463 35.2513 41.0188 35.6585 40.6167C35.8608 40.4197 36.0214 40.1849 36.1311 39.926C36.2407 39.667 36.2972 39.3891 36.2972 39.1083C36.2972 38.8276 36.2407 38.5497 36.1311 38.2907C36.0214 38.0318 35.8608 37.797 35.6585 37.6C35.2513 37.1979 34.7004 36.9704 34.125 36.9667H30.8726C30.2971 36.9704 29.7463 37.1979 29.3391 37.6C29.1398 37.7967 28.982 38.0306 28.875 38.2881C28.7679 38.5456 28.7137 38.8216 28.7156 39.1V42.3167C28.7133 42.5982 28.7675 42.8774 28.8749 43.1382C28.9823 43.3989 29.1408 43.6361 29.3413 43.836C29.5419 44.0358 29.7804 44.1945 30.0432 44.3027C30.306 44.411 30.5879 44.4667 30.8726 44.4667Z" fill="#1E1E1E"/>
<path d="M43.8148 44.4667C44.0975 44.4663 44.3773 44.4101 44.6377 44.3013C44.8982 44.1925 45.134 44.0334 45.3315 43.8333C45.7381 43.4306 45.9681 42.8858 45.9719 42.3167V41.25H47.1852C47.7265 41.2027 48.2303 40.9566 48.5973 40.5602C48.9643 40.1638 49.1679 39.6458 49.1679 39.1083C49.1679 38.5709 48.9643 38.0529 48.5973 37.6565C48.2303 37.26 47.7265 37.014 47.1852 36.9667H43.8148C43.235 36.9731 42.6798 37.1999 42.2644 37.6C42.0652 37.7967 41.9074 38.0306 41.8004 38.2881C41.6933 38.5456 41.6391 38.8216 41.6409 39.1V42.3167C41.6453 42.8855 41.8758 43.4299 42.2825 43.8321C42.6892 44.2344 43.2396 44.4623 43.8148 44.4667Z" fill="#1E1E1E"/>
<path d="M30.8726 57.3167C31.446 57.3192 31.9972 57.0975 32.4061 56.7C32.8112 56.2962 33.0409 55.7521 33.0465 55.1833V54.1H34.125C34.6663 54.0527 35.1701 53.8066 35.5371 53.4102C35.9041 53.0138 36.1077 52.4958 36.1077 51.9583C36.1077 51.4209 35.9041 50.9029 35.5371 50.5065C35.1701 50.11 34.6663 49.8639 34.125 49.8167H30.8726C30.5823 49.8077 30.2931 49.8568 30.0225 49.961C29.7518 50.0652 29.5052 50.2225 29.2975 50.4232C29.0898 50.624 28.9252 50.8642 28.8136 51.1294C28.702 51.3946 28.6457 51.6794 28.6481 51.9667V55.1833C28.6474 55.7501 28.8713 56.2946 29.2717 56.7C29.4822 56.905 29.7327 57.0654 30.0079 57.1714C30.2832 57.2774 30.5774 57.3268 30.8726 57.3167Z" fill="#1E1E1E"/>
<path d="M43.8148 57.3167C44.0965 57.3194 44.3758 57.2662 44.6363 57.1603C44.8968 57.0544 45.1332 56.8978 45.3315 56.7C45.5351 56.5022 45.6966 56.2661 45.8066 56.0056C45.9166 55.7452 45.9728 55.4656 45.9718 55.1833V54.1H47.1852C47.4699 54.1022 47.7522 54.0486 48.0158 53.9424C48.2795 53.8362 48.5193 53.6794 48.7213 53.4811C48.9234 53.2828 49.0838 53.0468 49.1933 52.7869C49.3027 52.527 49.3591 52.2482 49.3591 51.9667C49.3553 51.3975 49.1253 50.8527 48.7187 50.45C48.5181 50.2494 48.2793 50.0901 48.0161 49.9814C47.7529 49.8727 47.4704 49.8167 47.1852 49.8167H43.8148C43.5287 49.8144 43.245 49.8685 42.9803 49.9758C42.7155 50.0831 42.4749 50.2413 42.2726 50.4414C42.0703 50.6415 41.9103 50.8794 41.8018 51.1413C41.6934 51.4031 41.6387 51.6837 41.6409 51.9667V55.1833C41.64 55.4656 41.6962 55.7452 41.8062 56.0056C41.9162 56.2661 42.0777 56.5022 42.2813 56.7C42.6902 57.0975 43.2414 57.3192 43.8148 57.3167Z" fill="#1E1E1E"/>
</g>
<defs>
<clipPath id="clip0_214_539">
<rect width="91" height="90" fill="white"/>
</clipPath>
</defs>
</svg>
