<svg width="90" height="90" viewBox="0 0 90 90" fill="none" xmlns="http://www.w3.org/2000/svg">
<g clip-path="url(#clip0_214_486)">
<path d="M90 87.2167V87.8667C89.9945 88.4354 89.7673 88.9796 89.3667 89.3833C89.1675 89.5817 88.9308 89.7384 88.6704 89.8442C88.41 89.9501 88.1311 90.0031 87.85 90H2.15C1.58089 89.9963 1.03609 89.7688 0.633333 89.3667C0.434476 89.1739 0.276043 88.9435 0.167298 88.6888C0.0585526 88.4341 0.00167812 88.1603 0 87.8833L0 81.4333C0.00435933 80.8645 0.232276 80.3201 0.634538 79.9179C1.0368 79.5156 1.58113 79.2877 2.15 79.2833V45.15H6.43333H15H19.2833L57.85 45H68.1667H77.5333H87.85V79.2833C88.3951 79.282 88.9205 79.4878 89.3196 79.8591C89.7188 80.2304 89.962 80.7395 90 81.2833V87.2167Z" fill="#FE983D"/>
<path d="M50.35 62.15H26.7833C26.2176 62.1545 25.675 62.3751 25.2667 62.7667C24.8706 63.1721 24.6493 63.7166 24.65 64.2833V79.2833C24.6475 79.8504 24.8691 80.3956 25.2667 80.8C25.6776 81.1855 26.2199 81.4001 26.7833 81.4001C27.3468 81.4001 27.8891 81.1855 28.3 80.8C28.7021 80.3972 28.9296 79.8524 28.9333 79.2833V66.4333H36.4333V79.2833C36.4295 79.566 36.4838 79.8465 36.5927 80.1073C36.7017 80.3682 36.863 80.604 37.0667 80.8C37.3681 81.0936 37.7491 81.2923 38.1624 81.3715C38.5757 81.4506 39.0032 81.4067 39.3918 81.2452C39.7804 81.0838 40.1131 80.8118 40.3486 80.4631C40.5841 80.1143 40.7121 79.7041 40.7167 79.2833V66.4333H48.2167V79.2833C48.2209 79.8493 48.4466 80.3912 48.8452 80.793C49.2439 81.1948 49.784 81.4246 50.35 81.4333C50.6327 81.4371 50.9131 81.3829 51.174 81.2739C51.4349 81.165 51.6706 81.0037 51.8667 80.8C52.2688 80.3972 52.4963 79.8524 52.5 79.2833V64.2833C52.5 64.0018 52.4443 63.723 52.336 63.4631C52.2278 63.2031 52.0691 62.9672 51.8693 62.7689C51.6694 62.5706 51.4322 62.4138 51.1715 62.3076C50.9107 62.2014 50.6315 62.1478 50.35 62.15Z" fill="#1E1E1E"/>
<path d="M77.8 15.35C77.7044 15.1272 77.5689 14.9239 77.4 14.75C77.2268 14.5724 77.0161 14.4358 76.7833 14.35C76.5605 14.2416 76.3143 14.19 76.0667 14.2H69.65C69.404 14.2066 69.1613 14.2574 68.9333 14.35C68.602 14.4903 68.3169 14.721 68.1106 15.0158C67.9043 15.3105 67.7851 15.6574 67.7667 16.0167V22.5C67.7666 22.7467 67.8176 22.9907 67.9167 23.2167C68.0078 23.4467 68.1438 23.6563 68.3167 23.8333C68.4925 24.0077 68.7024 24.1438 68.9333 24.2333C69.1581 24.3358 69.4029 24.3871 69.65 24.3833H76.0667C76.3187 24.3834 76.5682 24.3323 76.8 24.2333C77.0194 24.1317 77.2218 23.9967 77.4 23.8333C77.5689 23.6595 77.7044 23.4561 77.8 23.2333C77.899 23.0015 77.95 22.7521 77.95 22.5V16.0667C77.9501 15.82 77.899 15.5759 77.8 15.35ZM74.2 20.6333H71.5167V17.95H74.2V20.6333Z" fill="#1E1E1E"/>
<path d="M77.8 30.35C77.7044 30.1272 77.5689 29.9239 77.4 29.75C77.2268 29.5724 77.0161 29.4358 76.7833 29.35C76.5605 29.2416 76.3143 29.19 76.0667 29.2H69.65C69.1532 29.2086 68.6791 29.4097 68.3278 29.7611C67.9764 30.1124 67.7752 30.5865 67.7667 31.0833V37.5C67.7666 37.7467 67.8176 37.9907 67.9167 38.2167C68.0078 38.4467 68.1438 38.6563 68.3167 38.8333C68.4925 39.0077 68.7024 39.1438 68.9333 39.2333C69.1581 39.3358 69.4029 39.3871 69.65 39.3833H76.0667C76.3187 39.3834 76.5682 39.3323 76.8 39.2333C77.0194 39.1317 77.2218 38.9967 77.4 38.8333C77.5689 38.6595 77.7044 38.4561 77.8 38.2333C77.899 38.0015 77.95 37.7521 77.95 37.5V31.0667C77.9501 30.82 77.899 30.5759 77.8 30.35ZM74.2 35.6333H71.5167V32.95H74.2V35.6333Z" fill="#1E1E1E"/>
<path d="M77.8 45.35C77.7312 45.189 77.6415 45.0377 77.5333 44.9L77.4 44.75C77.2268 44.5724 77.0161 44.4358 76.7833 44.35C76.5631 44.2341 76.3149 44.1821 76.0667 44.2H69.65C69.1526 44.2111 68.6772 44.4072 68.3167 44.75L68.1667 45C68.062 45.131 67.9777 45.2771 67.9167 45.4333C67.8142 45.6582 67.7629 45.9029 67.7667 46.15V52.5C67.7752 52.9968 67.9764 53.4709 68.3278 53.8222C68.6791 54.1736 69.1532 54.3748 69.65 54.3833H76.0667C76.3137 54.3871 76.5585 54.3358 76.7833 54.2333C77.0161 54.1476 77.2268 54.0109 77.4 53.8333C77.5689 53.6595 77.7045 53.4561 77.8 53.2333C77.899 53.0015 77.95 52.7521 77.95 52.5V46.0667C77.9501 45.82 77.899 45.5759 77.8 45.35ZM74.2 50.6333H71.5167V47.95H74.2V50.6333Z" fill="#1E1E1E"/>
<path d="M77.8 60.3667C77.7113 60.1354 77.5749 59.9254 77.3998 59.7502C77.2246 59.5751 77.0146 59.4387 76.7833 59.35C76.5585 59.2475 76.3137 59.1963 76.0667 59.2H69.65C69.3979 59.2 69.1485 59.251 68.9167 59.35C68.6928 59.4434 68.489 59.5793 68.3167 59.75C68.1411 59.9184 68.0046 60.1232 67.9167 60.35C67.8177 60.5818 67.7666 60.8313 67.7667 61.0833V67.5C67.7752 67.9968 67.9764 68.4709 68.3278 68.8222C68.6791 69.1736 69.1532 69.3748 69.65 69.3833H76.0667C76.3137 69.3871 76.5585 69.3358 76.7833 69.2333C77.0161 69.1476 77.2268 69.0109 77.4 68.8333C77.5689 68.6595 77.7044 68.4561 77.8 68.2333C77.899 68.0015 77.95 67.7521 77.95 67.5V61.0833C77.9537 60.8363 77.9025 60.5915 77.8 60.3667ZM74.2 65.6333H71.5167V62.95H74.2V65.6333Z" fill="#1E1E1E"/>
<path d="M90 81.2833C89.9622 80.7424 89.7213 80.2357 89.3257 79.8648C88.9301 79.4939 88.4089 79.2862 87.8667 79.2833V2.15C87.8697 1.86891 87.8168 1.59003 87.7109 1.32963C87.605 1.06923 87.4483 0.832525 87.25 0.633335C87.0485 0.432219 86.8094 0.272771 86.5463 0.1641C86.2832 0.05543 86.0013 -0.000331805 85.7167 1.48527e-06H40.7167C40.1476 0.00372483 39.6028 0.231223 39.2 0.633335C38.9994 0.831703 38.8401 1.06789 38.7314 1.32823C38.6227 1.58856 38.5667 1.86788 38.5667 2.15V9.58333L17.6667 4.35C17.3479 4.28349 17.0188 4.28349 16.7 4.35C16.3828 4.41999 16.0861 4.56261 15.8333 4.76667C15.5678 4.96067 15.3557 5.21867 15.2167 5.51667C15.0806 5.80351 15.0067 6.11592 15 6.43333V27.8667H4.28333C3.71623 27.8642 3.17111 28.0858 2.76667 28.4833C2.37066 28.8888 2.14928 29.4333 2.15 30V79.2833C1.58113 79.2877 1.0368 79.5156 0.634538 79.9179C0.232276 80.3201 0.00435933 80.8645 0 81.4333L0 87.8833C0.00167812 88.1603 0.0585526 88.4341 0.167298 88.6888C0.276043 88.9435 0.434476 89.1739 0.633333 89.3667C1.03609 89.7688 1.58089 89.9963 2.15 90H87.85C88.1311 90.0031 88.41 89.9501 88.6704 89.8443C88.9308 89.7384 89.1675 89.5817 89.3667 89.3833C89.7673 88.9796 89.9945 88.4354 90 87.8667V81.4333C90.0081 81.3837 90.0081 81.333 90 81.2833ZM42.85 4.28334H83.5667V79.2833H62.15V17.15C62.1416 16.6674 61.9734 16.2011 61.6719 15.8242C61.3703 15.4472 60.9524 15.1808 60.4833 15.0667L42.85 10.65V4.28334ZM6.43333 32.15H15V79.2833H6.43333V32.15ZM85.7167 85.7167H4.28333V83.5833H17.15C17.7188 83.5778 18.2629 83.3506 18.6667 82.95C19.0642 82.5456 19.2858 82.0004 19.2833 81.4333V9.18334L57.85 18.8167V81.4333C57.8544 82.0022 58.0823 82.5465 58.4845 82.9488C58.8868 83.3511 59.4311 83.579 60 83.5833H85.7167V85.7167Z" fill="#1E1E1E"/>
<path d="M30.5333 31.6667C31.1022 31.6623 31.6465 31.4344 32.0488 31.0321C32.4511 30.6299 32.679 30.0855 32.6833 29.5167V28.3333H33.75C34.3191 28.3296 34.8639 28.1021 35.2667 27.7C35.4673 27.5016 35.6266 27.2654 35.7353 27.0051C35.844 26.7448 35.9 26.4655 35.9 26.1833C35.8945 25.6146 35.6673 25.0704 35.2667 24.6667C34.8622 24.2691 34.3171 24.0475 33.75 24.05H30.5333C29.9662 24.0475 29.4211 24.2691 29.0167 24.6667C28.6207 25.0721 28.3993 25.6166 28.4 26.1833V29.4C28.3818 29.6912 28.4235 29.983 28.5225 30.2574C28.6215 30.5318 28.7757 30.783 28.9757 30.9954C29.1756 31.2079 29.417 31.3771 29.6849 31.4925C29.9529 31.608 30.2416 31.6672 30.5333 31.6667Z" fill="#1E1E1E"/>
<path d="M43.3333 31.6667C43.9024 31.6629 44.4472 31.4354 44.85 31.0333C45.2416 30.625 45.4622 30.0824 45.4667 29.5167V28.3333H46.6667C46.9488 28.3333 47.2281 28.2773 47.4884 28.1686C47.7488 28.0599 47.985 27.9006 48.1833 27.7C48.387 27.504 48.5483 27.2682 48.6573 27.0073C48.7662 26.7465 48.8204 26.466 48.8167 26.1833C48.7993 25.6263 48.5646 25.0981 48.1628 24.7119C47.761 24.3257 47.224 24.112 46.6667 24.1167H43.3333C42.7662 24.1142 42.2211 24.3358 41.8167 24.7333C41.6153 24.9311 41.4555 25.1672 41.3468 25.4277C41.238 25.6881 41.1824 25.9677 41.1833 26.25V29.4667C41.1789 29.7526 41.2312 30.0366 41.337 30.3022C41.4429 30.5678 41.6003 30.8099 41.8002 31.0144C42 31.2189 42.2384 31.3819 42.5015 31.4938C42.7647 31.6058 43.0474 31.6645 43.3333 31.6667Z" fill="#1E1E1E"/>
<path d="M30.5333 44.4667C31.1024 44.4629 31.6472 44.2354 32.05 43.8333C32.2506 43.635 32.4099 43.3988 32.5186 43.1384C32.6273 42.8781 32.6833 42.5988 32.6833 42.3167V41.25H33.75C34.3157 41.2455 34.8583 41.0249 35.2667 40.6333C35.6673 40.2296 35.8945 39.6854 35.9 39.1167C35.9 38.8345 35.844 38.5552 35.7353 38.2949C35.6265 38.0346 35.4673 37.7984 35.2667 37.6C34.8639 37.1979 34.3191 36.9704 33.75 36.9667H30.5333C29.9642 36.9704 29.4194 37.1979 29.0167 37.6C28.8183 37.7992 28.6616 38.0359 28.5558 38.2963C28.4499 38.5567 28.3969 38.8356 28.4 39.1167V42.3167C28.3969 42.5978 28.4499 42.8766 28.5558 43.137C28.6616 43.3974 28.8183 43.6341 29.0167 43.8333C29.4194 44.2354 29.9642 44.4629 30.5333 44.4667Z" fill="#1E1E1E"/>
<path d="M43.3333 44.4667C43.6129 44.4663 43.8896 44.41 44.1472 44.3013C44.4048 44.1925 44.638 44.0334 44.8333 43.8333C45.0339 43.635 45.1932 43.3988 45.3019 43.1384C45.4106 42.8781 45.4666 42.5988 45.4667 42.3167V41.25H46.6667C46.9482 41.2522 47.2274 41.1986 47.4882 41.0924C47.7489 40.9862 47.9861 40.8294 48.1859 40.6311C48.3858 40.4328 48.5444 40.1968 48.6527 39.9369C48.7609 39.677 48.8167 39.3982 48.8167 39.1167C48.8123 38.5478 48.5844 38.0035 48.1821 37.6012C47.7799 37.1989 47.2355 36.971 46.6667 36.9667H43.3333C42.7642 36.9704 42.2194 37.1979 41.8167 37.6C41.613 37.796 41.4517 38.0318 41.3427 38.2927C41.2338 38.5535 41.1795 38.834 41.1833 39.1167V42.3167C41.1877 42.8855 41.4156 43.4299 41.8179 43.8321C42.2201 44.2344 42.7645 44.4623 43.3333 44.4667Z" fill="#1E1E1E"/>
<path d="M30.5333 57.3333C31.1022 57.329 31.6465 57.1011 32.0488 56.6988C32.4511 56.2965 32.679 55.7522 32.6833 55.1833V54.1167H33.75C34.0471 54.1429 34.3465 54.107 34.629 54.0113C34.9115 53.9156 35.171 53.7622 35.391 53.5607C35.611 53.3593 35.7867 53.1143 35.9069 52.8413C36.027 52.5683 36.0891 52.2733 36.0891 51.975C36.0891 51.6767 36.027 51.3817 35.9069 51.1087C35.7867 50.8357 35.611 50.5907 35.391 50.3893C35.171 50.1878 34.9115 50.0344 34.629 49.9387C34.3465 49.843 34.0471 49.8071 33.75 49.8333H30.5333C29.9666 49.8326 29.4221 50.054 29.0167 50.45C28.6191 50.8544 28.3975 51.3996 28.4 51.9667V55.1833C28.3978 55.4649 28.4514 55.7441 28.5576 56.0048C28.6638 56.2656 28.8206 56.5027 29.0189 56.7026C29.2172 56.9025 29.4532 57.0611 29.7131 57.1694C29.973 57.2776 30.2518 57.3333 30.5333 57.3333Z" fill="#1E1E1E"/>
<path d="M43.3333 57.3333C43.6149 57.3333 43.8937 57.2776 44.1536 57.1694C44.4135 57.0611 44.6494 56.9025 44.8478 56.7026C45.0461 56.5027 45.2029 56.2656 45.3091 56.0048C45.4153 55.7441 45.4689 55.4649 45.4667 55.1833V54.1167H46.6667C46.9488 54.1166 47.2281 54.0606 47.4884 53.9519C47.7488 53.8432 47.985 53.6839 48.1833 53.4833C48.3862 53.2867 48.547 53.0508 48.6559 52.7901C48.7648 52.5294 48.8195 52.2492 48.8167 51.9667C48.8129 51.3976 48.5854 50.8528 48.1833 50.45C47.9841 50.2517 47.7474 50.095 47.487 49.9891C47.2266 49.8832 46.9478 49.8303 46.6667 49.8333H43.3333C43.0522 49.8303 42.7734 49.8832 42.513 49.9891C42.2526 50.095 42.0159 50.2517 41.8167 50.45C41.4146 50.8528 41.1871 51.3976 41.1833 51.9667V55.1833C41.1824 55.4656 41.238 55.7452 41.3468 56.0056C41.4555 56.2661 41.6153 56.5022 41.8167 56.7C42.2194 57.1021 42.7642 57.3296 43.3333 57.3333Z" fill="#1E1E1E"/>
</g>
<defs>
<clipPath id="clip0_214_486">
<rect width="90" height="90" fill="white"/>
</clipPath>
</defs>
</svg>
