<svg width="27" height="26" viewBox="0 0 27 26" fill="none" xmlns="http://www.w3.org/2000/svg">
<g clip-path="url(#clip0_35_688)">
<path d="M13.6415 25.4014C20.7321 25.4014 26.4802 19.7151 26.4802 12.7007C26.4802 5.68629 20.7321 0 13.6415 0C6.55083 0 0.802734 5.68629 0.802734 12.7007C0.802734 19.7151 6.55083 25.4014 13.6415 25.4014Z" fill="url(#paint0_linear_35_688)"/>
<path d="M16.3691 5.64474H10.9198C8.48896 5.64474 6.51465 7.59783 6.51465 10.0025V15.3932C6.51465 17.7979 8.48896 19.751 10.9198 19.751H16.3691C18.7999 19.751 20.7742 17.7979 20.7742 15.3932V10.0025C20.7742 7.59783 18.7999 5.64474 16.3691 5.64474ZM19.1822 15.3989C19.1822 16.9342 17.9212 18.1874 16.3634 18.1874H10.9141C9.36199 18.1874 8.09524 16.9399 8.09524 15.3989V10.0081C8.09524 8.47276 9.35629 7.21963 10.9141 7.21963H16.3634C17.9154 7.21963 19.1822 8.46712 19.1822 10.0081V15.3989Z" fill="white"/>
<path d="M13.6418 9.09369C11.6333 9.09369 9.99561 10.7137 9.99561 12.7007C9.99561 14.6876 11.6333 16.3077 13.6418 16.3077C15.6504 16.3077 17.288 14.6876 17.288 12.7007C17.288 10.7137 15.6504 9.09369 13.6418 9.09369ZM13.6418 14.8908C12.4207 14.8908 11.4278 13.9087 11.4278 12.7007C11.4278 11.4927 12.4207 10.5105 13.6418 10.5105C14.8629 10.5105 15.8558 11.4927 15.8558 12.7007C15.8558 13.9087 14.8629 14.8908 13.6418 14.8908Z" fill="white"/>
<path d="M17.5657 9.48911C17.9016 9.43524 18.1298 9.12218 18.0754 8.78986C18.0209 8.45755 17.7044 8.23183 17.3685 8.2857C17.0326 8.33957 16.8044 8.65263 16.8589 8.98495C16.9133 9.31726 17.2298 9.54298 17.5657 9.48911Z" fill="white"/>
</g>
<defs>
<linearGradient id="paint0_linear_35_688" x1="3.86571" y1="22.3713" x2="21.9137" y2="4.12712" gradientUnits="userSpaceOnUse">
<stop stop-color="#FEE411"/>
<stop offset="0.0518459" stop-color="#FEDB16"/>
<stop offset="0.1381" stop-color="#FEC125"/>
<stop offset="0.2481" stop-color="#FE983D"/>
<stop offset="0.3762" stop-color="#FE5F5E"/>
<stop offset="0.5" stop-color="#FE2181"/>
<stop offset="1" stop-color="#9000DC"/>
</linearGradient>
<clipPath id="clip0_35_688">
<rect width="25.6775" height="25.4014" fill="white" transform="translate(0.802734)"/>
</clipPath>
</defs>
</svg>
