<svg width="27" height="28" viewBox="0 0 27 28" fill="none" xmlns="http://www.w3.org/2000/svg">
<path fill-rule="evenodd" clip-rule="evenodd" d="M7.20999 19.7003H16.6037C17.1662 19.7003 17.6787 19.4683 18.0517 19.0954C18.4246 18.7225 18.6565 18.21 18.6565 17.6475C18.6565 17.085 18.4246 16.5724 18.0517 16.1995C17.6787 15.8266 17.1662 15.5946 16.6037 15.5946H9.82905C8.11918 15.5946 6.56645 14.8962 5.4415 13.7725C4.31655 12.6476 3.61938 11.0948 3.61938 9.38497C3.61938 7.67509 4.3178 6.12237 5.4415 4.99742C6.56645 3.87247 8.11918 3.1753 9.82905 3.1753H19.2227C19.2053 3.32122 19.1953 3.46963 19.1953 3.62054C19.1953 4.73052 19.6954 6.01261 20.4824 7.33337H9.82905C9.26658 7.33337 8.75399 7.56534 8.38109 7.93825C8.00818 8.31115 7.77621 8.82374 7.77621 9.38621C7.77621 9.94869 8.00818 10.4613 8.38109 10.8342C8.75399 11.2071 9.26658 11.4391 9.82905 11.4391H16.6037C18.3136 11.4391 19.8663 12.1375 20.9912 13.2624C22.1162 14.3874 22.8134 15.9401 22.8134 17.65C22.8134 19.3598 22.1149 20.9126 20.9912 22.0375C19.8663 23.1625 18.3136 23.8596 16.6037 23.8596H5.9491C6.73607 22.5389 7.23618 21.258 7.23618 20.1468C7.23743 19.9947 7.22745 19.8462 7.20999 19.7003Z" fill="#BDB9B9" fill-opacity="0.5"/>
<path fill-rule="evenodd" clip-rule="evenodd" d="M3.61804 16.5263C5.61601 16.5263 7.23609 18.1463 7.23609 20.1443C7.23609 22.1423 5.61601 24.6965 3.61804 27.0299C1.62008 24.6965 0 22.1423 0 20.1443C0 18.1463 1.62008 16.5263 3.61804 16.5263Z" fill="#FE5857"/>
<path fill-rule="evenodd" clip-rule="evenodd" d="M22.8134 0C24.8113 0 26.4314 1.62008 26.4314 3.61805C26.4314 5.61601 24.8113 8.17022 22.8134 10.5037C20.8154 8.17022 19.1953 5.61601 19.1953 3.61805C19.1953 1.62008 20.8154 0 22.8134 0Z" fill="#FD983D"/>
<path fill-rule="evenodd" clip-rule="evenodd" d="M3.6192 21.621C4.43236 21.621 5.09461 20.9575 5.09461 20.1456C5.09461 19.3324 4.43111 18.6702 3.6192 18.6702C2.8073 18.6702 2.1438 19.3337 2.1438 20.1456C2.14255 20.9575 2.80605 21.621 3.6192 21.621Z" fill="white"/>
<path fill-rule="evenodd" clip-rule="evenodd" d="M22.8133 5.0947C23.6265 5.0947 24.2887 4.4312 24.2887 3.61929C24.2887 2.80739 23.6252 2.14389 22.8133 2.14389C22.0014 2.14389 21.3379 2.80739 21.3379 3.61929C21.3379 4.4312 22.0014 5.0947 22.8133 5.0947Z" fill="white"/>
</svg>
