<svg width="36" height="36" viewBox="0 0 36 36" fill="none" xmlns="http://www.w3.org/2000/svg">
<path d="M30 3H29.25L0 32.25V33C0 34.6545 1.34546 36 3 36H3.98914L33 6.60663V6C33 4.34546 31.6545 3 30 3Z" fill="#FDDC49"/>
<path d="M3 3C1.34546 3 0 4.34546 0 6V32.25L29.25 3H3Z" fill="#56A959"/>
<path d="M3.98926 36.0002H29.2501L16.537 23.2871L3.98926 36.0002Z" fill="#5796FF"/>
<path d="M20.2622 19.5121L32.9999 32.2498V6.60645L20.2622 19.5121Z" fill="#CCCCCC"/>
<path d="M16.5369 23.2863L29.25 35.9995H30C31.6545 35.9995 33 34.654 33 32.9995V32.2495L20.2622 19.5117L16.5369 23.2863Z" fill="#F2F2F2"/>
<path opacity="0.2" d="M30 3H3C1.34546 3 0 4.34546 0 6V6.375C0 4.72046 1.34546 3.375 3 3.375H30C31.6545 3.375 33 4.72046 33 6.375V6C33 4.34546 31.6545 3 30 3Z" fill="white"/>
<path opacity="0.1" d="M30 35.625H3C1.34546 35.625 0 34.2795 0 32.625V33C0 34.6545 1.34546 36 3 36H30C31.6545 36 33 34.6545 33 33V32.625C33 34.2795 31.6545 35.625 30 35.625Z" fill="black"/>
<path d="M27 0C22.0371 0 18 4.03711 18 9C18 9.35083 18.0242 9.69507 18.0623 10.0225C18.375 13.2209 20.0852 15.8555 21.8965 18.6438C23.677 21.3853 25.5176 24.2197 26.2654 27.8994C26.3357 28.2488 26.6433 28.5 27 28.5C27.3567 28.5 27.6643 28.2488 27.7346 27.8994C28.4824 24.2197 30.323 21.3853 32.1035 18.6438C33.9148 15.8555 35.625 13.2209 35.9363 10.0349C35.9758 9.69507 36 9.35083 36 9C36 4.03711 31.9629 0 27 0Z" fill="#E53935"/>
<path opacity="0.2" d="M27.0001 0.375C31.0041 0.375 34.412 2.94566 35.656 6.5315C34.5842 2.75916 31.1114 0 27.0001 0C22.8887 0 19.4187 2.74945 18.3469 6.52179C19.5909 2.93594 22.996 0.375 27.0001 0.375Z" fill="white"/>
<path opacity="0.1" d="M35.9363 9.65967C35.625 12.8457 33.9148 15.4802 32.1035 18.2686C30.323 21.01 28.4824 23.8445 27.7346 27.5242C27.6643 27.8735 27.3567 28.1248 27 28.1248C26.6433 28.1248 26.3357 27.8735 26.2654 27.5242C25.5176 23.8445 23.677 21.01 21.8965 18.2686C20.0852 15.4802 18.375 12.8457 18.0623 9.64722C18.0305 9.3743 18.0168 9.08536 18.0103 8.79495C18.0088 8.86371 18 8.93063 18 8.99976C18 9.35059 18.0242 9.69482 18.0623 10.0222C18.375 13.2207 20.0852 15.8552 21.8965 18.6436C23.677 21.385 25.5176 24.2195 26.2654 27.8992C26.3357 28.2485 26.6433 28.4998 27 28.4998C27.3567 28.4998 27.6643 28.2485 27.7346 27.8992C28.4824 24.2195 30.323 21.385 32.1035 18.6436C33.9148 15.8552 35.625 13.2207 35.9363 10.0347C35.9758 9.69482 36 9.35059 36 8.99976C36 8.93027 35.9911 8.86307 35.9896 8.79395C35.9832 9.08563 35.9693 9.3754 35.9363 9.65967Z" fill="black"/>
<path d="M27 12C28.6569 12 30 10.6569 30 9C30 7.34315 28.6569 6 27 6C25.3431 6 24 7.34315 24 9C24 10.6569 25.3431 12 27 12Z" fill="#B71C1C"/>
<path opacity="0.1" d="M27 12C28.6569 12 30 10.6569 30 9C30 7.34315 28.6569 6 27 6C25.3431 6 24 7.34315 24 9C24 10.6569 25.3431 12 27 12Z" fill="black"/>
<path d="M8.25 15.75C5.76855 15.75 3.75 13.7314 3.75 11.25C3.75 8.76855 5.76855 6.75 8.25 6.75C9.23364 6.75 10.1682 7.06201 10.9534 7.65161L10.0525 8.85132C9.52881 8.45801 8.90552 8.25 8.25 8.25C6.59546 8.25 5.25 9.59546 5.25 11.25C5.25 12.9045 6.59546 14.25 8.25 14.25C9.64526 14.25 10.8215 13.2927 11.1548 12H9V10.5H12.75V11.25C12.75 13.7314 10.7314 15.75 8.25 15.75Z" fill="#F2F2F2"/>
<path d="M36 9C36 4.03711 31.9629 0 27 0C24.3434 0 21.9595 1.16364 20.3107 3H3C1.34546 3 0 4.34546 0 6V33C0 34.6545 1.34546 36 3 36H30C31.6545 36 33 34.6545 33 33V17.2455C34.4474 14.953 35.6774 12.6845 35.9363 10.0349C35.9758 9.69507 36 9.35083 36 9Z" fill="url(#paint0_linear_164_2436)"/>
<defs>
<linearGradient id="paint0_linear_164_2436" x1="-2.0535" y1="9.738" x2="35.904" y2="27.438" gradientUnits="userSpaceOnUse">
<stop stop-color="white" stop-opacity="0.2"/>
<stop offset="1" stop-color="white" stop-opacity="0"/>
</linearGradient>
</defs>
</svg>
