<svg width="144" height="144" viewBox="0 0 144 144" fill="none" xmlns="http://www.w3.org/2000/svg">
<path d="M72.12 17.4601C52.26 17.4601 36.12 33.6001 36.12 53.4601V70.8001C36.12 74.4601 34.56 80.0401 32.7 83.1601L25.8 94.6201C21.54 101.7 24.48 109.56 32.28 112.2C58.14 120.84 86.04 120.84 111.9 112.2C119.16 109.8 122.34 101.22 118.38 94.6201L111.48 83.1601C109.68 80.0401 108.12 74.4601 108.12 70.8001V53.4601C108.12 33.6601 91.92 17.4601 72.12 17.4601Z" stroke="#1E1E1E" stroke-width="8" stroke-miterlimit="10" stroke-linecap="round"/>
<path d="M83.22 19.1999C81.36 18.6599 79.44 18.2399 77.46 17.9999C71.7 17.2799 66.18 17.6999 61.02 19.1999C62.76 14.7599 67.08 11.6399 72.12 11.6399C77.16 11.6399 81.48 14.7599 83.22 19.1999Z" stroke="#1E1E1E" stroke-width="8" stroke-miterlimit="10" stroke-linecap="round" stroke-linejoin="round"/>
<path d="M90.12 114.36C90.12 124.26 82.02 132.36 72.12 132.36C67.2 132.36 62.64 130.32 59.4 127.08C56.16 123.84 54.12 119.28 54.12 114.36" stroke="#1E1E1E" stroke-width="8" stroke-miterlimit="10"/>
<circle cx="103.2" cy="31.2" r="19.6" fill="#FE983D"/>
</svg>
