<svg width="34" height="28" viewBox="0 0 34 28" fill="none" xmlns="http://www.w3.org/2000/svg">
<path d="M28.4847 14.6298H25.2179C24.7733 14.6298 24.3428 14.6905 23.9331 14.8022C23.125 13.2136 21.4751 12.1221 19.5739 12.1221H13.7994C11.8982 12.1221 10.2484 13.2136 9.44022 14.8022C9.03055 14.6905 8.60009 14.6298 8.15548 14.6298H4.88867C2.19306 14.6298 0 16.8228 0 19.5184V24.7407C0 26.3581 1.31584 27.6739 2.9332 27.6739H30.4401C32.0575 27.6739 33.3733 26.3581 33.3733 24.7407V19.5184C33.3733 16.8228 31.1803 14.6298 28.4847 14.6298ZM8.91075 17.0109V25.7185H2.9332C2.39408 25.7185 1.95547 25.2799 1.95547 24.7408V19.5185C1.95547 17.9011 3.2713 16.5853 4.88867 16.5853H8.15548C8.4209 16.5853 8.67792 16.6213 8.92261 16.6878C8.91557 16.7947 8.91075 16.9023 8.91075 17.0109ZM22.5071 25.7185H10.8662V17.0108C10.8662 15.3934 12.1821 14.0776 13.7994 14.0776H19.5739C21.1913 14.0776 22.5071 15.3934 22.5071 17.0108V25.7185ZM31.4179 24.7408C31.4179 25.2799 30.9793 25.7185 30.4401 25.7185H24.4626V17.0108C24.4626 16.9022 24.4578 16.7946 24.4507 16.6877C24.6954 16.6213 24.9524 16.5852 25.2179 16.5852H28.4847C30.102 16.5852 31.4179 17.9011 31.4179 19.5184V24.7408Z" fill="#1E1E1E" fill-opacity="0.2"/>
<path d="M6.52285 5.39551C4.12747 5.39551 2.17871 7.34426 2.17871 9.73965C2.17865 12.135 4.12747 14.0838 6.52285 14.0838C8.91817 14.0838 10.867 12.135 10.867 9.73965C10.867 7.34426 8.91824 5.39551 6.52285 5.39551ZM6.52279 12.1283C5.20565 12.1283 4.13412 11.0568 4.13412 9.73965C4.13412 8.42251 5.20565 7.35098 6.52279 7.35098C7.83993 7.35098 8.91146 8.42251 8.91146 9.73965C8.91146 11.0568 7.83993 12.1283 6.52279 12.1283Z" fill="#1E1E1E" fill-opacity="0.2"/>
<path d="M16.6865 0C13.4863 0 10.8828 2.60351 10.8828 5.8037C10.8828 9.00389 13.4863 11.6074 16.6865 11.6074C19.8867 11.6074 22.4902 9.00389 22.4902 5.8037C22.4902 2.60358 19.8867 0 16.6865 0ZM16.6865 9.65194C14.5646 9.65194 12.8383 7.92565 12.8383 5.8037C12.8383 3.68182 14.5646 1.95547 16.6865 1.95547C18.8085 1.95547 20.5347 3.68176 20.5347 5.8037C20.5347 7.92565 18.8085 9.65194 16.6865 9.65194Z" fill="#1E1E1E" fill-opacity="0.2"/>
<path d="M26.8539 5.39648C24.4586 5.39648 22.5098 7.34524 22.5098 9.74062C22.5098 12.136 24.4586 14.0848 26.8539 14.0848C29.2493 14.0848 31.198 12.136 31.198 9.74062C31.198 7.34524 29.2493 5.39648 26.8539 5.39648ZM26.8539 12.1293C25.5368 12.1293 24.4652 11.0578 24.4652 9.74062C24.4653 8.42349 25.5368 7.35195 26.8539 7.35195C28.171 7.35195 29.2426 8.42349 29.2426 9.74062C29.2426 11.0578 28.171 12.1293 26.8539 12.1293Z" fill="#1E1E1E" fill-opacity="0.2"/>
</svg>
