<svg width="22" height="22" viewBox="0 0 22 22" fill="none" xmlns="http://www.w3.org/2000/svg">
<path d="M2.79602 15.5695L2.79617 15.5696L3.25318 15.8225L2.34039 16.9702L0.56503 15.1948L1.11965 14.6405L2.79602 15.5695Z" stroke="#1E1E1E" stroke-width="0.5"/>
<path d="M6.93011 20.451L6.37537 21.0058L4.97636 19.6063L4.97633 19.6063L4.60044 19.2304L5.74834 18.3174L6.00155 18.7742L6.00161 18.7743L6.93011 20.451Z" stroke="#1E1E1E" stroke-width="0.5"/>
<path d="M3.34659 3.34295L3.34663 3.34301L8.04409 9.13255L8.04409 9.13256L10.0124 11.5583L12.4387 13.5271L18.2272 18.2241C18.492 18.4389 18.8122 18.5744 19.1509 18.6147C19.4895 18.655 19.8326 18.5986 20.1404 18.4519C20.4483 18.3052 20.7082 18.0743 20.8902 17.7859C21.0722 17.4976 21.1688 17.1635 21.1687 16.8225L3.34659 3.34295ZM3.34659 3.34295C3.06535 2.99654 2.92246 2.5582 2.94553 2.1126C2.9686 1.667 3.15599 1.24575 3.4715 0.930242C3.78701 0.614731 4.20825 0.427341 4.65386 0.40427C5.09946 0.3812 5.5378 0.524086 5.88421 0.805326L5.88425 0.805363M3.34659 3.34295L5.88425 0.805363M5.88425 0.805363L11.4554 5.32629L11.4554 5.3263M5.88425 0.805363L11.4554 5.3263M11.4554 5.3263L14.0981 7.47063L16.2424 10.1138L16.2424 10.1138M11.4554 5.3263L16.2424 10.1138M16.2424 10.1138L20.7643 15.686L20.7646 15.6862M16.2424 10.1138L20.7646 15.6862M20.7646 15.6862C21.0259 16.0073 21.1686 16.4086 21.1687 16.8225L20.7646 15.6862Z" stroke="#1E1E1E" stroke-width="0.5"/>
<g style="mix-blend-mode:multiply">
<path d="M2.34175 16.968L2.12346 16.7507L2.23201 16.6129C2.23203 16.6128 2.23204 16.6128 2.23206 16.6128C2.40673 16.3911 2.65036 16.0858 2.94705 15.7141C2.95832 15.6999 2.96967 15.6857 2.9811 15.6714L3.2544 15.8223L2.34175 16.968Z" fill="url(#paint0_linear_88_133)" style="mix-blend-mode:multiply"/>
<path d="M2.34175 16.968L2.12346 16.7507L2.23201 16.6129C2.23203 16.6128 2.23204 16.6128 2.23206 16.6128C2.40673 16.3911 2.65036 16.0858 2.94705 15.7141C2.95832 15.6999 2.96967 15.6857 2.9811 15.6714L3.2544 15.8223L2.34175 16.968Z" stroke="#1E1E1E" stroke-width="0.5"/>
</g>
<g style="mix-blend-mode:multiply">
<path d="M4.82128 19.4489L4.60288 19.2303L5.7492 18.3172L5.90139 18.5902C5.42615 18.9689 5.05213 19.2661 4.82128 19.4489Z" fill="url(#paint1_linear_88_133)" style="mix-blend-mode:multiply"/>
<path d="M4.82128 19.4489L4.60288 19.2303L5.7492 18.3172L5.90139 18.5902C5.42615 18.9689 5.05213 19.2661 4.82128 19.4489Z" stroke="#1E1E1E" stroke-width="0.5"/>
</g>
<g style="mix-blend-mode:multiply">
<path d="M16.1115 9.95038C15.9908 10.086 15.8633 10.2214 15.7291 10.3556C15.0444 11.0403 13.7537 12.1614 12.2786 13.397L10.0123 11.558L8.17373 9.29211C9.58004 7.61185 10.5978 6.45798 11.2151 5.84069C11.3495 5.70653 11.4845 5.5791 11.62 5.45838L14.0995 7.47029L16.1115 9.95038Z" stroke="#1E1E1E" stroke-width="0.5"/>
</g>
<path d="M14.1835 7.06152C14.1804 7.06664 14.1769 7.07264 14.1734 7.07933L14.1731 7.07909C14.1767 7.07237 14.1803 7.0665 14.1835 7.06152ZM14.1998 7.35698L14.2027 7.36052L14.2092 7.36853L14.2093 7.36873L14.2191 7.37691C14.2221 7.37947 14.2231 7.38033 14.2229 7.38017L14.2203 7.37779C14.219 7.3766 14.2158 7.37355 14.2117 7.36928C14.2113 7.36887 14.2108 7.36833 14.2102 7.36769C14.2085 7.36591 14.2061 7.36327 14.2032 7.35987C14.2023 7.35883 14.2013 7.35771 14.2003 7.35653L14.1998 7.35698Z" fill="#5E6175" stroke="#1E1E1E" stroke-width="0.5"/>
<path d="M3.03716 18.5337L2.86039 18.7105L3.03716 18.5337C2.88538 18.3819 2.76858 18.1988 2.69493 17.9972C2.62959 17.8183 2.59961 17.6286 2.60641 17.4387L2.63699 17.4001L2.86316 17.1148C3.05913 16.8679 3.3416 16.5127 3.68757 16.0794C4.37954 15.2127 5.32536 14.034 6.3409 12.7856C8.37636 10.2834 10.6789 7.51745 11.7853 6.41108C12.8718 5.32455 14.0256 4.73343 14.9068 4.41395C15.3473 4.25421 15.7191 4.16262 15.9791 4.11113C16.1016 4.08685 16.1991 4.07151 16.2672 4.06215L16.8881 4.68263L16.8882 4.68276L17.5086 5.30362C17.4992 5.37165 17.4839 5.46916 17.4595 5.59162C17.4079 5.85155 17.3162 6.22329 17.1563 6.66384C16.8366 7.54498 16.2453 8.69883 15.1592 9.78564C14.0534 10.8922 11.2876 13.1947 8.78536 15.2301C7.53696 16.2457 6.35823 17.1914 5.49157 17.8834C5.05825 18.2293 4.70298 18.5118 4.45607 18.7077L4.17077 18.9339L4.13213 18.9644C3.94224 18.9712 3.75259 18.9413 3.57369 18.8759C3.37206 18.8023 3.18895 18.6855 3.03716 18.5337Z" stroke="#1E1E1E" stroke-width="0.5"/>
<path d="M17.7938 4.83585L17.7711 4.85854L16.712 3.79936L16.7346 3.77667L16.7346 3.77667L16.7349 3.77639C16.8044 3.70673 16.8868 3.65147 16.9777 3.61376C17.0685 3.57605 17.1659 3.55664 17.2642 3.55664C17.3626 3.55664 17.46 3.57605 17.5508 3.61376C17.6416 3.65147 17.7241 3.70673 17.7935 3.77639L17.7935 3.77639L17.7941 3.77696C17.8638 3.84639 17.919 3.92888 17.9567 4.01971C17.9944 4.11054 18.0138 4.20791 18.0138 4.30626C18.0138 4.40461 17.9944 4.50198 17.9567 4.59281C17.919 4.68364 17.8638 4.76613 17.7941 4.83556L17.7938 4.83585Z" stroke="#1E1E1E" stroke-width="0.5"/>
<mask id="path-10-inside-1_88_133" fill="white">
<path d="M17.7709 5.42397L16.1467 3.79981L16.4539 3.49263C16.5606 3.38598 16.6872 3.30139 16.8265 3.24367C16.9658 3.18596 17.1152 3.15625 17.266 3.15625C17.4168 3.15625 17.5661 3.18596 17.7055 3.24367C17.8448 3.30139 17.9714 3.38598 18.0781 3.49263C18.1847 3.59927 18.2693 3.72587 18.327 3.86521C18.3847 4.00455 18.4144 4.15389 18.4144 4.30471C18.4144 4.45553 18.3847 4.60487 18.327 4.7442C18.2693 4.88354 18.1847 5.01015 18.0781 5.11679L17.7709 5.42397ZM16.5696 3.79981L17.7709 5.0011L17.8666 4.90535C18.0259 4.74605 18.1154 4.52999 18.1154 4.30471C18.1154 4.07942 18.0259 3.86336 17.8666 3.70406C17.7073 3.54476 17.4913 3.45527 17.266 3.45527C17.0407 3.45527 16.8246 3.54476 16.6653 3.70406L16.5696 3.79981Z"/>
</mask>
<path d="M17.7709 5.42397L16.1467 3.79981L16.4539 3.49263C16.5606 3.38598 16.6872 3.30139 16.8265 3.24367C16.9658 3.18596 17.1152 3.15625 17.266 3.15625C17.4168 3.15625 17.5661 3.18596 17.7055 3.24367C17.8448 3.30139 17.9714 3.38598 18.0781 3.49263C18.1847 3.59927 18.2693 3.72587 18.327 3.86521C18.3847 4.00455 18.4144 4.15389 18.4144 4.30471C18.4144 4.45553 18.3847 4.60487 18.327 4.7442C18.2693 4.88354 18.1847 5.01015 18.0781 5.11679L17.7709 5.42397ZM16.5696 3.79981L17.7709 5.0011L17.8666 4.90535C18.0259 4.74605 18.1154 4.52999 18.1154 4.30471C18.1154 4.07942 18.0259 3.86336 17.8666 3.70406C17.7073 3.54476 17.4913 3.45527 17.266 3.45527C17.0407 3.45527 16.8246 3.54476 16.6653 3.70406L16.5696 3.79981Z" fill="#5E6175"/>
<path d="M17.7709 5.42397L17.4173 5.77752L17.7709 6.13108L18.1244 5.77752L17.7709 5.42397ZM16.1467 3.79981L15.7932 3.44625L15.4396 3.79981L15.7932 4.15336L16.1467 3.79981ZM16.4539 3.49263L16.1004 3.13907L16.1004 3.13907L16.4539 3.49263ZM17.266 3.15625V2.65625V3.15625ZM16.5696 3.79981L16.216 3.44625L15.8625 3.7998L16.216 4.15336L16.5696 3.79981ZM17.7709 5.0011L17.4173 5.35465L17.7709 5.7082L18.1244 5.35465L17.7709 5.0011ZM17.8666 4.90535L18.2202 5.25891L18.2202 5.25891L17.8666 4.90535ZM18.1154 4.30471H18.6154H18.1154ZM16.6653 3.70406L17.0189 4.05762L17.0189 4.05761L16.6653 3.70406ZM18.1244 5.07042L16.5003 3.44625L15.7932 4.15336L17.4173 5.77752L18.1244 5.07042ZM16.5003 4.15336L16.8075 3.84618L16.1004 3.13907L15.7932 3.44625L16.5003 4.15336ZM16.8075 3.84618C16.8677 3.78597 16.9392 3.7382 17.0178 3.70561L16.6352 2.78173C16.4352 2.86457 16.2534 2.986 16.1004 3.13907L16.8075 3.84618ZM17.0178 3.70561C17.0965 3.67302 17.1808 3.65625 17.266 3.65625V2.65625C17.0495 2.65625 16.8352 2.69889 16.6352 2.78173L17.0178 3.70561ZM17.266 3.65625C17.3511 3.65625 17.4355 3.67302 17.5141 3.70561L17.8968 2.78173C17.6968 2.69889 17.4825 2.65625 17.266 2.65625V3.65625ZM17.5141 3.70561C17.5928 3.7382 17.6643 3.78596 17.7245 3.84618L18.4316 3.13907C18.2786 2.986 18.0968 2.86457 17.8968 2.78173L17.5141 3.70561ZM17.7245 3.84618C17.7847 3.90639 17.8325 3.97788 17.8651 4.05655L18.789 3.67387C18.7061 3.47387 18.5847 3.29215 18.4316 3.13907L17.7245 3.84618ZM17.8651 4.05655C17.8977 4.13523 17.9144 4.21955 17.9144 4.30471H18.9144C18.9144 4.08823 18.8718 3.87387 18.789 3.67387L17.8651 4.05655ZM17.9144 4.30471C17.9144 4.38986 17.8977 4.47418 17.8651 4.55286L18.789 4.93555C18.8718 4.73555 18.9144 4.52119 18.9144 4.30471H17.9144ZM17.8651 4.55286C17.8325 4.63154 17.7847 4.70302 17.7245 4.76324L18.4316 5.47034C18.5847 5.31727 18.7061 5.13554 18.789 4.93555L17.8651 4.55286ZM17.7245 4.76324L17.4173 5.07042L18.1244 5.77752L18.4316 5.47034L17.7245 4.76324ZM16.216 4.15336L17.4173 5.35465L18.1244 4.64755L16.9232 3.44625L16.216 4.15336ZM18.1244 5.35465L18.2202 5.25891L17.5131 4.5518L17.4173 4.64754L18.1244 5.35465ZM18.2202 5.25891C18.4733 5.00584 18.6154 4.6626 18.6154 4.30471H17.6154C17.6154 4.39739 17.5786 4.48627 17.5131 4.5518L18.2202 5.25891ZM18.6154 4.30471C18.6154 3.94681 18.4733 3.60358 18.2202 3.35051L17.5131 4.05761C17.5786 4.12315 17.6154 4.21203 17.6154 4.30471H18.6154ZM18.2202 3.35051C17.9671 3.09744 17.6239 2.95527 17.266 2.95527V3.95527C17.3587 3.95527 17.4476 3.99208 17.5131 4.05761L18.2202 3.35051ZM17.266 2.95527C16.9081 2.95527 16.5649 3.09744 16.3118 3.35051L17.0189 4.05761C17.0844 3.99208 17.1733 3.95527 17.266 3.95527V2.95527ZM16.3118 3.35051L16.216 3.44625L16.9232 4.15336L17.0189 4.05762L16.3118 3.35051Z" fill="#1E1E1E" mask="url(#path-10-inside-1_88_133)"/>
<path d="M18.1246 5.21221L20.2277 7.31483C20.2277 7.31483 20.2277 7.31484 20.2277 7.31484C20.2639 7.35107 20.3131 7.37143 20.3643 7.37143C20.4155 7.37143 20.4647 7.35109 20.5009 7.3149C20.5009 7.31487 20.501 7.31485 20.501 7.31483L20.6777 7.49164C20.7608 7.40851 20.8075 7.29577 20.8075 7.17823C20.8075 7.06068 20.7608 6.94795 20.6777 6.86481L18.1246 5.21221ZM18.1246 5.21221L18.1708 5.16602H18.6254L20.5009 7.04156" stroke="#1E1E1E" stroke-width="0.5"/>
<path d="M16.4041 2.94534V3.40007L16.3582 3.44603L14.2547 1.343L14.2547 1.343L14.2544 1.34265C14.2364 1.32478 14.2222 1.30355 14.2125 1.28016C14.2028 1.25678 14.1978 1.23171 14.1978 1.20638C14.1978 1.18106 14.2028 1.15598 14.2125 1.1326C14.2222 1.10922 14.2364 1.08798 14.2544 1.07011L14.2544 1.07011L14.2547 1.06978C14.2909 1.03354 14.3401 1.01318 14.3914 1.01318C14.4426 1.01318 14.4918 1.03354 14.528 1.06977C14.528 1.06977 14.528 1.06978 14.528 1.06978L16.4041 2.94534Z" stroke="#1E1E1E" stroke-width="0.5"/>
<mask id="path-14-inside-2_88_133" fill="white">
<path d="M20.3641 7.77108C20.2863 7.77121 20.2092 7.75595 20.1373 7.72616C20.0654 7.69638 20.0001 7.65267 19.9452 7.59754L17.5596 5.21241L18.0049 4.7666H18.7908L20.7855 6.76128C20.8675 6.84454 20.923 6.95016 20.9453 7.06488C20.9675 7.17961 20.9553 7.29835 20.9103 7.40619C20.8653 7.51404 20.7895 7.6062 20.6923 7.67111C20.5951 7.73602 20.4809 7.7708 20.3641 7.77108ZM17.9829 5.21241L20.1566 7.38611C20.1839 7.41338 20.2163 7.43502 20.2519 7.44978C20.2876 7.46454 20.3258 7.47214 20.3643 7.47214C20.4029 7.47214 20.4411 7.46454 20.4767 7.44978C20.5124 7.43502 20.5448 7.41338 20.572 7.38611C20.5993 7.35883 20.6209 7.32645 20.6357 7.29082C20.6505 7.25518 20.6581 7.21699 20.6581 7.17841C20.6581 7.13984 20.6505 7.10165 20.6357 7.06601C20.6209 7.03037 20.5993 6.99799 20.572 6.97072L18.6671 5.0658H18.1291L17.9829 5.21241Z"/>
</mask>
<path d="M20.3641 7.77108C20.2863 7.77121 20.2092 7.75595 20.1373 7.72616C20.0654 7.69638 20.0001 7.65267 19.9452 7.59754L17.5596 5.21241L18.0049 4.7666H18.7908L20.7855 6.76128C20.8675 6.84454 20.923 6.95016 20.9453 7.06488C20.9675 7.17961 20.9553 7.29835 20.9103 7.40619C20.8653 7.51404 20.7895 7.6062 20.6923 7.67111C20.5951 7.73602 20.4809 7.7708 20.3641 7.77108ZM17.9829 5.21241L20.1566 7.38611C20.1839 7.41338 20.2163 7.43502 20.2519 7.44978C20.2876 7.46454 20.3258 7.47214 20.3643 7.47214C20.4029 7.47214 20.4411 7.46454 20.4767 7.44978C20.5124 7.43502 20.5448 7.41338 20.572 7.38611C20.5993 7.35883 20.6209 7.32645 20.6357 7.29082C20.6505 7.25518 20.6581 7.21699 20.6581 7.17841C20.6581 7.13984 20.6505 7.10165 20.6357 7.06601C20.6209 7.03037 20.5993 6.99799 20.572 6.97072L18.6671 5.0658H18.1291L17.9829 5.21241Z" fill="#5E6175"/>
<path d="M20.3641 7.77108L20.3649 8.27108L20.3653 8.27108L20.3641 7.77108ZM19.9452 7.59754L20.2994 7.24463L20.2987 7.24395L19.9452 7.59754ZM17.5596 5.21241L17.2058 4.85906L16.8526 5.21265L17.2061 5.566L17.5596 5.21241ZM18.0049 4.7666V4.2666H17.7976L17.6511 4.41325L18.0049 4.7666ZM18.7908 4.7666L19.1443 4.41305L18.9979 4.2666H18.7908V4.7666ZM20.7855 6.76128L21.1417 6.41042L21.139 6.40772L20.7855 6.76128ZM17.9829 5.21241L17.6288 4.85946L17.2764 5.21301L17.6294 5.56596L17.9829 5.21241ZM20.1566 7.38611L19.8031 7.73966V7.73966L20.1566 7.38611ZM20.6581 7.17841H20.1581H20.6581ZM18.6671 5.0658L19.0207 4.71225L18.8742 4.5658H18.6671V5.0658ZM18.1291 5.0658V4.5658H17.9214L17.7749 4.71285L18.1291 5.0658ZM20.3632 7.27108C20.3514 7.2711 20.3396 7.26877 20.3287 7.26423L19.9459 8.18809C20.0788 8.24312 20.2212 8.27132 20.3649 8.27108L20.3632 7.27108ZM20.3287 7.26423C20.3177 7.25969 20.3078 7.25303 20.2994 7.24463L19.591 7.95046C19.6925 8.0523 19.8131 8.13306 19.9459 8.18809L20.3287 7.26423ZM20.2987 7.24395L17.9131 4.85882L17.2061 5.566L19.5917 7.95113L20.2987 7.24395ZM17.9133 5.56577L18.3586 5.11996L17.6511 4.41325L17.2058 4.85906L17.9133 5.56577ZM18.0049 5.2666H18.7908V4.2666H18.0049V5.2666ZM18.4372 5.12015L20.4319 7.11483L21.139 6.40772L19.1443 4.41305L18.4372 5.12015ZM20.4292 7.11212C20.4421 7.12522 20.4509 7.14185 20.4544 7.15991L21.4361 6.96986C21.3952 6.75846 21.2928 6.56385 21.1417 6.41043L20.4292 7.11212ZM20.4544 7.15991C20.4579 7.17798 20.456 7.19667 20.4489 7.21364L21.3717 7.59874C21.4547 7.40002 21.4771 7.18125 21.4361 6.96986L20.4544 7.15991ZM20.4489 7.21364C20.4418 7.23062 20.4298 7.24513 20.4145 7.25534L20.97 8.08687C21.1491 7.96727 21.2888 7.79746 21.3717 7.59874L20.4489 7.21364ZM20.4145 7.25534C20.3993 7.26556 20.3813 7.27104 20.3629 7.27108L20.3653 8.27108C20.5806 8.27056 20.791 8.20648 20.97 8.08687L20.4145 7.25534ZM17.6294 5.56596L19.8031 7.73966L20.5102 7.03256L18.3365 4.85886L17.6294 5.56596ZM19.8031 7.73966C19.8768 7.81337 19.9643 7.87183 20.0606 7.91172L20.4433 6.98784C20.4683 6.99821 20.491 7.0134 20.5102 7.03256L19.8031 7.73966ZM20.0606 7.91172C20.1569 7.95161 20.2601 7.97214 20.3643 7.97214V6.97214C20.3914 6.97214 20.4182 6.97747 20.4433 6.98784L20.0606 7.91172ZM20.3643 7.97214C20.4686 7.97214 20.5718 7.95161 20.6681 7.91172L20.2854 6.98784C20.3104 6.97747 20.3372 6.97214 20.3643 6.97214V7.97214ZM20.6681 7.91172C20.7644 7.87183 20.8519 7.81337 20.9256 7.73966L20.2185 7.03256C20.2376 7.0134 20.2604 6.99821 20.2854 6.98784L20.6681 7.91172ZM20.9256 7.73966C20.9993 7.66596 21.0578 7.57845 21.0976 7.48216L20.1738 7.09948C20.1841 7.07445 20.1993 7.05171 20.2185 7.03256L20.9256 7.73966ZM21.0976 7.48216C21.1375 7.38586 21.1581 7.28265 21.1581 7.17841H20.1581C20.1581 7.15133 20.1634 7.1245 20.1738 7.09948L21.0976 7.48216ZM21.1581 7.17841C21.1581 7.07418 21.1375 6.97097 21.0976 6.87467L20.1738 7.25735C20.1634 7.23233 20.1581 7.2055 20.1581 7.17841H21.1581ZM21.0976 6.87467C21.0578 6.77837 20.9993 6.69087 20.9256 6.61716L20.2185 7.32427C20.1993 7.30511 20.1841 7.28237 20.1738 7.25735L21.0976 6.87467ZM20.9256 6.61716L19.0207 4.71225L18.3136 5.41936L20.2185 7.32427L20.9256 6.61716ZM18.6671 4.5658H18.1291V5.5658H18.6671V4.5658ZM17.7749 4.71285L17.6288 4.85946L18.3371 5.56536L18.4832 5.41875L17.7749 4.71285Z" fill="#1E1E1E" mask="url(#path-14-inside-2_88_133)"/>
<mask id="path-16-inside-3_88_133" fill="white">
<path d="M16.3583 4.01099L13.9731 1.62536C13.8664 1.5133 13.8077 1.36396 13.8096 1.20922C13.8115 1.05449 13.8738 0.90662 13.9832 0.797197C14.0927 0.687773 14.2405 0.625466 14.3953 0.623579C14.55 0.621693 14.6993 0.680376 14.8114 0.787099L16.8036 2.78177V3.56718L16.3583 4.01099ZM14.0983 1.20648C14.0983 1.24504 14.1059 1.28322 14.1207 1.31882C14.1355 1.35443 14.1572 1.38675 14.1846 1.41393L16.3583 3.58762L16.5044 3.44151V2.90345L14.6 0.999531C14.5588 0.958653 14.5066 0.930831 14.4497 0.91956C14.3928 0.908289 14.3339 0.914071 14.2803 0.93618C14.2267 0.958289 14.1808 0.99574 14.1485 1.04383C14.1161 1.09192 14.0986 1.1485 14.0983 1.20648Z"/>
</mask>
<path d="M16.3583 4.01099L13.9731 1.62536C13.8664 1.5133 13.8077 1.36396 13.8096 1.20922C13.8115 1.05449 13.8738 0.90662 13.9832 0.797197C14.0927 0.687773 14.2405 0.625466 14.3953 0.623579C14.55 0.621693 14.6993 0.680376 14.8114 0.787099L16.8036 2.78177V3.56718L16.3583 4.01099ZM14.0983 1.20648C14.0983 1.24504 14.1059 1.28322 14.1207 1.31882C14.1355 1.35443 14.1572 1.38675 14.1846 1.41393L16.3583 3.58762L16.5044 3.44151V2.90345L14.6 0.999531C14.5588 0.958653 14.5066 0.930831 14.4497 0.91956C14.3928 0.908289 14.3339 0.914071 14.2803 0.93618C14.2267 0.958289 14.1808 0.99574 14.1485 1.04383C14.1161 1.09192 14.0986 1.1485 14.0983 1.20648Z" fill="#5E6175"/>
<path d="M16.3583 4.01099L16.0047 4.36451L16.3576 4.71754L16.7112 4.36514L16.3583 4.01099ZM13.9731 1.62536L13.611 1.97029L13.6195 1.97888L13.9731 1.62536ZM14.8114 0.787099L15.1653 0.433656L15.1562 0.42503L14.8114 0.787099ZM16.8036 2.78177H17.3036V2.57485L17.1574 2.42844L16.8036 2.78177ZM16.8036 3.56718L17.1565 3.92132L17.3036 3.77478V3.56718H16.8036ZM14.0983 1.20648L13.5983 1.20362L13.5983 1.20624L14.0983 1.20648ZM14.1846 1.41393L14.5381 1.06037L14.537 1.05921L14.1846 1.41393ZM16.3583 3.58762L16.0047 3.94118L16.3583 4.29473L16.7118 3.94118L16.3583 3.58762ZM16.5044 3.44151L16.8579 3.79507L17.0044 3.64862V3.44151H16.5044ZM16.5044 2.90345H17.0044V2.6963L16.8579 2.54985L16.5044 2.90345ZM14.6 0.999531L14.9535 0.64593L14.9525 0.644978L14.6 0.999531ZM16.7119 3.65748L14.3267 1.27184L13.6195 1.97888L16.0047 4.36451L16.7119 3.65748ZM14.3352 1.28053C14.3185 1.26297 14.3093 1.23957 14.3096 1.21532L13.3097 1.20313C13.3062 1.48835 13.4143 1.76363 13.6111 1.97019L14.3352 1.28053ZM14.3096 1.21532C14.3099 1.19107 14.3196 1.1679 14.3368 1.15075L13.6297 0.443643C13.428 0.645341 13.3131 0.917902 13.3097 1.20313L14.3096 1.21532ZM14.3368 1.15075C14.3539 1.1336 14.3771 1.12384 14.4014 1.12354L14.3892 0.123616C14.1039 0.127094 13.8314 0.241944 13.6297 0.443643L14.3368 1.15075ZM14.4014 1.12354C14.4256 1.12325 14.449 1.13244 14.4666 1.14917L15.1562 0.42503C14.9497 0.228309 14.6744 0.120139 14.3892 0.123616L14.4014 1.12354ZM14.4576 1.14043L16.4498 3.13511L17.1574 2.42844L15.1652 0.433766L14.4576 1.14043ZM16.3036 2.78177V3.56718H17.3036V2.78177H16.3036ZM16.4506 3.21303L16.0053 3.65684L16.7112 4.36514L17.1565 3.92132L16.4506 3.21303ZM13.5983 1.20624C13.5983 1.31079 13.6189 1.4143 13.659 1.51082L14.5824 1.12683C14.5929 1.15214 14.5983 1.17929 14.5983 1.20671L13.5983 1.20624ZM13.659 1.51082C13.6992 1.60734 13.758 1.69496 13.8322 1.76864L14.537 1.05921C14.5564 1.07854 14.5718 1.10152 14.5824 1.12683L13.659 1.51082ZM13.831 1.76748L16.0047 3.94118L16.7118 3.23407L14.5381 1.06037L13.831 1.76748ZM16.7118 3.94118L16.8579 3.79507L16.1508 3.08796L16.0047 3.23407L16.7118 3.94118ZM17.0044 3.44151V2.90345H16.0044V3.44151H17.0044ZM16.8579 2.54985L14.9535 0.645932L14.2465 1.35313L16.1509 3.25705L16.8579 2.54985ZM14.9525 0.644978C14.8415 0.534627 14.7004 0.459525 14.5469 0.429099L14.3525 1.41002C14.3127 1.40214 14.2762 1.38268 14.2474 1.35408L14.9525 0.644978ZM14.5469 0.429099C14.3934 0.398674 14.2343 0.414283 14.0896 0.473965L14.471 1.3984C14.4335 1.41386 14.3923 1.4179 14.3525 1.41002L14.5469 0.429099ZM14.0896 0.473965C13.945 0.533648 13.8211 0.634745 13.7337 0.764558L14.5632 1.3231C14.5406 1.35673 14.5085 1.38293 14.471 1.3984L14.0896 0.473965ZM13.7337 0.764558C13.6463 0.89437 13.5992 1.04712 13.5983 1.20362L14.5983 1.20934C14.5981 1.24989 14.5859 1.28947 14.5632 1.3231L13.7337 0.764558Z" fill="#1E1E1E" mask="url(#path-16-inside-3_88_133)"/>
<path d="M3.66063 17.5584L5.44317 15.7759C5.53936 15.6797 5.6951 15.6798 5.79103 15.7757C5.88696 15.8716 5.88704 16.0274 5.79085 16.1236L4.00832 17.9061C3.91212 18.0023 3.75638 18.0022 3.66045 17.9063C3.56453 17.8103 3.56444 17.6546 3.66063 17.5584Z" stroke="#1E1E1E" stroke-width="0.5"/>
<mask id="path-19-inside-4_88_133" fill="white">
<path d="M2.37416 17.5694L0 15.1952L1.0497 14.145L3.86019 15.7014L2.37416 17.5694ZM0.422871 15.1952L2.34873 17.1206L3.40591 15.7921L1.10206 14.516L0.422871 15.1952Z"/>
</mask>
<path d="M2.37416 17.5694L0 15.1952L1.0497 14.145L3.86019 15.7014L2.37416 17.5694ZM0.422871 15.1952L2.34873 17.1206L3.40591 15.7921L1.10206 14.516L0.422871 15.1952Z" fill="#5E6175"/>
<path d="M2.37416 17.5694L2.02061 17.9229L2.41671 18.319L2.76545 17.8807L2.37416 17.5694ZM0 15.1952L-0.353638 14.8417L-0.707023 15.1953L-0.353553 15.5488L0 15.1952ZM1.0497 14.145L1.29192 13.7076L0.962368 13.5251L0.69606 13.7916L1.0497 14.145ZM3.86019 15.7014L4.25148 16.0126L4.61935 15.5502L4.10242 15.264L3.86019 15.7014ZM0.422871 15.1952L0.0693174 14.8417L-0.284281 15.1953L0.0693635 15.5488L0.422871 15.1952ZM2.34873 17.1206L1.99522 17.4742L2.39126 17.8701L2.73997 17.4319L2.34873 17.1206ZM3.40591 15.7921L3.79714 16.1035L4.16512 15.6411L3.64817 15.3547L3.40591 15.7921ZM1.10206 14.516L1.34432 14.0786L1.01484 13.8961L0.748504 14.1625L1.10206 14.516ZM2.72772 17.2158L0.353553 14.8417L-0.353553 15.5488L2.02061 17.9229L2.72772 17.2158ZM0.353638 15.5487L1.40334 14.4985L0.69606 13.7916L-0.353638 14.8417L0.353638 15.5487ZM0.807476 14.5824L3.61797 16.1388L4.10242 15.264L1.29192 13.7076L0.807476 14.5824ZM3.46891 15.3901L1.98287 17.2581L2.76545 17.8807L4.25148 16.0126L3.46891 15.3901ZM0.0693635 15.5488L1.99522 17.4742L2.70224 16.767L0.776379 14.8416L0.0693635 15.5488ZM2.73997 17.4319L3.79714 16.1035L3.01467 15.4808L1.95749 16.8092L2.73997 17.4319ZM3.64817 15.3547L1.34432 14.0786L0.859791 14.9534L3.16364 16.2295L3.64817 15.3547ZM0.748504 14.1625L0.0693174 14.8417L0.776425 15.5488L1.45561 14.8696L0.748504 14.1625Z" fill="#1E1E1E" mask="url(#path-19-inside-4_88_133)"/>
<mask id="path-21-inside-5_88_133" fill="white">
<path d="M6.37685 21.5706L4.00269 19.1965L5.8702 17.7104L7.42405 20.5209L6.37685 21.5706ZM4.45099 19.2219L6.37685 21.1458L7.05603 20.4666L5.77845 18.1647L4.45099 19.2219Z"/>
</mask>
<path d="M6.37685 21.5706L4.00269 19.1965L5.8702 17.7104L7.42405 20.5209L6.37685 21.5706ZM4.45099 19.2219L6.37685 21.1458L7.05603 20.4666L5.77845 18.1647L4.45099 19.2219Z" fill="#5E6175"/>
<path d="M6.37685 21.5706L6.02329 21.9242L6.37727 22.2782L6.73082 21.9238L6.37685 21.5706ZM4.00269 19.1965L3.69136 18.8052L3.25308 19.154L3.64913 19.55L4.00269 19.1965ZM5.8702 17.7104L6.30778 17.4685L6.02163 16.951L5.55887 17.3192L5.8702 17.7104ZM7.42405 20.5209L7.77803 20.8741L8.0435 20.608L7.86163 20.279L7.42405 20.5209ZM4.45099 19.2219L4.1395 18.8308L3.70132 19.1798L4.09762 19.5757L4.45099 19.2219ZM6.37685 21.1458L6.02348 21.4995L6.37703 21.8527L6.7304 21.4993L6.37685 21.1458ZM7.05603 20.4666L7.40959 20.8201L7.67616 20.5536L7.49321 20.2239L7.05603 20.4666ZM5.77845 18.1647L6.21562 17.9221L5.92899 17.4057L5.46696 17.7736L5.77845 18.1647ZM6.7304 21.2171L4.35624 18.8429L3.64913 19.55L6.02329 21.9242L6.7304 21.2171ZM4.31401 19.5877L6.18153 18.1017L5.55887 17.3192L3.69136 18.8052L4.31401 19.5877ZM5.43262 17.9524L6.98648 20.7629L7.86163 20.279L6.30778 17.4685L5.43262 17.9524ZM7.07008 20.1678L6.02287 21.2175L6.73082 21.9238L7.77803 20.8741L7.07008 20.1678ZM4.09762 19.5757L6.02348 21.4995L6.73022 20.792L4.80436 18.8682L4.09762 19.5757ZM6.7304 21.4993L7.40959 20.8201L6.70248 20.113L6.02329 20.7922L6.7304 21.4993ZM7.49321 20.2239L6.21562 17.9221L5.34127 18.4074L6.61886 20.7092L7.49321 20.2239ZM5.46696 17.7736L4.1395 18.8308L4.76248 19.613L6.08993 18.5559L5.46696 17.7736Z" fill="#1E1E1E" mask="url(#path-21-inside-5_88_133)"/>
<path d="M3.55745 18.0138C3.55728 18.0136 3.55711 18.0134 3.55694 18.0133C3.48354 17.9388 3.44238 17.8384 3.44238 17.7338C3.44238 17.6291 3.48354 17.5287 3.55694 17.4542C3.55702 17.4542 3.5571 17.4541 3.55718 17.454C3.55731 17.4539 3.55744 17.4537 3.55757 17.4536C3.55768 17.4535 3.55779 17.4534 3.55789 17.4533L3.55745 18.0138ZM3.4152 18.1558L3.41648 18.157C3.52854 18.2673 3.67946 18.3291 3.83668 18.3291C3.83694 18.3291 3.8372 18.3291 3.83745 18.3291C3.9944 18.3289 4.14501 18.2671 4.25689 18.157L4.25689 18.157L4.2583 18.1556L4.25855 18.1554L4.29496 18.1918L3.4152 18.1558Z" fill="#5E6175" stroke="#1E1E1E" stroke-width="0.5"/>
<mask id="path-24-inside-6_88_133" fill="white">
<path d="M4.07855 19.3651C3.8197 19.3649 3.56369 19.3111 3.32666 19.2071C3.08964 19.103 2.87673 18.951 2.70137 18.7606C2.52601 18.5702 2.392 18.3456 2.30778 18.1008C2.22356 17.856 2.19096 17.5965 2.21203 17.3385C2.21203 17.2836 2.17064 17.3385 3.37493 15.83C4.9587 13.8468 9.71799 7.91263 11.5032 6.12839C13.7517 3.87989 16.2406 3.65848 16.3473 3.65001L16.4161 3.64502L17.9266 5.15549L17.9211 5.2243C17.9131 5.32902 17.6917 7.81987 15.4432 10.0679C13.5034 12.0077 6.41731 17.6681 4.284 19.3546C4.21818 19.3596 4.16332 19.3651 4.07855 19.3651ZM2.50725 17.4018C2.49474 17.6233 2.52916 17.8449 2.60824 18.0521C2.68732 18.2594 2.80928 18.4476 2.96614 18.6045C3.12299 18.7613 3.31121 18.8833 3.51846 18.9624C3.72572 19.0414 3.94733 19.0759 4.16881 19.0634C4.79065 18.5712 13.099 11.9882 15.2303 9.85644C17.2015 7.8857 17.5631 5.6766 17.6144 5.26869L16.3034 3.95768C15.894 4.00755 13.6814 4.37457 11.7157 6.34182C9.58236 8.47163 2.99943 16.78 2.50725 17.4018Z"/>
</mask>
<path d="M4.07855 19.3651C3.8197 19.3649 3.56369 19.3111 3.32666 19.2071C3.08964 19.103 2.87673 18.951 2.70137 18.7606C2.52601 18.5702 2.392 18.3456 2.30778 18.1008C2.22356 17.856 2.19096 17.5965 2.21203 17.3385C2.21203 17.2836 2.17064 17.3385 3.37493 15.83C4.9587 13.8468 9.71799 7.91263 11.5032 6.12839C13.7517 3.87989 16.2406 3.65848 16.3473 3.65001L16.4161 3.64502L17.9266 5.15549L17.9211 5.2243C17.9131 5.32902 17.6917 7.81987 15.4432 10.0679C13.5034 12.0077 6.41731 17.6681 4.284 19.3546C4.21818 19.3596 4.16332 19.3651 4.07855 19.3651ZM2.50725 17.4018C2.49474 17.6233 2.52916 17.8449 2.60824 18.0521C2.68732 18.2594 2.80928 18.4476 2.96614 18.6045C3.12299 18.7613 3.31121 18.8833 3.51846 18.9624C3.72572 19.0414 3.94733 19.0759 4.16881 19.0634C4.79065 18.5712 13.099 11.9882 15.2303 9.85644C17.2015 7.8857 17.5631 5.6766 17.6144 5.26869L16.3034 3.95768C15.894 4.00755 13.6814 4.37457 11.7157 6.34182C9.58236 8.47163 2.99943 16.78 2.50725 17.4018Z" fill="#5E6175"/>
<path d="M4.07855 19.3651L4.07822 19.8651H4.07855V19.3651ZM2.21203 17.3385L2.71037 17.3792L2.71203 17.3589V17.3385H2.21203ZM3.37493 15.83L2.98423 15.518L2.98418 15.518L3.37493 15.83ZM11.5032 6.12839L11.8567 6.48204L11.8568 6.48194L11.5032 6.12839ZM16.3473 3.65001L16.3112 3.1513L16.3077 3.15158L16.3473 3.65001ZM16.4161 3.64502L16.7697 3.29147L16.608 3.1298L16.38 3.14633L16.4161 3.64502ZM17.9266 5.15549L18.425 5.19521L18.4433 4.96514L18.2801 4.80193L17.9266 5.15549ZM17.9211 5.2243L17.4227 5.18458L17.4225 5.18632L17.9211 5.2243ZM15.4432 10.0679L15.0897 9.71428L15.0897 9.71432L15.4432 10.0679ZM4.284 19.3546L4.32177 19.8532L4.47418 19.8416L4.59409 19.7468L4.284 19.3546ZM2.50725 17.4018L2.11519 17.0915L2.01696 17.2156L2.00804 17.3736L2.50725 17.4018ZM4.16881 19.0634L4.19699 19.5626L4.35501 19.5536L4.47912 19.4554L4.16881 19.0634ZM15.2303 9.85644L14.8768 9.50284L14.8767 9.50293L15.2303 9.85644ZM17.6144 5.26869L18.1105 5.33115L18.1411 5.08825L17.968 4.91513L17.6144 5.26869ZM16.3034 3.95768L16.657 3.60413L16.4847 3.4319L16.243 3.46135L16.3034 3.95768ZM11.7157 6.34182L12.0689 6.69566L12.0694 6.69524L11.7157 6.34182ZM4.07889 18.8651C3.8891 18.8649 3.7014 18.8255 3.52761 18.7492L3.12572 19.6649C3.42599 19.7967 3.7503 19.8648 4.07822 19.8651L4.07889 18.8651ZM3.52761 18.7492C3.35382 18.6729 3.19772 18.5615 3.06915 18.4219L2.33359 19.0993C2.55574 19.3405 2.82545 19.5331 3.12572 19.6649L3.52761 18.7492ZM3.06915 18.4219C2.94058 18.2823 2.84232 18.1176 2.78057 17.9381L1.83498 18.2635C1.94167 18.5735 2.11144 18.8581 2.33359 19.0993L3.06915 18.4219ZM2.78057 17.9381C2.71882 17.7586 2.69492 17.5683 2.71037 17.3792L1.71369 17.2978C1.68699 17.6246 1.72829 17.9534 1.83498 18.2635L2.78057 17.9381ZM2.71203 17.3385C2.71203 17.2672 2.71408 17.3569 2.7045 17.4094C2.69136 17.4815 2.66444 17.5294 2.65851 17.5398C2.65307 17.5493 2.66266 17.5321 2.73775 17.4348C2.8746 17.2574 3.16116 16.8992 3.76568 16.1419L2.98418 15.518C2.38441 16.2693 2.08952 16.6379 1.946 16.8239C1.88091 16.9083 1.82557 16.9819 1.79025 17.0437C1.76939 17.0802 1.7363 17.1446 1.72071 17.2301C1.70869 17.2961 1.71203 17.396 1.71203 17.3385H2.71203ZM3.76563 16.142C5.3607 14.1447 10.0968 8.24092 11.8567 6.48204L11.1498 5.77474C9.33917 7.58434 4.5567 13.5489 2.98423 15.518L3.76563 16.142ZM11.8568 6.48194C13.9856 4.35316 16.3364 4.15245 16.3869 4.14844L16.3077 3.15158C16.1448 3.16452 13.5179 3.40663 11.1497 5.77484L11.8568 6.48194ZM16.3834 4.1487L16.4522 4.14371L16.38 3.14633L16.3112 3.15131L16.3834 4.1487ZM16.0626 3.99857L17.573 5.50904L18.2801 4.80193L16.7697 3.29147L16.0626 3.99857ZM17.4282 5.11576L17.4227 5.18458L18.4195 5.26403L18.425 5.19521L17.4282 5.11576ZM17.4225 5.18632C17.419 5.23305 17.2186 7.58586 15.0897 9.71428L15.7967 10.4215C18.1648 8.05389 18.4073 5.425 18.4197 5.26229L17.4225 5.18632ZM15.0897 9.71432C13.1761 11.6279 6.12086 17.2651 3.97392 18.9623L4.59409 19.7468C6.71375 18.0711 13.8307 12.3875 15.7968 10.4214L15.0897 9.71432ZM4.24623 18.856C4.17256 18.8616 4.13993 18.8651 4.07855 18.8651V19.8651C4.18672 19.8651 4.26379 19.8575 4.32177 19.8532L4.24623 18.856ZM2.00804 17.3736C1.99157 17.6654 2.03691 17.9574 2.14109 18.2304L3.07539 17.8739C3.02141 17.7324 2.99792 17.5812 3.00645 17.43L2.00804 17.3736ZM2.14109 18.2304C2.24527 18.5034 2.40594 18.7514 2.61258 18.958L3.31969 18.2509C3.21262 18.1438 3.12937 18.0154 3.07539 17.8739L2.14109 18.2304ZM2.61258 18.958C2.81922 19.1647 3.06718 19.3253 3.34022 19.4295L3.69671 18.4952C3.55524 18.4412 3.42676 18.358 3.31969 18.2509L2.61258 18.958ZM3.34022 19.4295C3.61325 19.5337 3.90521 19.579 4.19699 19.5626L4.14063 18.5642C3.98945 18.5727 3.83818 18.5492 3.69671 18.4952L3.34022 19.4295ZM4.47912 19.4554C5.08473 18.9761 13.426 12.3683 15.5839 10.2099L14.8767 9.50293C12.7719 11.6082 4.49657 18.1663 3.8585 18.6713L4.47912 19.4554ZM15.5838 10.21C17.6654 8.12891 18.0522 5.7941 18.1105 5.33115L17.1183 5.20622C17.0739 5.55909 16.7376 7.64249 14.8768 9.50284L15.5838 10.21ZM17.968 4.91513L16.657 3.60413L15.9499 4.31124L17.2609 5.62224L17.968 4.91513ZM16.243 3.46135C15.7757 3.51826 13.4377 3.9111 11.362 5.9884L12.0694 6.69524C13.9251 4.83805 16.0123 4.49684 16.3639 4.45402L16.243 3.46135ZM11.3624 5.98798C9.20239 8.14445 2.59445 16.486 2.11519 17.0915L2.8993 17.7121C3.40441 17.0739 9.96233 8.79881 12.0689 6.69566L11.3624 5.98798Z" fill="#1E1E1E" mask="url(#path-24-inside-6_88_133)"/>
<path d="M4.64603 2.28906L4.78818 2.14692L6.74882 4.10756L6.60668 4.24971L4.64603 2.28906Z" fill="#F5F5F5" stroke="#1E1E1E" stroke-width="0.5"/>
<path d="M17.3465 14.9917L17.4886 14.8496L19.4493 16.8102L19.3071 16.9523L17.3465 14.9917Z" fill="#F5F5F5" stroke="#1E1E1E" stroke-width="0.5"/>
<path d="M15.192 6.37768C15.4489 6.63457 15.6348 6.9529 15.7326 7.30161C15.4778 7.70213 15.2017 8.0886 14.9054 8.45935L13.1107 6.66509C13.4813 6.36849 13.8677 6.09209 14.2681 5.83711C14.6168 5.93489 14.9351 6.12081 15.192 6.37768Z" stroke="#1E1E1E" stroke-width="0.5"/>
<mask id="path-29-inside-7_88_133" fill="white">
<path d="M14.9341 9.05289L12.5176 6.63435C13.0368 6.19151 13.5882 5.78781 14.1672 5.42657L14.2245 5.41211C14.6915 5.51393 15.12 5.74597 15.4605 6.08134C15.801 6.41672 16.0395 6.8417 16.1484 7.30705L16.1618 7.36739C15.7958 7.95948 15.3854 8.52293 14.9341 9.05289ZM12.9594 6.65679L14.9117 8.60907C15.2464 8.19739 15.5564 7.76629 15.8402 7.31802C15.7399 6.93591 15.5398 6.58732 15.2605 6.30798C14.9811 6.02863 14.6326 5.82856 14.2505 5.72827C13.8022 6.01206 13.3711 6.32211 12.9594 6.65679Z"/>
</mask>
<path d="M14.9341 9.05289L12.5176 6.63435C13.0368 6.19151 13.5882 5.78781 14.1672 5.42657L14.2245 5.41211C14.6915 5.51393 15.12 5.74597 15.4605 6.08134C15.801 6.41672 16.0395 6.8417 16.1484 7.30705L16.1618 7.36739C15.7958 7.95948 15.3854 8.52293 14.9341 9.05289ZM12.9594 6.65679L14.9117 8.60907C15.2464 8.19739 15.5564 7.76629 15.8402 7.31802C15.7399 6.93591 15.5398 6.58732 15.2605 6.30798C14.9811 6.02863 14.6326 5.82856 14.2505 5.72827C13.8022 6.01206 13.3711 6.32211 12.9594 6.65679Z" fill="#5E6175"/>
<path d="M14.9341 9.05289L14.5804 9.4063L14.9635 9.78964L15.3148 9.37706L14.9341 9.05289ZM12.5176 6.63435L12.1931 6.25391L11.7815 6.60501L12.1639 6.98775L12.5176 6.63435ZM14.1672 5.42657L14.0449 4.94175L13.969 4.9609L13.9025 5.00237L14.1672 5.42657ZM14.2245 5.41211L14.331 4.92359L14.2162 4.89855L14.1023 4.92729L14.2245 5.41211ZM16.1484 7.30705L16.6364 7.19816L16.6352 7.19314L16.1484 7.30705ZM16.1618 7.36739L16.5872 7.63029L16.6942 7.45716L16.6498 7.2585L16.1618 7.36739ZM12.9594 6.65679L12.644 6.26881L12.2139 6.61843L12.6058 7.01034L12.9594 6.65679ZM14.9117 8.60907L14.5581 8.96263L14.95 9.35454L15.2997 8.92447L14.9117 8.60907ZM15.8402 7.31802L16.2627 7.58548L16.3791 7.40159L16.3238 7.19108L15.8402 7.31802ZM14.2505 5.72827L14.3774 5.24465L14.1669 5.18939L13.983 5.30581L14.2505 5.72827ZM15.2878 8.69948L12.8713 6.28094L12.1639 6.98775L14.5804 9.4063L15.2878 8.69948ZM12.842 7.01478C13.3425 6.58799 13.8738 6.19892 14.4318 5.85077L13.9025 5.00237C13.3025 5.3767 12.7312 5.79503 12.1931 6.25391L12.842 7.01478ZM14.2894 5.91139L14.3468 5.89693L14.1023 4.92729L14.0449 4.94175L14.2894 5.91139ZM14.118 5.90063C14.4926 5.98232 14.8365 6.16849 15.1096 6.43756L15.8114 5.72512C15.4036 5.32345 14.8903 5.04554 14.331 4.92359L14.118 5.90063ZM15.1096 6.43756C15.3828 6.70664 15.5742 7.04761 15.6615 7.42096L16.6352 7.19314C16.5048 6.63579 16.2192 6.12679 15.8114 5.72512L15.1096 6.43756ZM15.6604 7.41594L15.6738 7.47628L16.6498 7.2585L16.6364 7.19816L15.6604 7.41594ZM15.7365 7.10449C15.3838 7.67505 14.9883 8.21802 14.5535 8.72872L15.3148 9.37706C15.7825 8.82784 16.2078 8.2439 16.5872 7.63029L15.7365 7.10449ZM12.6058 7.01034L14.5581 8.96263L15.2652 8.25552L13.313 6.30323L12.6058 7.01034ZM15.2997 8.92447C15.6468 8.49751 15.9683 8.05039 16.2627 7.58548L15.4178 7.05057C15.1445 7.48219 14.846 7.89728 14.5237 8.29367L15.2997 8.92447ZM16.3238 7.19108C16.201 6.72324 15.9561 6.29645 15.614 5.95442L14.9069 6.66153C15.1236 6.8782 15.2788 7.14858 15.3566 7.44496L16.3238 7.19108ZM15.614 5.95442C15.272 5.6124 14.8452 5.36745 14.3774 5.24465L14.1235 6.21188C14.4199 6.28968 14.6903 6.44486 14.9069 6.66153L15.614 5.95442ZM13.983 5.30581C13.5181 5.60015 13.071 5.92171 12.644 6.26881L13.2748 7.04476C13.6712 6.72251 14.0863 6.42398 14.5179 6.15072L13.983 5.30581Z" fill="#1E1E1E" mask="url(#path-29-inside-7_88_133)"/>
<defs>
<linearGradient id="paint0_linear_88_133" x1="1.78781" y1="16.3474" x2="3.63289" y2="16.3474" gradientUnits="userSpaceOnUse">
<stop stop-color="#CACFDD"/>
<stop offset="1" stop-color="#EEF0F1"/>
</linearGradient>
<linearGradient id="paint1_linear_88_133" x1="4.22578" y1="18.8605" x2="6.22045" y2="18.8605" gradientUnits="userSpaceOnUse">
<stop stop-color="#CACFDD"/>
<stop offset="1" stop-color="#EEF0F1"/>
</linearGradient>
</defs>
</svg>
