<svg width="525" height="160" viewBox="0 0 525 160" fill="none" xmlns="http://www.w3.org/2000/svg">
<path d="M126.218 77.7597L106.233 66.2288L89.7942 82.1273L104.818 96.6559L126.218 84.2954C126.79 83.9646 127.265 83.489 127.596 82.9163C127.926 82.3436 128.1 81.694 128.1 81.0328C128.1 80.3715 127.926 79.722 127.596 79.1493C127.265 78.5766 126.79 78.1009 126.218 77.7701V77.7597Z" fill="#FFD109"/>
<path d="M102.843 64.2602L80.8471 51.5616L32.6505 26.851L87.0873 79.4964L102.843 64.2602Z" fill="#06EF79"/>
<path d="M33.4483 136.611L80.9307 110.443L101.425 98.6055L87.0873 84.7391L33.4483 136.611Z" fill="#F93646"/>
<path d="M29.4343 28.9802L29.3821 135.303L84.3799 82.1171L29.4343 28.9802Z" fill="#05D5FB"/>
<path d="M504.276 3.48576C508.727 3.49129 512.995 5.26284 516.142 8.41185C519.29 11.5609 521.061 15.8303 521.066 20.2836V139.305C521.062 143.759 519.291 148.029 516.144 151.179C512.996 154.329 508.728 156.101 504.276 156.106H20.2744C15.8225 156.101 11.5546 154.329 8.40686 151.179C5.25918 148.029 3.48879 143.759 3.48418 139.305V20.2836C3.48971 15.8303 5.26047 11.5609 8.40806 8.41185C11.5556 5.26284 15.8231 3.49129 20.2744 3.48576H504.276ZM504.276 0H20.2744C14.8973 0 9.74045 2.13702 5.93825 5.94094C2.13605 9.74485 2.9942e-07 14.9041 2.9942e-07 20.2836V139.305C-0.0004573 141.969 0.523596 144.607 1.54228 147.068C2.56096 149.529 4.05436 151.766 5.93706 153.65C7.81976 155.534 10.0549 157.028 12.515 158.048C14.975 159.067 17.6117 159.592 20.2744 159.592H504.276C506.939 159.592 509.576 159.067 512.036 158.048C514.496 157.028 516.731 155.534 518.613 153.65C520.496 151.766 521.99 149.529 523.008 147.068C524.027 144.607 524.551 141.969 524.551 139.305V20.2836C524.551 14.9041 522.414 9.74485 518.612 5.94094C514.81 2.13702 509.653 0 504.276 0Z" fill="#1E1E1E"/>
<path d="M171.906 96.4028H179.223V113.005C176.986 114.762 174.446 116.092 171.728 116.93C168.884 117.842 165.914 118.304 162.927 118.3C158.929 118.359 154.98 117.407 151.447 115.533C148.126 113.768 145.354 111.123 143.433 107.888C141.522 104.535 140.517 100.741 140.517 96.8804C140.517 93.0199 141.522 89.226 143.433 85.8723C145.364 82.6287 148.153 79.982 151.492 78.2246C155.055 76.3473 159.033 75.3956 163.06 75.4569C166.314 75.4191 169.545 76.0109 172.575 77.1998C175.342 78.2873 177.81 80.0201 179.773 82.2541L174.895 87.0157C173.408 85.4799 171.622 84.2652 169.648 83.4463C167.673 82.6274 165.552 82.2216 163.415 82.2541C160.695 82.2035 158.006 82.8388 155.597 84.1016C153.36 85.2884 151.504 87.0826 150.241 89.2779C148.928 91.5979 148.261 94.2283 148.311 96.8943C148.272 99.5214 148.938 102.111 150.241 104.392C151.513 106.593 153.366 108.402 155.597 109.621C157.975 110.915 160.649 111.571 163.356 111.524C166.608 111.524 169.462 110.809 171.92 109.38L171.906 96.4028Z" fill="black"/>
<path d="M194.271 116.038C191.754 114.71 189.662 112.7 188.233 110.238C186.809 107.666 186.062 104.774 186.062 101.834C186.062 98.8935 186.809 96.0016 188.233 93.4295C189.668 90.9795 191.759 88.9799 194.271 87.6571C196.97 86.2873 199.955 85.5735 202.981 85.5735C206.008 85.5735 208.992 86.2873 211.692 87.6571C214.202 88.9776 216.295 90.9732 217.733 93.419C219.157 95.9912 219.904 98.8831 219.904 101.823C219.904 104.763 219.157 107.655 217.733 110.227C216.304 112.689 214.211 114.698 211.695 116.028C208.996 117.397 206.012 118.111 202.985 118.111C199.958 118.111 196.974 117.397 194.274 116.028L194.271 116.038ZM209.734 109.018C211.518 107.194 212.41 104.794 212.41 101.82C212.41 98.8452 211.518 96.4447 209.734 94.6181C207.95 92.7939 205.69 91.8818 202.953 91.8818C200.217 91.8818 197.966 92.7939 196.201 94.6181C194.436 96.4447 193.553 98.8452 193.553 101.82C193.553 104.794 194.435 107.194 196.198 109.018C197.965 110.844 200.216 111.756 202.95 111.754C205.684 111.752 207.945 110.84 209.734 109.018Z" fill="black"/>
<path d="M232.632 116.038C230.115 114.71 228.023 112.7 226.594 110.238C225.17 107.666 224.423 104.774 224.423 101.834C224.423 98.8935 225.17 96.0016 226.594 93.4295C228.029 90.9795 230.12 88.9799 232.632 87.6571C235.331 86.2873 238.316 85.5735 241.342 85.5735C244.369 85.5735 247.353 86.2873 250.053 87.6571C252.564 88.9776 254.656 90.9732 256.094 93.419C257.518 95.9912 258.265 98.8831 258.265 101.823C258.265 104.763 257.518 107.655 256.094 110.227C254.665 112.689 252.572 114.698 250.056 116.028C247.357 117.397 244.373 118.111 241.346 118.111C238.319 118.111 235.335 117.397 232.635 116.028L232.632 116.038ZM248.095 109.018C249.879 107.194 250.771 104.794 250.771 101.82C250.771 98.8452 249.879 96.4447 248.095 94.6181C246.311 92.7939 244.051 91.8818 241.315 91.8818C238.578 91.8818 236.327 92.7939 234.562 94.6181C232.799 96.4447 231.918 98.8452 231.918 101.82C231.918 104.794 232.799 107.194 234.562 109.018C236.33 110.844 238.581 111.756 241.315 111.754C244.048 111.752 246.309 110.84 248.095 109.018Z" fill="black"/>
<path d="M296.922 85.9313V112.887C296.922 124.074 291.213 129.666 279.794 129.664C276.86 129.68 273.938 129.289 271.111 128.503C268.642 127.866 266.333 126.722 264.331 125.143L267.662 119.565C269.226 120.811 271.011 121.75 272.923 122.333C275.005 123.022 277.183 123.375 279.376 123.379C282.86 123.379 285.415 122.585 287.041 120.998C288.667 119.411 289.48 116.992 289.48 113.741V112.075C288.197 113.465 286.61 114.539 284.842 115.212C282.925 115.943 280.887 116.308 278.836 116.285C275.992 116.326 273.182 115.662 270.658 114.351C268.268 113.106 266.27 111.221 264.888 108.906C263.505 106.461 262.778 103.699 262.778 100.889C262.778 98.0789 263.505 95.3169 264.888 92.8715C266.275 90.5749 268.276 88.7119 270.665 87.493C273.195 86.2008 276.002 85.5463 278.843 85.5863C280.986 85.5596 283.115 85.9442 285.114 86.7191C286.959 87.4459 288.587 88.6341 289.842 90.17V85.9313H296.922ZM286.901 107.442C288.704 105.755 289.605 103.562 289.605 100.864C289.605 98.2082 288.704 96.047 286.901 94.3808C285.099 92.7146 282.785 91.8815 279.961 91.8815C277.106 91.8815 274.776 92.7146 272.972 94.3808C271.167 96.047 270.266 98.2082 270.268 100.864C270.268 103.562 271.169 105.755 272.972 107.442C274.774 109.129 277.104 109.971 279.961 109.969C282.783 109.969 285.097 109.127 286.901 107.442Z" fill="black"/>
<path d="M306.674 73.5497H314.106V117.704H306.671L306.674 73.5497Z" fill="black"/>
<path d="M353.599 104.196H328.68C329.044 106.432 330.271 108.435 332.098 109.773C333.956 111.142 336.247 111.826 338.969 111.826C342.453 111.826 345.328 110.676 347.592 108.375L351.578 112.938C350.126 114.663 348.263 115.995 346.16 116.811C343.81 117.716 341.307 118.161 338.788 118.121C335.304 118.121 332.231 117.424 329.569 116.03C327.002 114.728 324.865 112.714 323.412 110.229C321.944 107.67 321.194 104.762 321.241 101.811C321.198 98.8855 321.926 95.9999 323.353 93.4456C324.726 91.0019 326.756 88.9924 329.213 87.6453C331.8 86.2307 334.708 85.5101 337.655 85.5538C340.553 85.5058 343.413 86.2134 345.955 87.6069C348.367 88.9504 350.347 90.9524 351.665 93.3793C353.031 95.8565 353.714 98.723 353.714 101.979C353.716 102.506 353.678 103.245 353.599 104.196ZM331.624 93.6338C329.962 95.0726 328.892 97.0772 328.621 99.2598H346.641C346.392 97.1046 345.355 95.1178 343.728 93.6826C342.102 92.2534 340.079 91.5388 337.659 91.5388C335.459 91.4738 333.311 92.2193 331.624 93.6338Z" fill="black"/>
<path d="M404.538 77.8375C407.054 78.8939 409.198 80.6782 410.694 82.9616C412.123 85.1855 412.837 87.8242 412.837 90.8777C412.837 93.8987 412.123 96.5258 410.694 98.759C409.206 101.055 407.061 102.849 404.538 103.907C401.862 105.095 398.72 105.69 395.113 105.692H385.706V117.711H377.975V76.0528H395.103C398.71 76.0528 401.855 76.6477 404.538 77.8375ZM402.426 97.0092C404.173 95.58 405.045 93.5373 405.043 90.8812C405.041 88.2251 404.169 86.1813 402.426 84.7498C400.684 83.3229 398.129 82.6095 394.761 82.6095H385.723V99.1494H394.761C398.132 99.1425 400.687 98.4256 402.426 96.9987V97.0092Z" fill="black"/>
<path d="M420.449 73.5497H427.881V117.704H420.449V73.5497Z" fill="black"/>
<path d="M460.504 88.9361C462.983 91.1786 464.222 94.5598 464.222 99.0797V117.704H457.205V113.838C456.248 115.26 454.893 116.368 453.309 117.021C451.374 117.801 449.298 118.176 447.212 118.122C445.067 118.169 442.938 117.753 440.968 116.902C439.298 116.184 437.864 115.009 436.833 113.511C435.86 112.061 435.352 110.349 435.376 108.603C435.376 105.744 436.437 103.453 438.557 101.729C440.678 100.005 444.018 99.1413 448.578 99.1389H456.787V98.6649C456.787 96.4433 456.122 94.7376 454.794 93.5478C453.465 92.358 451.491 91.7631 448.871 91.7631C447.083 91.7625 445.306 92.0436 443.606 92.5962C442.013 93.0808 440.529 93.8678 439.233 94.9142L436.321 89.5008C438.123 88.1644 440.159 87.1761 442.324 86.5867C444.742 85.8998 447.245 85.5583 449.759 85.5724C454.446 85.5724 458.028 86.6936 460.504 88.9361ZM453.724 111.426C455.143 110.606 456.227 109.311 456.787 107.77V104.078H449.121C444.841 104.078 442.7 105.487 442.7 108.303C442.681 108.929 442.818 109.551 443.097 110.112C443.377 110.672 443.791 111.155 444.303 111.517C445.376 112.312 446.86 112.706 448.766 112.706C450.504 112.737 452.218 112.294 453.724 111.426Z" fill="black"/>
<path d="M502.879 85.9302L488.012 120.258C486.618 123.709 484.933 126.138 482.956 127.547C480.98 128.955 478.585 129.663 475.772 129.67C474.174 129.668 472.586 129.406 471.072 128.896C469.666 128.461 468.369 127.731 467.267 126.755L470.239 121.279C470.974 121.969 471.832 122.514 472.768 122.886C473.7 123.276 474.699 123.478 475.709 123.482C476.874 123.528 478.02 123.171 478.953 122.471C479.803 121.795 480.586 120.665 481.301 119.08L481.838 117.828L467.978 85.9372H475.709L485.702 109.438L495.754 85.9372L502.879 85.9302Z" fill="black"/>
<path d="M153.809 52.9306C152.18 52.9424 150.571 52.566 149.116 51.8326C147.67 51.1058 146.379 50.1028 145.318 48.8802C144.241 47.6442 143.39 46.2283 142.803 44.6973C142.204 43.1669 141.897 41.5375 141.9 39.8939C141.889 36.5671 143.099 33.3518 145.301 30.8588C146.355 29.6701 147.64 28.7082 149.078 28.0319C150.559 27.3422 152.175 26.9921 153.809 27.0071C156.281 27.0071 158.32 27.5229 159.927 28.5547C161.489 29.5365 162.747 30.9327 163.561 32.5878L161.077 34.3306C160.421 32.9388 159.351 31.7836 158.015 31.0227C156.705 30.2994 155.231 29.9272 153.736 29.9421C152.511 29.9266 151.3 30.2114 150.21 30.7717C149.156 31.3211 148.23 32.0873 147.492 33.02C146.724 33.9819 146.134 35.074 145.75 36.2443C145.355 37.4515 145.155 38.7142 145.158 39.9845C145.149 41.3035 145.375 42.6135 145.823 43.8537C146.245 45.0313 146.886 46.1183 147.712 47.0571C148.504 47.9663 149.471 48.7071 150.555 49.2357C151.64 49.7654 152.832 50.0362 154.039 50.027C155.507 50.0286 156.948 49.6439 158.22 48.9116C159.687 48.0376 160.96 46.8742 161.962 45.492V48.8418C159.67 51.5654 156.952 52.9283 153.809 52.9306ZM161.582 42.4559H156.077V40.0159H164.314V52.7563H161.582V42.4559Z" fill="black"/>
<path d="M186.585 49.8707V52.7499H169.244V27.1888H186.261V30.0681H172.481V38.3433H184.463V41.0412H172.481V49.8602L186.585 49.8707Z" fill="black"/>
<path d="M209.431 30.0751H200.616V52.7499H197.386V30.0751H188.571V27.1888H209.438L209.431 30.0751Z" fill="black"/>
<path d="M221.123 52.7499V27.1888H224.36V52.7429L221.123 52.7499Z" fill="black"/>
<path d="M233.715 33.1704V52.7499H230.486V27.1888H233.217L248.833 47.1657V27.2307H252.07V52.7499H249.119L233.715 33.1704Z" fill="black"/>
<path d="M277.644 52.9306C275.956 52.9507 274.287 52.5809 272.766 51.85C271.315 51.1394 270.024 50.1408 268.972 48.915C266.831 46.4263 265.651 43.2537 265.644 39.9705C265.638 38.3005 265.949 36.6444 266.561 35.0904C267.157 33.5689 268.022 32.1673 269.115 30.9529C270.191 29.7512 271.494 28.7729 272.947 28.0736C274.441 27.3649 276.078 27.0072 277.731 27.0279C279.422 27.0075 281.094 27.3898 282.609 28.1433C284.055 28.8763 285.339 29.8921 286.386 31.1306C287.434 32.3733 288.26 33.7886 288.825 35.3135C289.695 37.6181 289.915 40.1177 289.462 42.5392C289.008 44.9607 287.898 47.2109 286.253 49.0439C285.179 50.2437 283.876 51.2166 282.421 51.9057C280.925 52.6017 279.293 52.952 277.644 52.9306ZM268.899 39.9705C268.897 41.2507 269.11 42.5221 269.529 43.7317C269.927 44.9034 270.53 45.9951 271.31 46.956C272.069 47.8829 273.012 48.6425 274.08 49.1869C275.196 49.7462 276.43 50.0295 277.679 50.013C278.957 50.0351 280.22 49.738 281.355 49.1485C282.422 48.58 283.359 47.7953 284.107 46.8444C284.873 45.8744 285.463 44.7771 285.849 43.6027C286.239 42.4301 286.439 41.2027 286.441 39.967C286.445 38.6935 286.232 37.4286 285.811 36.2268C285.409 35.0533 284.8 33.9613 284.013 33.0025C283.25 32.0715 282.301 31.3115 281.226 30.7716C280.125 30.2241 278.911 29.9468 277.682 29.9629C276.409 29.9419 275.15 30.2315 274.013 30.8065C272.938 31.3686 271.995 32.1555 271.25 33.114C270.493 34.0818 269.904 35.1708 269.508 36.3349C269.106 37.5047 268.9 38.7332 268.899 39.9705Z" fill="black"/>
<path d="M297.431 33.1704V52.7499H294.19V27.1888H296.925L312.541 47.1657V27.2307H315.778V52.7499H312.827L297.431 33.1704Z" fill="black"/>
</svg>
