<svg
          xmlns="http://www.w3.org/2000/svg"
          width="178"
          height="52"
          viewBox="0 0 178 52"
          fill="none"
        >
          <g clip-path="url(#clip0_88_774)">
            <path
              d="M171.407 51.9167H6.59259C2.96831 51.9167 0 48.9947 0 45.4271V6.48958C0 2.92194 2.96831 0 6.59259 0H171.407C175.032 0 178 2.92194 178 6.48958V45.4271C178 48.9947 175.032 51.9167 171.407 51.9167Z"
              fill="black"
            />
            <path
              d="M13.7587 9.78455C13.3714 10.1836 13.1472 10.805 13.1472 11.6097V40.3132C13.1472 41.1179 13.3714 41.7392 13.7587 42.1382L13.8543 42.2261L30.194 26.148V25.7684L13.8543 9.69043L13.7587 9.78455Z"
              fill="url(#paint0_linear_88_774)"
            />
            <path
              d="M35.6347 31.5099L30.1941 26.1479V25.7683L35.6413 20.4062L35.7632 20.476L42.2141 24.0891C44.0551 25.1144 44.0551 26.8017 42.2141 27.8336L35.7632 31.4402L35.6347 31.5099Z"
              fill="url(#paint1_linear_88_774)"
            />
            <path
              d="M35.7632 31.4406L30.1941 25.9585L13.7588 42.1385C14.3703 42.7715 15.3674 42.8477 16.5013 42.2147L35.7632 31.4406Z"
              fill="url(#paint2_linear_88_774)"
            />
            <path
              d="M35.7632 20.4765L16.5013 9.70215C15.3674 9.07592 14.3703 9.15216 13.7588 9.78488L30.1941 25.9586L35.7632 20.4765Z"
              fill="url(#paint3_linear_88_774)"
            />
            <path
              d="M62.5207 13.2955C62.5207 14.3792 62.1911 15.2472 61.5417 15.8946C60.7951 16.6619 59.8227 17.0481 58.6311 17.0481C57.4922 17.0481 56.5198 16.6555 55.7221 15.8816C54.9228 15.0964 54.5239 14.1326 54.5239 12.9791C54.5239 11.8256 54.9228 10.8619 55.7221 10.0831C56.5198 9.30279 57.4922 8.91016 58.6311 8.91016C59.1981 8.91016 59.7387 9.02534 60.2545 9.23949C60.7688 9.45528 61.1874 9.74731 61.4906 10.1075L60.8017 10.7921C60.2727 10.1773 59.5524 9.87388 58.6311 9.87388C57.8004 9.87388 57.0802 10.1594 56.4687 10.7354C55.8639 11.3129 55.5606 12.0608 55.5606 12.9791C55.5606 13.8974 55.8639 14.6518 56.4687 15.2294C57.0802 15.7988 57.8004 16.0909 58.6311 16.0909C59.5129 16.0909 60.2545 15.7988 60.8396 15.2229C61.2253 14.8416 61.4445 14.316 61.5022 13.6443H58.6311V12.7066H62.4614C62.5076 12.9094 62.5207 13.1057 62.5207 13.2955Z"
              fill="white"
              stroke="white"
              stroke-width="0.16"
              stroke-miterlimit="10"
            />
            <path
              d="M68.5977 10.0444H64.9998V12.5105H68.2433V13.4482H64.9998V15.9143H68.5977V16.8698H63.9812V9.08887H68.5977V10.0444Z"
              fill="white"
              stroke="white"
              stroke-width="0.16"
              stroke-miterlimit="10"
            />
            <path
              d="M72.8861 16.8698H71.8675V10.0444H69.6606V9.08887H75.0946V10.0444H72.8861V16.8698Z"
              fill="white"
              stroke="white"
              stroke-width="0.16"
              stroke-miterlimit="10"
            />
            <path
              d="M79.0271 16.8698V9.08887H80.044V16.8698H79.0271Z"
              fill="white"
              stroke="white"
              stroke-width="0.16"
              stroke-miterlimit="10"
            />
            <path
              d="M84.5516 16.8698H83.5413V10.0444H81.3262V9.08887H86.7667V10.0444H84.5516V16.8698Z"
              fill="white"
              stroke="white"
              stroke-width="0.16"
              stroke-miterlimit="10"
            />
            <path
              d="M97.0546 15.8686C96.275 16.6555 95.3092 17.0481 94.1572 17.0481C92.9985 17.0481 92.0327 16.6555 91.2531 15.8686C90.4752 15.0834 90.0879 14.1197 90.0879 12.9791C90.0879 11.8386 90.4752 10.8749 91.2531 10.0896C92.0327 9.30276 92.9985 8.91016 94.1572 8.91016C95.3026 8.91016 96.2685 9.30276 97.048 10.0961C97.8325 10.8878 98.2199 11.8451 98.2199 12.9791C98.2199 14.1197 97.8325 15.0834 97.0546 15.8686ZM92.0063 15.2164C92.5931 15.7988 93.3067 16.0909 94.1572 16.0909C95.001 16.0909 95.7213 15.7988 96.3014 15.2164C96.8865 14.634 97.1832 13.886 97.1832 12.9791C97.1832 12.0722 96.8865 11.3243 96.3014 10.7418C95.7213 10.1594 95.001 9.86735 94.1572 9.86735C93.3067 9.86735 92.5931 10.1594 92.0063 10.7418C91.4212 11.3243 91.1246 12.0722 91.1246 12.9791C91.1246 13.886 91.4212 14.634 92.0063 15.2164Z"
              fill="white"
              stroke="white"
              stroke-width="0.16"
              stroke-miterlimit="10"
            />
            <path
              d="M99.6487 16.8698V9.08887H100.885L104.728 15.1404H104.773L104.728 13.6445V9.08887H105.745V16.8698H104.684L100.659 10.5198H100.614L100.659 12.0221V16.8698H99.6487Z"
              fill="white"
              stroke="white"
              stroke-width="0.16"
              stroke-miterlimit="10"
            />
            <path
              d="M89.8373 28.2328C86.7405 28.2328 84.2105 30.5529 84.2105 33.7537C84.2105 36.9289 86.7405 39.2732 89.8373 39.2732C92.9408 39.2732 95.4707 36.9289 95.4707 33.7537C95.4707 30.5529 92.9408 28.2328 89.8373 28.2328ZM89.8373 37.0993C88.1381 37.0993 86.6762 35.7185 86.6762 33.7537C86.6762 31.7631 88.1381 30.4068 89.8373 30.4068C91.5366 30.4068 93.0051 31.7631 93.0051 33.7537C93.0051 35.7185 91.5366 37.0993 89.8373 37.0993ZM77.5603 28.2328C74.4568 28.2328 71.9335 30.5529 71.9335 33.7537C71.9335 36.9289 74.4568 39.2732 77.5603 39.2732C80.6621 39.2732 83.187 36.9289 83.187 33.7537C83.187 30.5529 80.6621 28.2328 77.5603 28.2328ZM77.5603 37.0993C75.8594 37.0993 74.3925 35.7185 74.3925 33.7537C74.3925 31.7631 75.8594 30.4068 77.5603 30.4068C79.2595 30.4068 80.7214 31.7631 80.7214 33.7537C80.7214 35.7185 79.2595 37.0993 77.5603 37.0993ZM62.9511 29.925V32.271H68.6421C68.4757 33.582 68.0307 34.5454 67.3483 35.2173C66.5177 36.0284 65.2239 36.9289 62.9511 36.9289C59.4488 36.9289 56.7062 34.1464 56.7062 30.6988C56.7062 27.2513 59.4488 24.4689 62.9511 24.4689C64.8448 24.4689 66.2227 25.1973 67.2396 26.1416L68.919 24.4883C67.4967 23.1515 65.6046 22.1245 62.9511 22.1245C58.1484 22.1245 54.1121 25.9712 54.1121 30.6988C54.1121 35.4267 58.1484 39.2732 62.9511 39.2732C65.5469 39.2732 67.4967 38.4362 69.0294 36.8657C70.6001 35.3195 71.0896 33.1454 71.0896 31.39C71.0896 30.8449 71.0435 30.3436 70.9611 29.925H62.9511ZM122.69 31.7437C122.227 30.5091 120.798 28.2328 117.887 28.2328C115.003 28.2328 112.602 30.4701 112.602 33.7537C112.602 36.8461 114.978 39.2732 118.164 39.2732C120.74 39.2732 122.227 37.727 122.838 36.8267L120.926 35.5724C120.289 36.491 119.42 37.0993 118.164 37.0993C116.916 37.0993 116.021 36.5362 115.448 35.4267L122.949 32.3715L122.69 31.7437ZM115.042 33.582C114.978 31.4533 116.722 30.363 117.971 30.363C118.95 30.363 119.781 30.8449 120.058 31.5344L115.042 33.582ZM108.946 38.9374H111.412V22.7134H108.946V38.9374ZM104.908 29.4626H104.826C104.272 28.8169 103.215 28.2328 101.877 28.2328C99.0686 28.2328 96.5008 30.6599 96.5008 33.7716C96.5008 36.8657 99.0686 39.2732 101.877 39.2732C103.215 39.2732 104.272 38.6844 104.826 38.0192H104.908V38.8109C104.908 40.9215 103.763 42.0557 101.915 42.0557C100.409 42.0557 99.474 40.9847 99.0884 40.0845L96.9441 40.9654C97.5622 42.4288 99.1988 44.2295 101.915 44.2295C104.806 44.2295 107.245 42.5552 107.245 38.4814V28.5687H104.908V29.4626ZM102.088 37.0993C100.389 37.0993 98.9664 35.6992 98.9664 33.7716C98.9664 31.8264 100.389 30.4068 102.088 30.4068C103.763 30.4068 105.083 31.8264 105.083 33.7716C105.083 35.6992 103.763 37.0993 102.088 37.0993ZM134.233 22.7134H128.336V38.9374H130.795V32.7901H134.233C136.964 32.7901 139.643 30.8449 139.643 27.751C139.643 24.6587 136.958 22.7134 134.233 22.7134ZM134.298 30.5334H130.795V24.9702H134.298C136.134 24.9702 137.182 26.4709 137.182 27.751C137.182 29.0067 136.134 30.5334 134.298 30.5334ZM149.499 28.202C147.722 28.202 145.874 28.9743 145.115 30.6859L147.297 31.5863C147.766 30.6859 148.63 30.3938 149.543 30.3938C150.819 30.3938 152.113 31.1483 152.132 32.4803V32.6506C151.687 32.3975 150.735 32.0227 149.563 32.0227C147.213 32.0227 144.818 33.2964 144.818 35.6733C144.818 37.8471 146.743 39.2472 148.907 39.2472C150.562 39.2472 151.475 38.5124 152.048 37.6574H152.132V38.9114H154.507V32.6879C154.507 29.8114 152.325 28.202 149.499 28.202ZM149.202 37.0927C148.398 37.0927 147.277 36.7 147.277 35.7185C147.277 34.4629 148.675 33.981 149.884 33.981C150.967 33.981 151.475 34.2163 152.132 34.5261C151.94 36.0284 150.626 37.0927 149.202 37.0927ZM163.16 28.5573L160.334 35.5904H160.25L157.327 28.5573H154.675L159.066 38.3859L156.561 43.8548H159.13L165.896 28.5573H163.16ZM140.994 38.9374H143.46V22.7134H140.994V38.9374Z"
              fill="white"
            />
          </g>
          <defs>
            <linearGradient
              id="paint0_linear_88_774"
              x1="28.7432"
              y1="40.612"
              x2="6.96379"
              y2="18.4869"
              gradientUnits="userSpaceOnUse"
            >
              <stop stop-color="#00A0FF" />
              <stop offset="0.0066" stop-color="#00A1FF" />
              <stop offset="0.2601" stop-color="#00BEFF" />
              <stop offset="0.5122" stop-color="#00D2FF" />
              <stop offset="0.7604" stop-color="#00DFFF" />
              <stop offset="1" stop-color="#00E3FF" />
            </linearGradient>
            <linearGradient
              id="paint1_linear_88_774"
              x1="44.6111"
              y1="25.9563"
              x2="12.7072"
              y2="25.9563"
              gradientUnits="userSpaceOnUse"
            >
              <stop stop-color="#FFE000" />
              <stop offset="0.4087" stop-color="#FFBD00" />
              <stop offset="0.7754" stop-color="#FFA500" />
              <stop offset="1" stop-color="#FF9C00" />
            </linearGradient>
            <linearGradient
              id="paint2_linear_88_774"
              x1="32.7349"
              y1="22.9783"
              x2="3.20021"
              y2="-7.02517"
              gradientUnits="userSpaceOnUse"
            >
              <stop stop-color="#FF3A44" />
              <stop offset="1" stop-color="#C31162" />
            </linearGradient>
            <linearGradient
              id="paint3_linear_88_774"
              x1="9.62167"
              y1="51.6883"
              x2="22.8102"
              y2="38.2905"
              gradientUnits="userSpaceOnUse"
            >
              <stop stop-color="#32A071" />
              <stop offset="0.0685" stop-color="#2DA771" />
              <stop offset="0.4762" stop-color="#15CF74" />
              <stop offset="0.8009" stop-color="#06E775" />
              <stop offset="1" stop-color="#00F076" />
            </linearGradient>
            <clipPath id="clip0_88_774">
              <rect width="178" height="51.9167" fill="white" />
            </clipPath>
          </defs>
        </svg>