<svg width="90" height="87" viewBox="0 0 90 87" fill="none" xmlns="http://www.w3.org/2000/svg">
<g clip-path="url(#clip0_214_569)">
<path d="M64 12.2059C64.3359 12.3954 64.715 12.4936 65.1 12.4909C65.4903 12.4925 65.8742 12.3911 66.2134 12.197C66.5526 12.0028 66.8353 11.7226 67.0334 11.3843L71.6667 3.3533C71.9606 2.83526 72.038 2.22097 71.8817 1.64557C71.7254 1.07017 71.3483 0.580784 70.8333 0.28508C70.3184 -0.0106248 69.7077 -0.0884279 69.1358 0.0687861C68.5638 0.226 68.0773 0.605353 67.7833 1.12339L63.1833 9.13765C62.8874 9.65351 62.8071 10.2665 62.9603 10.8418C63.1134 11.4172 63.4874 11.9078 64 12.2059Z" fill="black"/>
<path d="M87.7667 31.4703H78.5667C77.9744 31.4703 77.4063 31.707 76.9875 32.1283C76.5686 32.5496 76.3333 33.1211 76.3333 33.717C76.3333 34.3128 76.5686 34.8843 76.9875 35.3056C77.4063 35.7269 77.9744 35.9636 78.5667 35.9636H87.7667C88.359 35.9636 88.9271 35.7269 89.3459 35.3056C89.7647 34.8843 90 34.3128 90 33.717C90 33.1211 89.7647 32.5496 89.3459 32.1283C88.9271 31.707 88.359 31.4703 87.7667 31.4703Z" fill="black"/>
<path d="M84.6833 14.5364C84.3872 14.0297 83.9056 13.6599 83.3416 13.5064C82.7777 13.3528 82.1764 13.4276 81.6667 13.7148L73.4667 18.4429C73.2051 18.5863 72.9746 18.781 72.7889 19.0154C72.6032 19.2497 72.4661 19.5191 72.3854 19.8077C72.3048 20.0962 72.2824 20.3981 72.3195 20.6954C72.3566 20.9928 72.4525 21.2797 72.6015 21.5393C72.7505 21.7988 72.9497 22.0257 73.1872 22.2067C73.4247 22.3876 73.6958 22.5189 73.9846 22.5928C74.2733 22.6668 74.5738 22.6818 74.8684 22.6372C75.163 22.5925 75.4458 22.4889 75.7 22.3327L83.8667 17.5878C84.3748 17.2898 84.7455 16.8023 84.8984 16.2309C85.0513 15.6596 84.974 15.0507 84.6833 14.5364Z" fill="black"/>
<path d="M66.75 37.6235C68.9418 36.1395 70.5231 33.9052 71.2 31.3362C71.7431 29.2969 71.6914 27.1435 71.0509 25.133C70.4104 23.1225 69.2082 21.34 67.5879 19.9982C65.9677 18.6564 63.9978 17.8121 61.9134 17.566C59.8291 17.32 57.7184 17.6826 55.8333 18.6106L49.7333 7.98079C49.1066 6.88332 48.1987 5.97506 47.1043 5.3507C46.0099 4.72634 44.769 4.40873 43.511 4.431C42.2531 4.45326 41.0241 4.81457 39.9521 5.47727C38.8802 6.13996 38.0046 7.07978 37.4167 8.19875C36.5667 9.87537 35.75 11.552 34.9 13.2286C31.45 20.5052 27.5167 28.7542 19.0333 33.6834L8.13334 40.0714C5.02807 41.8758 2.60179 44.661 1.23111 47.9946C-0.139574 51.3282 -0.37799 55.0237 0.552869 58.5076C1.48373 61.9915 3.53179 65.0688 6.37916 67.2618C9.22652 69.4549 12.7139 70.6411 16.3 70.6362C18.3969 70.6313 20.4734 70.2215 22.4167 69.429L30 82.7079C30.7471 84.013 31.823 85.097 33.1192 85.8505C34.4154 86.6041 35.8862 87.0006 37.3833 87.0001C39.2556 86.992 41.0735 86.366 42.5578 85.218C44.0422 84.0701 45.111 82.4637 45.6 80.6457C45.8911 79.5584 45.9658 78.4241 45.8199 77.3077C45.6741 76.1914 45.3105 75.115 44.75 74.1404L37.25 61.0627C45.15 57.2903 53.4333 57.9274 60.8167 58.5142C62.7833 58.6651 64.6333 58.7993 66.4667 58.8663C67.7231 58.9134 68.9691 58.6208 70.0749 58.019C71.1808 57.4172 72.1061 56.5282 72.7544 55.4445C73.4028 54.3609 73.7506 53.1222 73.7615 51.8575C73.7725 50.5927 73.4462 49.3481 72.8167 48.2533L66.75 37.6235ZM62.3167 22.1986C63.4938 22.5132 64.5587 23.1559 65.3887 24.0526C66.2187 24.9493 66.7801 26.0636 67.0083 27.2672C67.2364 28.4708 67.122 29.7147 66.6783 30.8558C66.2345 31.9968 65.4795 32.9886 64.5 33.717L58.0667 22.5003C59.4097 21.9236 60.9064 21.8173 62.3167 22.1986ZM22.1833 64.5668C20.4034 65.6375 18.3737 66.2159 16.3 66.2435C14.4838 66.2502 12.6906 65.835 11.06 65.0304C9.42943 64.2258 8.00547 63.0534 6.89905 61.6045C5.79263 60.1556 5.03361 58.4694 4.68109 56.6771C4.32858 54.8848 4.39209 53.0348 4.86667 51.2712C5.25897 49.759 5.94755 48.3408 6.89202 47.0999C7.83648 45.859 9.01781 44.8204 10.3667 44.045L19.3333 38.8307L31.1667 59.4196L22.1833 64.5668ZM40.9333 76.3032C41.4837 77.2437 41.6401 78.3656 41.3681 79.422C41.0962 80.4785 40.4182 81.383 39.4833 81.9367C38.5485 82.4903 37.4332 82.6476 36.383 82.3741C35.3328 82.1005 34.4337 81.4185 33.8833 80.478L26.35 67.3333L33.3333 63.2255L40.9333 76.3032ZM68.9667 53.1323C68.738 53.5405 68.399 53.8753 67.989 54.0979C67.579 54.3204 67.1148 54.4216 66.65 54.3897C64.9833 54.3897 63.1167 54.1885 61.2 54.0376C53.15 53.4173 44.0833 52.7131 35.0667 57.1729L23.15 36.4331C31.4833 30.7996 35.4333 22.5674 38.9333 15.2238C39.75 13.5472 40.6 11.8706 41.35 10.2945C41.558 9.87884 41.8773 9.52988 42.2719 9.28696C42.6665 9.04405 43.1207 8.91685 43.5833 8.9197C44.0349 8.9101 44.4804 9.02542 44.8713 9.25307C45.2622 9.48073 45.5834 9.81197 45.8 10.2107L68.9167 50.4497C69.1797 50.845 69.3243 51.308 69.3332 51.7836C69.342 52.2592 69.2148 52.7273 68.9667 53.1323Z" fill="black"/>
</g>
<defs>
<clipPath id="clip0_214_569">
<rect width="90" height="87" fill="white"/>
</clipPath>
</defs>
</svg>
