<svg width="90" height="86" viewBox="0 0 90 86" fill="none" xmlns="http://www.w3.org/2000/svg">
<g clip-path="url(#clip0_214_519)">
<path d="M72.7833 54.8087C72.136 55.8752 71.2096 56.7469 70.103 57.3307C68.9963 57.9145 67.751 58.1885 66.5 58.1234C64.6667 58.1234 62.8167 57.9245 60.85 57.7754C53.4667 57.1953 45.1833 56.5655 37.2833 60.2945L44.7833 73.2219C45.5265 74.5085 45.9174 75.9664 45.9171 77.4502C45.9167 78.9339 45.5252 80.3916 44.7814 81.6779C44.0377 82.9642 42.9678 84.0341 41.6785 84.7809C40.3891 85.5276 38.9254 85.9251 37.4333 85.9338C35.9343 85.9498 34.4576 85.572 33.1524 84.8387C31.8472 84.1053 30.7597 83.0424 30 81.7572L22.3833 68.631C18.746 70.095 14.6994 70.2035 10.9879 68.9368C7.27647 67.67 4.14987 65.1131 2.18333 61.7364C0.0345631 58.0149 -0.545783 53.5989 0.56907 49.4532C1.68392 45.3075 4.40336 41.7691 8.13333 39.6108L13.0167 36.8098H67.2667C67.1015 36.9461 66.9291 37.0734 66.75 37.191L72.85 47.6987C73.486 48.7792 73.8157 50.0109 73.8039 51.2628C73.7922 52.5148 73.4395 53.7402 72.7833 54.8087Z" fill="#FE983D"/>
<path d="M64 12.0656C64.5123 12.3503 65.1161 12.4248 65.6828 12.2731C66.2495 12.1213 66.7341 11.7555 67.0334 11.2535L71.6667 3.31476C71.9606 2.80267 72.038 2.19544 71.8817 1.62665C71.7254 1.05787 71.3483 0.574107 70.8333 0.281801C70.3184 -0.010504 69.7077 -0.0874128 69.1358 0.0679941C68.5638 0.223401 68.0773 0.598393 67.7833 1.11048L63.1833 9.03262C62.8874 9.54255 62.8071 10.1485 62.9603 10.7172C63.1134 11.286 63.4874 11.7709 64 12.0656Z" fill="black"/>
<path d="M87.7667 31.1086H78.5667C77.9744 31.1086 77.4063 31.3425 76.9875 31.759C76.5686 32.1755 76.3333 32.7404 76.3333 33.3294C76.3333 33.9184 76.5686 34.4833 76.9875 34.8998C77.4063 35.3163 77.9744 35.5503 78.5667 35.5503H87.7667C88.359 35.5503 88.9271 35.3163 89.3459 34.8998C89.7647 34.4833 90 33.9184 90 33.3294C90 32.7404 89.7647 32.1755 89.3459 31.759C88.9271 31.3425 88.359 31.1086 87.7667 31.1086Z" fill="black"/>
<path d="M84.6833 14.3693C84.3872 13.8685 83.9056 13.5029 83.3416 13.3511C82.7777 13.1993 82.1764 13.2733 81.6667 13.5572L73.4667 18.2309C73.2051 18.3727 72.9746 18.5651 72.7889 18.7968C72.6032 19.0285 72.4661 19.2948 72.3854 19.58C72.3048 19.8652 72.2824 20.1636 72.3195 20.4576C72.3566 20.7516 72.4525 21.0352 72.6015 21.2917C72.7505 21.5483 72.9497 21.7726 73.1872 21.9514C73.4247 22.1303 73.6958 22.2601 73.9846 22.3332C74.2733 22.4063 74.5738 22.4212 74.8684 22.377C75.163 22.3328 75.4458 22.2305 75.7 22.076L83.8667 17.3857C84.1199 17.2414 84.342 17.0488 84.5202 16.8189C84.6984 16.589 84.8292 16.3264 84.9051 16.0462C84.9809 15.7659 85.0004 15.4735 84.9624 15.1858C84.9243 14.898 84.8295 14.6205 84.6833 14.3693Z" fill="black"/>
<path d="M72.85 47.6987L66.75 37.191C66.929 37.0734 67.1015 36.9461 67.2667 36.8098C69.4262 35.1739 70.8965 32.7975 71.3914 30.1432C71.8862 27.4888 71.3703 24.7462 69.944 22.4492C68.5178 20.1522 66.2831 18.465 63.6749 17.7159C61.0667 16.9669 58.2715 17.2095 55.8333 18.3967L49.7333 7.88905C49.1066 6.8042 48.1987 5.90638 47.1043 5.2892C46.0099 4.67201 44.769 4.35806 43.511 4.38006C42.2531 4.40207 41.0241 4.75923 39.9521 5.41431C38.8802 6.06939 38.0046 6.9984 37.4167 8.10451C36.5667 9.76186 35.75 11.4192 34.9 13.0766C31.45 20.2695 27.5167 28.4236 19.0333 33.2963L13.0167 36.8098L8.13334 39.6108C5.02807 41.3945 2.60179 44.1476 1.23111 47.4429C-0.139574 50.7382 -0.37799 54.3913 0.552869 57.8351C1.48373 61.2789 3.53179 64.3209 6.37916 66.4887C9.22652 68.6566 12.7139 69.8291 16.3 69.8243C18.3969 69.8195 20.4734 69.4144 22.4167 68.631L30 81.7572C30.7485 83.0498 31.827 84.1229 33.1264 84.8679C34.4258 85.6129 35.9001 86.0035 37.4 86.0001C38.894 85.9964 40.3608 85.602 41.6531 84.8565C42.9454 84.1109 44.0177 83.0404 44.7624 81.7524C45.5071 80.4644 45.898 79.0043 45.8958 77.5186C45.8937 76.033 45.4985 74.574 44.75 73.2882L37.25 60.3608C45.15 56.6318 53.4333 57.2616 60.8167 57.8416C62.7833 57.9908 64.6333 58.1234 66.4667 58.1897C67.7231 58.2362 68.9691 57.947 70.0749 57.3521C71.1808 56.7572 72.1061 55.8784 72.7544 54.8073C73.4028 53.7361 73.7506 52.5116 73.7615 51.2614C73.7725 50.0112 73.4462 48.7809 72.8167 47.6987H72.85ZM62.3167 21.9434C63.495 22.2523 64.5616 22.886 65.3936 23.7714C66.2255 24.6569 66.7889 25.7581 67.0188 26.9481C67.2488 28.1382 67.1359 29.3686 66.6932 30.4976C66.2505 31.6266 65.496 32.6083 64.5167 33.3294L58.0667 22.2417C59.4097 21.6716 60.9064 21.5665 62.3167 21.9434ZM22.1833 63.8247C20.4034 64.8831 18.3737 65.4548 16.3 65.482C14.2193 65.487 12.1742 64.9455 10.3714 63.9124C8.56868 62.8793 7.07221 61.3911 6.03334 59.5984C4.47343 56.8957 4.0536 53.6887 4.86571 50.6789C5.67781 47.6692 7.65573 45.1018 10.3667 43.5387L19.3333 38.3843L31.1667 58.7366L22.1833 63.8247ZM40.9333 75.4261C41.4837 76.3558 41.6401 77.4648 41.3681 78.5091C41.0962 79.5535 40.4182 80.4476 39.4833 80.9949C38.5485 81.5421 37.4332 81.6976 36.383 81.4272C35.3328 81.1568 34.4337 80.4826 33.8833 79.553L26.35 66.5593L33.3333 62.4988L40.9333 75.4261ZM68.9667 52.5215C68.7423 52.9252 68.4066 53.2566 67.9991 53.4768C67.5916 53.697 67.1293 53.7969 66.6667 53.7646C65 53.7646 63.1167 53.5657 61.2 53.4165C53.15 52.8033 44.0833 52.1072 35.0667 56.5158L23.6167 36.8098L23.15 36.0143C31.4833 30.4456 35.4333 22.308 38.9333 15.0488C39.75 13.3915 40.6 11.7341 41.35 10.1762C41.558 9.76529 41.8773 9.42034 42.2719 9.18021C42.6665 8.94009 43.1207 8.81435 43.5833 8.81717C44.0349 8.80769 44.4804 8.92168 44.8713 9.14672C45.2622 9.37175 45.5834 9.69919 45.8 10.0933L61.3 36.8098L68.9167 49.9195C69.1696 50.3049 69.3085 50.7533 69.3173 51.2134C69.3262 51.6735 69.2047 52.1268 68.9667 52.5215Z" fill="black"/>
</g>
<defs>
<clipPath id="clip0_214_519">
<rect width="90" height="86" fill="white"/>
</clipPath>
</defs>
</svg>
