<svg width="174" height="174" viewBox="0 0 174 174" fill="none" xmlns="http://www.w3.org/2000/svg">
<g clip-path="url(#clip0_214_716)">
<path d="M87 174C38.9512 174 0 135.049 0 87C0 38.9512 38.9512 0 87 0C135.049 0 174 38.9512 174 87C174 135.049 135.049 174 87 174Z" fill="#FED056"/>
<path d="M87 157.891C47.8477 157.891 16.1086 126.152 16.1086 87.0001C16.1086 47.8478 47.8477 16.1086 87 16.1086C126.152 16.1086 157.891 47.8478 157.891 87.0001C157.891 126.152 126.152 157.891 87 157.891Z" fill="#FEB635"/>
<path d="M16.1086 87C16.1086 126.082 47.918 157.891 87 157.891C99.7441 157.891 111.673 154.527 122.004 148.614C112.488 153.371 101.749 156.056 90.3984 156.056C51.3164 156.056 19.507 124.247 19.507 85.1648C19.507 58.827 33.9844 35.7855 55.3945 23.5852C32.1152 35.2078 16.1086 59.2348 16.1086 87ZM82.1742 19.4391C68.2066 19.4391 55.1906 23.5172 44.2477 30.484C56.1422 21.5121 70.9594 16.1426 87 16.1426C126.082 16.1426 157.891 47.918 157.891 87.034C157.891 112.25 144.638 134.476 124.723 146.982C141.919 134.034 153.066 113.474 153.066 90.3305C153.066 51.2484 121.256 19.4391 82.1742 19.4391Z" fill="#FC9924"/>
<path d="M80.2371 57.9094L75.0035 73.984C74.3578 75.9551 72.4887 77.3145 70.4156 77.3145H53.5254C48.8695 77.3145 46.8984 83.2957 50.7047 86.0484L64.3324 95.9379C66.0316 97.1613 66.7453 99.3363 66.0656 101.341L60.832 117.416C59.3707 121.868 64.5023 125.572 68.2406 122.82L81.9023 112.896C83.6015 111.673 85.8785 111.673 87.5777 112.896L101.239 122.82C105.046 125.572 110.109 121.868 108.648 117.416L103.414 101.341C102.769 99.3703 103.482 97.1613 105.148 95.9379L118.945 86.0145C122.752 83.2617 120.78 77.2805 116.125 77.2805H99.2344C97.1613 77.2805 95.2922 75.9211 94.6465 73.95L89.4129 57.8754C87.9855 53.4574 81.6644 53.4574 80.2371 57.9094Z" fill="#FC9924"/>
<path d="M84.5531 53.5934L79.3195 69.668C78.6738 71.6391 76.8047 72.9984 74.7316 72.9984H57.8414C53.1856 72.9984 51.2145 78.9797 55.0207 81.7324L68.6824 91.6559C70.3817 92.8793 71.0953 95.0543 70.4156 97.0594L65.182 113.134C63.7207 117.586 68.8524 121.29 72.5906 118.537L86.2523 108.614C87.9516 107.391 90.2285 107.391 91.9277 108.614L105.691 118.537C109.498 121.29 114.561 117.586 113.1 113.134L107.866 97.0594C107.221 95.0883 107.934 92.8793 109.6 91.6559L123.261 81.7324C127.068 78.9797 125.096 72.9984 120.441 72.9984H103.55C101.477 72.9984 99.6082 71.6391 98.9625 69.668L93.7289 53.5934C92.3356 49.1414 86.0145 49.1414 84.5531 53.5934Z" fill="#FED056"/>
</g>
<defs>
<clipPath id="clip0_214_716">
<rect width="174" height="174" fill="white" transform="matrix(-1 0 0 1 174 0)"/>
</clipPath>
</defs>
</svg>
