<svg width="160" height="160" viewBox="0 0 160 160" fill="none" xmlns="http://www.w3.org/2000/svg">
<g clip-path="url(#clip0_214_724)">
<path d="M80 160C124.183 160 160 124.183 160 80C160 35.8172 124.183 0 80 0C35.8172 0 0 35.8172 0 80C0 124.183 35.8172 160 80 160Z" fill="#1E1E1E" fill-opacity="0.5"/>
<path d="M122.472 68.4375L92.8406 44.6313C92.3383 44.2279 91.7322 43.9747 91.0922 43.9007C90.4522 43.8268 89.8044 43.9353 89.2233 44.2135C88.6422 44.4918 88.1516 44.9286 87.808 45.4736C87.4644 46.0186 87.2818 46.6495 87.2812 47.2938V57.7407C40.4937 60.4251 36.5062 97.4563 36.25 113.838C36.2444 114.338 36.4047 114.826 36.7058 115.226C37.0069 115.626 37.4319 115.914 37.9144 116.047C38.397 116.18 38.9099 116.149 39.3731 115.96C39.8363 115.77 40.2238 115.433 40.475 115C46.325 104.909 57.8625 84.7407 87.2812 84.9563V94.8969C87.2812 95.5414 87.4634 96.1728 87.8068 96.7183C88.1502 97.2637 88.6407 97.701 89.2219 97.9796C89.8031 98.2583 90.4511 98.367 91.0914 98.2932C91.7317 98.2194 92.3381 97.9661 92.8406 97.5626L122.472 73.75C122.867 73.4295 123.186 73.0247 123.406 72.5652C123.625 72.1056 123.738 71.6029 123.738 71.0938C123.738 70.5847 123.625 70.082 123.406 69.6224C123.186 69.1629 122.867 68.7581 122.472 68.4375Z" fill="white"/>
</g>
<defs>
<clipPath id="clip0_214_724">
<rect width="160" height="160" fill="white"/>
</clipPath>
</defs>
</svg>
