<svg width="36" height="36" viewBox="0 0 36 36" fill="none" xmlns="http://www.w3.org/2000/svg">
<path d="M18 0C8.0748 0 0 8.0748 0 18C0 27.9252 8.0748 36 18 36C27.9252 36 36 27.9252 36 18C36 8.0748 27.9252 0 18 0ZM18 32.7273C9.87927 32.7273 3.27273 26.1206 3.27273 18C3.27273 9.87938 9.87927 3.27273 18 3.27273C26.1207 3.27273 32.7273 9.87938 32.7273 18C32.7273 26.1206 26.1206 32.7273 18 32.7273Z" fill="white"/>
<path d="M24.7498 11.636L15.493 20.8927L11.2505 16.6501C10.6115 16.0111 9.57538 16.011 8.93632 16.6499C8.29727 17.289 8.29727 18.325 8.93632 18.9641L14.3359 24.3639C14.6428 24.6707 15.0589 24.8432 15.4929 24.8432H15.493C15.927 24.8432 16.3432 24.6707 16.65 24.364L27.064 13.9503C27.703 13.3112 27.703 12.2752 27.064 11.6361C26.4249 10.9971 25.3889 10.997 24.7498 11.636Z" fill="white"/>
</svg>
