<svg width="26" height="26" viewBox="0 0 26 26" fill="none" xmlns="http://www.w3.org/2000/svg">
<circle cx="13" cy="13" r="11" fill="#4CE166"/>
<path d="M13 0C5.8318 0 0 5.8318 0 13C0 20.1682 5.8318 26 13 26C20.1682 26 26 20.1682 26 13C26 5.8318 20.1682 0 13 0ZM13 23.6364C7.13503 23.6364 2.36364 18.8649 2.36364 13C2.36364 7.13511 7.13503 2.36364 13 2.36364C18.865 2.36364 23.6364 7.13511 23.6364 13C23.6364 18.8649 18.8649 23.6364 13 23.6364Z" fill="#4CE166"/>
<path d="M17.8744 8.40471L11.189 15.0901L8.1249 12.026C7.66344 11.5645 6.91512 11.5644 6.45358 12.0259C5.99204 12.4874 5.99204 13.2357 6.45358 13.6972L10.3533 17.597C10.5749 17.8187 10.8755 17.9432 11.1889 17.9432H11.189C11.5024 17.9432 11.803 17.8187 12.0246 17.5971L19.5458 10.0761C20.0073 9.61458 20.0073 8.86633 19.5458 8.40479C19.0842 7.94325 18.336 7.94317 17.8744 8.40471Z" fill="white"/>
</svg>
