<svg width="27" height="26" viewBox="0 0 27 26" fill="none" xmlns="http://www.w3.org/2000/svg">
<g clip-path="url(#clip0_35_695)">
<path d="M26.1586 12.7007C26.1586 19.7148 20.4102 25.4014 13.3192 25.4014H13.2952C6.21554 25.3882 0.480469 19.7054 0.480469 12.7007C0.480469 5.69594 6.21554 0.0125185 13.2952 0H13.3192C20.4102 0 26.1586 5.68467 26.1586 12.7007Z" fill="black"/>
<path d="M13.2952 0V25.4014C6.21554 25.3882 0.480469 19.7054 0.480469 12.7007C0.480469 5.69594 6.21554 0.0125185 13.2952 0Z" fill="#0C0C0C"/>
<path d="M20.3053 9.18485L20.2895 11.7868C19.777 11.7806 19.267 11.7129 18.771 11.5853C18.0056 11.3875 17.2838 11.0516 16.6418 10.5944C16.6418 10.8605 16.6456 11.2573 16.6456 11.7399C16.6456 12.3821 16.6456 12.747 16.6418 13.1344C16.6304 15.528 16.6905 15.9912 16.4779 16.9376C16.4337 17.1658 16.3732 17.3907 16.297 17.6104C15.8882 18.7371 14.9974 19.6397 14.0894 20.1198C13.836 20.253 13.57 20.3614 13.2953 20.4434C11.5793 20.9579 9.51728 20.506 8.45302 19.2541L8.44606 19.2466L8.43784 19.236C7.53367 18.1569 7.33625 16.4744 7.31727 16.0438C7.31727 15.9887 7.31348 15.9348 7.31348 15.9348C7.29955 15.3466 7.38509 14.7601 7.56657 14.1998C7.75006 13.6202 8.35432 12.4102 9.71152 11.6754C10.558 11.2243 11.5241 11.0415 12.4791 11.1515L12.4481 13.7848C12.3943 13.771 11.094 13.4662 10.2405 14.3425C9.46729 15.1362 9.51728 16.4149 10.0659 17.1391C10.095 17.1779 10.126 17.2155 10.1582 17.2505C10.4651 17.5892 10.8542 17.7162 11.1168 17.8051C11.465 17.9186 11.8304 17.9715 12.1969 17.9616C12.5895 17.9555 12.9713 17.8342 13.294 17.613C14.1862 17.0133 14.3064 15.9455 14.3108 15.8848C14.2999 12.4472 14.2895 9.00959 14.2798 5.57199V5.56886L15.9521 5.53945H15.9794L16.2217 5.53506C16.4004 6.17123 16.7032 6.76662 17.1132 7.28766C17.2424 7.45063 17.3819 7.60534 17.5308 7.75085C18.0936 8.2927 18.7696 8.70592 19.5113 8.96139H19.5163C19.7736 9.0544 20.0373 9.12907 20.3053 9.18485Z" fill="#FD2854"/>
<path d="M19.5489 10.3622H19.5439C18.6433 10.5049 17.7213 10.4357 16.8529 10.16C16.2464 9.96497 15.6772 9.67113 15.1685 9.29061C15.4735 11.1143 15.4735 12.9751 15.1685 14.7988C14.8072 16.9419 14.5807 18.2852 13.3716 19.1446C13.3463 19.1627 13.3203 19.1809 13.2944 19.1978C11.6246 20.3163 9.29173 19.7611 8.43691 19.2347L8.42426 19.2272L8.40022 19.2122C8.11845 19.0275 7.85416 18.818 7.61057 18.5863C7.17391 18.1672 6.82547 17.6668 6.58535 17.1139C6.34524 16.5609 6.21821 15.9664 6.2116 15.3646C6.19535 14.7413 6.29995 14.1207 6.51974 13.5363C6.66211 13.1607 7.19107 11.825 8.6647 11.0119C9.60832 10.5001 10.6987 10.3175 11.76 10.4936C11.7558 10.7023 11.7518 10.9109 11.748 11.1196V11.124L11.7233 12.4447C11.2615 12.337 10.784 12.3107 10.313 12.367C9.93332 12.4134 9.56128 12.4566 9.16582 12.7025C8.65935 13.025 8.30089 13.5311 8.16737 14.1121C8.08288 14.3935 8.06555 14.6905 8.11675 14.9797C8.13194 15.0623 8.2433 15.6363 8.71152 16.0481C8.86907 16.1865 8.93614 16.1921 9.16582 16.4043C9.36829 16.5921 9.41891 16.6822 9.6043 16.838C9.6043 16.838 9.64986 16.8762 9.72452 16.9301C9.72931 16.9342 9.73439 16.9379 9.73971 16.9413C9.8418 17.0152 9.949 17.0819 10.0605 17.141C10.5243 17.3813 11.3544 17.407 11.9631 17.1147C12.8053 16.7097 13.2646 15.7783 13.2627 15.225C13.2526 11.7862 13.2423 8.34755 13.2317 4.90913H13.29L15.8728 4.8941C15.8709 5.0934 15.8988 5.29188 15.9557 5.4831C15.962 5.50376 15.9683 5.52316 15.9753 5.54569C15.9822 5.56823 15.9867 5.57887 15.9923 5.59452C16.0324 5.69854 16.0787 5.80011 16.1309 5.89872L16.167 5.9707V5.97633C16.1664 5.97795 16.1664 5.97972 16.167 5.98134L16.1727 5.99323L16.1784 6.0045C16.1818 6.01178 16.1856 6.01888 16.1898 6.02578C16.1936 6.03392 16.198 6.04205 16.2024 6.05019C16.2265 6.09588 16.2594 6.15597 16.2967 6.22357C16.3201 6.26551 16.3448 6.30745 16.3701 6.34876L16.3973 6.3932C16.4106 6.41573 16.4245 6.43827 16.4384 6.46017L16.489 6.53967C16.6858 6.847 17.0313 7.36464 17.521 7.75584C18.2094 8.30541 19.0004 8.46064 19.4964 8.50695C19.4996 8.66093 19.5034 8.81491 19.5065 8.96889C19.5251 9.43374 19.5392 9.89818 19.5489 10.3622Z" fill="#24F6FA"/>
<path d="M19.5575 11.0977C18.2538 11.145 16.9737 10.744 15.9351 9.96288V15.471C15.9225 15.682 15.7358 18.0086 13.6111 19.2892C13.5061 19.3518 13.4004 19.41 13.2948 19.4638C11.296 20.4728 9.34272 19.6823 9.14974 19.6003C8.95785 19.5382 8.77396 19.4542 8.6018 19.3499C8.54801 19.3167 8.4955 19.2823 8.44551 19.2466L8.40059 19.2135C7.09716 18.2345 7.04338 16.2403 7.03516 15.9461C7.02123 15.3579 7.10677 14.7714 7.28825 14.2111C7.50338 13.5319 8.1456 12.3871 9.4332 11.6867C10.1437 11.3042 10.9421 11.1101 11.7509 11.1234V11.1277C11.7404 11.7891 11.7298 12.4507 11.7193 13.1125C11.5832 13.0762 10.7493 12.8684 9.93433 13.3761C9.42786 13.6986 9.06939 14.2046 8.93588 14.7857C8.85599 15.0676 8.83872 15.3634 8.88526 15.6526C8.95751 16.0096 9.12784 16.3401 9.37752 16.6077C9.48249 16.7273 9.59976 16.8358 9.72742 16.9313C9.73221 16.9354 9.73729 16.9392 9.74261 16.9426C9.84286 17.0191 9.95028 17.086 10.0634 17.1423L10.0672 17.1454C10.2933 17.4832 10.6195 17.7435 11.001 17.8907C11.3825 18.038 11.8007 18.0649 12.1982 17.9679C12.3835 17.9296 12.5634 17.8695 12.7342 17.7889C12.941 17.6916 13.1305 17.5618 13.2954 17.4045C13.9357 16.7955 14.0294 15.953 14.0338 15.9023L14.0059 5.58139L14.2843 5.57576L15.9567 5.54321H15.9807C15.987 5.55949 15.994 5.57576 16.0009 5.59204C16.0395 5.68405 16.0857 5.78607 16.1395 5.89624L16.1756 5.96822V5.97385C16.175 5.97547 16.175 5.97724 16.1756 5.97886L16.1813 5.99075L16.187 6.00202C16.1904 6.0093 16.1942 6.0164 16.1984 6.0233C16.2022 6.03144 16.2066 6.03957 16.211 6.04771C16.2401 6.10404 16.2743 6.16225 16.3053 6.22109C16.3287 6.26303 16.3534 6.30497 16.3787 6.34628L16.4059 6.39072L16.447 6.45769L16.4976 6.53719C16.7871 6.98499 17.134 7.39378 17.5296 7.75336C18.1071 8.27635 18.7789 8.68702 19.5101 8.9639H19.5151C19.5234 9.42772 19.5316 9.89278 19.5392 10.3566L19.5575 11.0977Z" fill="white"/>
<path opacity="0.17" d="M20.3049 9.18483L20.2891 11.7868C19.7766 11.7806 19.2667 11.7129 18.7706 11.5853C18.0052 11.3875 17.2834 11.0516 16.6414 10.5944C16.6414 10.8604 16.6452 11.2573 16.6452 11.7399C16.6452 12.3821 16.6452 12.747 16.6414 13.1344C16.63 15.528 16.6902 15.9912 16.4776 16.9376C16.4333 17.1658 16.3729 17.3906 16.2966 17.6104C15.8879 18.7371 14.997 19.6397 14.089 20.1198C13.8356 20.253 13.5697 20.3614 13.2949 20.4434V4.90913L15.8777 4.8941C15.8759 5.0934 15.9038 5.29188 15.9606 5.4831C15.9669 5.50376 15.9733 5.52316 15.9802 5.54569L16.2226 5.54131C16.4013 6.17747 16.7041 6.77287 17.1141 7.29391C17.2433 7.45688 17.3827 7.61158 17.5317 7.75709C18.2201 8.30666 19.011 8.46189 19.5071 8.50821C19.5102 8.66218 19.514 8.81616 19.5172 8.97014C19.7743 9.06012 20.0375 9.13187 20.3049 9.18483Z" fill="black"/>
</g>
<defs>
<clipPath id="clip0_35_695">
<rect width="25.6775" height="25.4014" fill="white" transform="translate(0.480469)"/>
</clipPath>
</defs>
</svg>
