<svg width="83" height="89" viewBox="0 0 83 89" fill="none" xmlns="http://www.w3.org/2000/svg">
<path d="M76.2857 20.0752C77.2288 19.0927 77.7492 17.7846 77.7365 16.4282C77.7383 15.4165 77.4517 14.4248 76.9099 13.5675C76.37 12.7246 75.5888 12.0606 74.6662 11.6604C73.7544 11.2622 72.7398 11.1569 71.7646 11.3592C70.7807 11.5512 69.8764 12.0286 69.1666 12.731C68.4681 13.4661 67.9942 14.3827 67.8002 15.3743C67.6168 16.3934 67.728 17.4431 68.1207 18.4023C68.4949 19.3369 69.1335 20.1444 69.9595 20.7277C70.7755 21.2937 71.7472 21.5973 72.743 21.5976C73.4065 21.5935 74.0623 21.4565 74.6711 21.1949C75.2798 20.9333 75.829 20.5525 76.2857 20.0752ZM73.6878 17.9171C73.3596 18.1386 72.9631 18.2383 72.5681 18.1985C72.1732 18.1587 71.805 17.9821 71.5284 17.6996C71.2043 17.3542 71.0235 16.9001 71.0223 16.4282C71.0215 16.0789 71.121 15.7365 71.3091 15.4412C71.459 15.197 71.6695 14.995 71.9206 14.8544C72.1716 14.7138 72.4548 14.6394 72.743 14.6382H73.0804C73.4157 14.7078 73.7217 14.877 73.9577 15.1233C74.1997 15.3796 74.3635 15.6986 74.43 16.0434C74.4978 16.3916 74.4626 16.7518 74.3288 17.0807C74.1966 17.3989 73.9739 17.6721 73.6878 17.8669V17.9171Z" fill="#1E1E1E"/>
<path d="M62.3006 80.3008C62.3103 80.2062 62.3103 80.111 62.3006 80.0164C62.2151 79.8137 62.0953 79.6269 61.9463 79.4643C61.7948 79.3125 61.6179 79.1879 61.4233 79.0963C61.1702 78.9981 60.8968 78.9621 60.6266 78.9912C60.3564 79.0203 60.0973 79.1138 59.8713 79.2636C59.5991 79.4462 59.3923 79.7098 59.2808 80.0164C59.1507 80.3227 59.1154 80.6605 59.1796 80.9867C59.249 81.3089 59.3999 81.6083 59.6182 81.8566C59.8494 82.0849 60.1424 82.2418 60.4617 82.3083C60.568 82.3239 60.676 82.3239 60.7823 82.3083C61.0016 82.311 61.2193 82.2712 61.4233 82.1912C61.7267 82.0604 61.9805 81.8379 62.1487 81.5555C62.3273 81.2815 62.4211 80.9616 62.4186 80.6354V80.3008H62.3006Z" fill="#1E1E1E"/>
<path d="M82.2239 70.8153C82.1329 70.4578 81.9253 70.1403 81.6335 69.9119C81.3461 69.6981 80.9974 69.5809 80.6382 69.5773H78.1752V62.2666C78.1739 61.9939 78.1105 61.7251 77.9896 61.4803C77.8714 61.2426 77.6979 61.0362 77.4835 60.878C77.2625 60.7259 77.008 60.6284 76.7412 60.5936C76.4795 60.561 76.2137 60.5896 75.9652 60.6773L71.8489 62.2666C71.0306 60.313 69.7996 58.556 68.2388 57.1139H73.6034C74.2096 57.1096 74.8087 56.9845 75.3652 56.746C75.9216 56.5074 76.424 56.1604 76.8424 55.7254C77.7026 54.8207 78.1797 53.623 78.1752 52.3795V39.3307C78.1867 38.0859 77.7087 36.8857 76.8424 35.9848C76.424 35.5498 75.9216 35.2028 75.3652 34.9642C74.8087 34.7257 74.2096 34.6006 73.6034 34.5963H57.3577C58.0328 34.2559 58.648 33.8096 59.1796 33.2747C59.9055 32.5584 60.4791 31.7051 60.8666 30.7653C61.9934 28.4774 62.1868 25.8467 61.4065 23.4211C61.2365 22.8383 60.9367 22.3009 60.5292 21.8485C60.1251 21.4096 59.6138 21.0812 59.0447 20.895C58.4972 20.7356 57.9204 20.7013 57.3577 20.7946C57.7959 18.3486 57.8811 15.8533 57.6107 13.3835C57.3417 10.8545 56.4872 8.42122 55.114 6.27352C52.2967 1.99082 48.5178 0.250967 41.8711 2.68519e-05C36.0678 -0.183996 31.7491 1.13762 29.0499 3.94815C27.5351 5.54744 26.5823 7.58963 26.3339 9.76995C24.2252 11.8109 23.9384 15.5081 25.4567 20.7611C24.9755 20.7083 24.4886 20.7481 24.0227 20.8782C23.4569 21.0849 22.9498 21.424 22.5445 21.8668C22.1392 22.3095 21.8476 22.8427 21.6947 23.4211C20.8676 25.8361 21.0188 28.4754 22.1164 30.782C22.5039 31.7219 23.0776 32.5752 23.8034 33.2914C24.335 33.8263 24.9503 34.2726 25.6254 34.613H9.3965C8.79031 34.6173 8.19118 34.7424 7.63474 34.981C7.0783 35.2195 6.57592 35.5666 6.15747 36.0015C5.29124 36.9024 4.81317 38.1026 4.82475 39.3474V52.3963C4.82019 53.6397 5.29727 54.8374 6.15747 55.7421C6.57592 56.1771 7.0783 56.5242 7.63474 56.7627C8.19118 57.0012 8.79031 57.1264 9.3965 57.1307H14.7274C13.1922 58.5803 11.9847 60.3365 11.1847 62.2833L7.11906 60.694C6.86435 60.6079 6.59345 60.5793 6.32617 60.6104C6.06529 60.6477 5.81684 60.7451 5.60076 60.8948C5.38353 61.0545 5.20488 61.2603 5.0778 61.497C4.95905 61.7426 4.89572 62.0109 4.89223 62.2833V69.594H2.36174C1.99899 69.5935 1.64726 69.7176 1.36642 69.9453C1.07767 70.1694 0.870393 70.4807 0.775968 70.832C-0.247399 74.6695 -0.247399 78.705 0.775968 82.5425C0.878718 82.8901 1.08443 83.199 1.36642 83.4292C1.6538 83.6429 2.0025 83.7602 2.36174 83.7637H4.89223V87.2936C4.89094 87.5138 4.9335 87.7321 5.01745 87.9359C5.1014 88.1397 5.2251 88.3251 5.38146 88.4814C5.68462 88.7886 6.09541 88.9684 6.52861 88.9833H76.5388C76.9779 88.9726 77.3955 88.7926 77.7028 88.4814C78.0124 88.163 78.1822 87.7359 78.1752 87.2936V83.7805H80.6382C80.9974 83.7769 81.3461 83.6597 81.6335 83.4459C81.9222 83.2218 82.1295 82.9106 82.2239 82.5592C83.2699 78.7133 83.2699 74.6612 82.2239 70.8153ZM24.7819 24.5419C24.8135 24.3798 24.8893 24.2294 25.0012 24.107C25.6208 24.1599 26.2094 24.3992 26.6882 24.7929V31.2671C26.0203 30.7653 25.492 30.1032 25.153 29.3433C24.4079 27.8506 24.2749 26.1298 24.7819 24.5419ZM56.4636 31.2337V24.8096C56.9436 24.4153 57.5306 24.1708 58.1506 24.107C58.2665 24.2289 58.3479 24.3789 58.3867 24.5419C58.8858 26.1121 58.7837 27.8096 58.0999 29.3098C57.7329 30.0907 57.1694 30.7648 56.4636 31.2671V31.2337ZM22.0995 54.1528C22.2101 54.0049 22.3727 53.9034 22.555 53.8684L25.3048 53.2662L24.9843 65.7797L22.4369 66.5827H22.3357L21.9308 54.6882C21.9246 54.496 21.9841 54.3073 22.0995 54.1528ZM41.5337 56.1269H41.4493C38.0229 56.1018 34.7326 54.7931 32.2384 52.4632C32.9511 51.8398 33.5255 51.0764 33.9254 50.2215C34.3468 49.302 34.5654 48.3038 34.5664 47.2938V46.3737C35.8232 47.3433 37.2155 48.1267 38.6995 48.6991C40.573 49.2759 42.5788 49.2759 44.4522 48.6991C45.9351 48.1426 47.3233 47.364 48.5684 46.3904V47.6786C48.5728 48.6416 48.7797 49.5931 49.1758 50.4724C49.5415 51.2782 50.0697 52.0013 50.7278 52.597C48.2163 54.8728 44.9358 56.1323 41.5337 56.1269ZM43.3725 45.4871C42.1849 45.8465 40.9162 45.8465 39.7286 45.4871C37.1465 44.3547 34.8694 42.6354 33.0819 40.4683C31.0147 38.2056 29.8771 35.2571 29.8934 32.204V24.3077L31.4286 21.2128C31.5603 20.9304 31.6183 20.6198 31.5973 20.3094C31.1418 14.3371 32.8625 13.534 34.9713 12.5136C36.3378 11.8611 39.4587 12.9485 40.7745 13.5675C40.992 13.675 41.2317 13.731 41.4746 13.731C41.7176 13.731 41.9573 13.675 42.1747 13.5675C43.4231 12.9653 46.6115 11.8946 47.978 12.5136C50.1373 13.534 51.8581 14.3371 51.352 20.3094C51.331 20.6198 51.389 20.9304 51.5207 21.2128L53.0558 24.3077V32.2374C53.0847 35.2978 51.9457 38.2559 49.8674 40.5184C48.1182 42.6496 45.8952 44.3502 43.3725 45.4871ZM65.0166 53.7346H64.2912C64.1296 52.9898 63.7683 52.302 63.2453 51.7438C62.7001 51.149 61.9801 50.7393 61.1872 50.5728L57.3577 49.7196C56.8149 49.5886 56.2423 49.6663 55.755 49.9371C55.3092 50.1753 54.9538 50.5512 54.7428 51.0077L53.8487 50.6731C53.2416 50.448 52.722 50.0381 52.3642 49.5021C51.9969 48.9641 51.8028 48.3283 51.8075 47.6786V43.3959L51.8918 43.3122L52.2967 42.8271C53.6057 41.4154 54.6306 39.7687 55.3164 37.9756H64.9491L65.0166 53.7346ZM53.292 12.3965C52.3584 11.0167 50.996 9.97701 49.4119 9.43536C46.8477 8.23085 43.1026 9.55247 41.5337 10.2049C39.9817 9.55247 36.2197 8.23085 33.6723 9.43536C30.7201 10.8239 28.2571 12.5136 28.2571 18.5361C27.4473 15.1903 27.6497 12.8649 28.8644 12.0284C29.092 11.8545 29.2766 11.6313 29.4042 11.376C29.5268 11.1263 29.5848 10.8504 29.5729 10.573C29.6291 8.9867 30.2786 7.47795 31.3949 6.34044C33.2506 4.39984 36.5065 3.34589 40.8252 3.34589H41.753C47.3538 3.52991 50.188 4.78461 52.4317 8.14721C53.4679 9.80815 54.119 11.6767 54.338 13.6177C54.338 13.9523 54.338 14.2869 54.338 14.6215C54.1141 13.8281 53.7608 13.0765 53.292 12.3965ZM31.243 43.3959V47.2938C31.2466 47.9976 31.0348 48.6859 30.6357 49.2679C30.2633 49.8433 29.7128 50.2836 29.0668 50.5226L28.2065 50.8572C27.9714 50.443 27.6197 50.1058 27.1943 49.8869C26.7251 49.6524 26.1883 49.5874 25.676 49.7028L21.9308 50.5728C21.1444 50.7437 20.431 51.1529 19.8896 51.7438C19.3666 52.302 19.0053 52.9898 18.8436 53.7346H18.1182V37.9756H27.7678C28.4613 39.765 29.4854 41.4103 30.7876 42.8271L31.1418 43.1951L31.243 43.3959ZM28.4764 54.3536L29.1849 54.0859C30.7466 55.765 32.6345 57.1136 34.7351 58.0508C36.8556 59.003 39.1554 59.4991 41.4831 59.5062H41.5674C43.8509 59.5077 46.1094 59.0347 48.1973 58.1177C50.3086 57.2033 52.2131 55.8778 53.7981 54.2198L54.6079 54.5209L54.8609 64.7258L42.0567 60.6438C41.736 60.5602 41.3989 60.5602 41.0782 60.6438L28.2402 64.7258L28.4764 54.3536ZM60.5292 53.8684C60.7116 53.9034 60.8741 54.0049 60.9847 54.1528C61.1002 54.3073 61.1596 54.496 61.1534 54.6882L60.7317 66.4991H60.5798L58.0662 65.6961L57.7626 53.1993L60.5292 53.8684ZM43.1869 64.5585L59.0615 69.5773V75.7839C59.0544 76.2261 59.2243 76.6532 59.5339 76.9716C59.8412 77.2828 60.2588 77.4629 60.6979 77.4735C61.137 77.4629 61.5546 77.2828 61.8619 76.9716C62.0183 76.8153 62.142 76.6299 62.2259 76.4261C62.3099 76.2223 62.3525 76.004 62.3512 75.7839V69.5104L74.9024 64.6923V69.7111C73.3861 70.077 72.0376 70.9371 71.0729 72.1536C70.0783 73.4433 69.5395 75.0218 69.5395 76.6454C69.5395 78.269 70.0783 79.8475 71.0729 81.1372C72.027 82.3786 73.3767 83.2631 74.9024 83.6466V85.6542H43.1869V64.5585ZM64.1056 65.2444L64.2912 58.3184C66.2751 59.5351 67.8398 61.3201 68.7786 63.4376L64.1056 65.2444ZM18.928 65.2444L14.255 63.4543C15.1756 61.2993 16.7422 59.477 18.7424 58.2348L18.928 65.2444ZM23.8203 77.9754C23.7348 77.7727 23.615 77.5859 23.466 77.4233C23.312 77.2668 23.1286 77.1418 22.9262 77.0553C22.7282 76.9749 22.5159 76.9351 22.302 76.9382H22.1333C21.7559 76.984 21.4051 77.155 21.138 77.4233C20.8283 77.7418 20.6585 78.1688 20.6656 78.6111V85.604H8.18186V83.6466C9.68677 83.2579 11.0135 82.373 11.9439 81.1372C12.9276 79.8557 13.4603 78.2895 13.4603 76.6789C13.4603 75.0683 12.9276 73.5021 11.9439 72.2205C11.0028 71.0097 9.6773 70.1492 8.18186 69.778V64.7592L21.6778 70.0122C22.0176 70.1221 22.3839 70.1221 22.7237 70.0122L39.8467 64.5752V85.6207H23.9384V78.6278C23.9382 78.4106 23.8982 78.1952 23.8203 77.9921V77.9754ZM10.3243 76.6705C10.3239 77.164 10.2265 77.6527 10.0376 78.1092C9.86085 78.5625 9.59335 78.9756 9.25122 79.3235C8.90908 79.6714 8.4994 79.9469 8.0469 80.1335C7.62377 80.3056 7.17151 80.3965 6.71418 80.4012H3.64385C3.1546 77.9377 3.1546 75.4033 3.64385 72.9399H6.59609C7.07499 72.9306 7.55097 73.0159 7.99629 73.1908C8.44415 73.3792 8.85091 73.6519 9.19406 73.9938C9.88567 74.7164 10.272 75.6742 10.2737 76.6705H10.3243ZM79.491 80.3844H76.4207C75.949 80.3739 75.484 80.2709 75.0526 80.0814C74.6212 79.8919 74.2319 79.6197 73.9071 79.2803C73.2444 78.5635 72.8771 77.6262 72.878 76.6538C72.878 75.6865 73.2455 74.7547 73.9071 74.044C74.2285 73.7036 74.6145 73.4293 75.0429 73.237C75.4713 73.0447 75.9338 72.938 76.4038 72.9231H79.2886C79.78 75.392 79.78 77.9323 79.2886 80.4012L79.491 80.3844ZM68.2894 53.7346V37.9756H69.8414V53.7346H68.2894ZM74.9024 52.3795C74.9044 52.7356 74.765 53.0781 74.5144 53.3331C74.3979 53.4577 74.257 53.5576 74.1005 53.6266C73.9439 53.6956 73.7748 53.7323 73.6034 53.7346H73.1142V37.9756H73.6034C73.7737 37.9747 73.9423 38.0084 74.099 38.0746C74.2557 38.1408 74.397 38.238 74.5144 38.3604C74.7631 38.6233 74.9018 38.9701 74.9024 39.3307V52.3795ZM14.7611 37.9756V53.7346H13.2091V37.9756H14.7611ZM8.09751 39.3307C8.08586 38.9771 8.20598 38.6317 8.43491 38.3604C8.55345 38.2395 8.69504 38.1433 8.85143 38.0772C9.00782 38.0112 9.1759 37.9766 9.34589 37.9756H9.88572V53.7346H9.3965C9.21635 53.7416 9.03686 53.7092 8.87071 53.6398C8.70455 53.5705 8.55579 53.4657 8.43491 53.3331C8.19154 53.0735 8.05337 52.7339 8.0469 52.3795L8.09751 39.3307Z" fill="#1E1E1E"/>
<path d="M71.2754 30.4809C71.7387 30.6796 72.2382 30.7821 72.743 30.782C73.2426 30.7837 73.7369 30.6811 74.1939 30.4809C74.6632 30.2831 75.0835 29.9862 75.4254 29.6109C77.8546 27.0681 81.9371 21.9322 81.9371 16.3279C81.9424 14.4364 81.3977 12.5835 80.3682 10.9912C79.3541 9.42719 77.8827 8.20738 76.1508 7.49477C74.4719 6.81432 72.6225 6.66247 70.8536 7.05981C69.0443 7.48505 67.4119 8.45511 66.1806 9.83687C64.4297 11.7056 63.4852 14.1793 63.5489 16.7294C63.7345 22.1831 67.6821 27.135 70.027 29.5942C70.3791 29.9696 70.8036 30.2711 71.2754 30.4809ZM66.8217 16.6123C66.7817 14.9632 67.3861 13.3627 68.5087 12.1455C69.2955 11.2628 70.3386 10.6434 71.4947 10.3722C71.9147 10.2727 72.345 10.2222 72.7768 10.2216C73.5227 10.2194 74.2619 10.3615 74.953 10.6399C76.0453 11.1106 76.9686 11.8979 77.6016 12.8983C78.2698 13.9188 78.6217 15.1111 78.6138 16.3279C78.6138 20.7277 75.1217 25.0606 73.0467 27.2521C73.001 27.2997 72.946 27.3376 72.8851 27.3634C72.8242 27.3893 72.7587 27.4027 72.6924 27.4027C72.6251 27.3996 72.5591 27.3832 72.4983 27.3545C72.4374 27.3257 72.383 27.2852 72.3382 27.2354C70.3644 25.094 66.9735 20.9117 66.8217 16.6123Z" fill="#1E1E1E"/>
<path d="M23.466 72.6053C23.1949 72.3435 22.8428 72.1797 22.4665 72.1402C22.0901 72.1008 21.7114 72.188 21.391 72.3878C21.1185 72.5742 20.9073 72.836 20.7837 73.1406C20.6672 73.4502 20.6324 73.7842 20.6825 74.1109C20.7433 74.4395 20.9019 74.7425 21.138 74.9808C21.367 75.2152 21.6602 75.3781 21.9815 75.4493H22.302C22.5167 75.4445 22.7286 75.399 22.9262 75.3154C23.2294 75.1856 23.4875 74.9704 23.6684 74.6964C23.8417 74.4139 23.9349 74.0903 23.9384 73.7596C23.9366 73.3289 23.7674 72.9154 23.466 72.6053Z" fill="#1E1E1E"/>
</svg>
