<svg width="83" height="89" viewBox="0 0 83 89" fill="none" xmlns="http://www.w3.org/2000/svg">
<path d="M82.2239 82.5592C82.1295 82.9106 81.9222 83.2218 81.6335 83.4459C81.3482 83.6657 80.9993 83.7888 80.6382 83.7972H78.1751V87.3104C78.1745 87.7562 78.006 88.1857 77.7028 88.5149C77.3927 88.8199 76.9755 88.9938 76.5388 89H6.54548C6.10877 88.9938 5.6915 88.8199 5.38145 88.5149C5.22307 88.3566 5.0982 88.1685 5.01418 87.9616C4.93016 87.7548 4.8887 87.5333 4.89222 87.3104V83.7972H2.36174C2.00059 83.7888 1.6517 83.6657 1.36641 83.4459C1.08443 83.2157 0.878714 82.9068 0.775964 82.5592C-0.247404 78.7217 -0.247404 74.6863 0.775964 70.8487C0.870388 70.4974 1.07766 70.1861 1.36641 69.9621C1.6517 69.7423 2.00059 69.6191 2.36174 69.6107H4.89222V62.2666C4.8859 62.0004 4.94374 61.7366 5.06092 61.497C5.1878 61.2554 5.36627 61.0442 5.58389 60.878C5.80491 60.7259 6.05941 60.6284 6.32617 60.5936C6.58924 60.5608 6.8564 60.5954 7.10218 60.694L11.1678 62.2666C11.9732 60.3227 13.1799 58.5675 14.7105 57.1139H9.39649C8.78969 57.1135 8.18937 56.9901 7.63239 56.7514C7.0754 56.5126 6.57349 56.1635 6.15747 55.7254C5.29124 54.8245 4.81317 53.6243 4.82474 52.3795V44.7008H18.0339V53.7346H18.7593C18.9209 52.9898 19.2823 52.302 19.8052 51.7438C20.3559 51.1644 21.0655 50.7573 21.8465 50.5728L25.676 49.7196C26.1868 49.607 26.7208 49.6658 27.1943 49.8869C27.6197 50.1058 27.9714 50.443 28.2064 50.8572L29.0668 50.5393C29.715 50.2878 30.2689 49.8437 30.6526 49.2679C31.0392 48.681 31.2444 47.9948 31.243 47.2938V44.7008H38.1091C38.6534 45.0042 39.2169 45.2724 39.7961 45.5038C40.9849 45.8553 42.2512 45.8553 43.44 45.5038C44.0192 45.2724 44.5827 45.0042 45.127 44.7008H51.8749V47.6786C51.8751 48.3328 52.0687 48.9726 52.4317 49.5188C52.7954 50.0455 53.3137 50.4485 53.9162 50.6731L54.8103 51.0077C55.0263 50.5545 55.3803 50.18 55.8225 49.9371C56.3124 49.674 56.882 49.5967 57.4252 49.7196L61.2378 50.5728C62.0252 50.7534 62.7413 51.1608 63.2959 51.7438C63.8189 52.302 64.1802 52.9898 64.3418 53.7346H65.0672V44.7008H78.2258V52.3795C78.2373 53.6243 77.7593 54.8245 76.893 55.7254C76.477 56.1635 75.9751 56.5126 75.4181 56.7514C74.8611 56.9901 74.2608 57.1135 73.654 57.1139H68.2388C69.7995 58.556 71.0306 60.313 71.8489 62.2666L75.9146 60.694C76.1604 60.5954 76.4275 60.5608 76.6906 60.5936C76.9601 60.623 77.2172 60.7218 77.4362 60.8803C77.6553 61.0388 77.8286 61.2514 77.939 61.497C78.062 61.7351 78.1256 61.999 78.1245 62.2666V69.5773H80.6382C81.0009 69.5768 81.3526 69.7009 81.6335 69.9286C81.9222 70.1527 82.1295 70.4639 82.2239 70.8153C83.2699 74.6612 83.2699 78.7133 82.2239 82.5592Z" fill="#FE983D"/>
<path d="M76.9099 13.5173C76.3654 12.6784 75.5855 12.0155 74.6662 11.6102C73.7506 11.2251 72.7385 11.1259 71.7646 11.3258C70.7768 11.527 69.8721 12.0164 69.1666 12.731C68.4681 13.4661 67.9942 14.3827 67.8002 15.3743C67.6159 16.3933 67.7271 17.4434 68.1207 18.4023C68.4907 19.3393 69.1301 20.1479 69.9595 20.7277C70.917 21.3912 72.0834 21.6905 73.2452 21.5706C74.4071 21.4508 75.4865 20.9199 76.2857 20.0752C77.2319 19.0946 77.7528 17.7853 77.7365 16.4282C77.7479 15.3994 77.461 14.3891 76.9099 13.5173ZM74.3288 17.0639C74.1994 17.3883 73.9764 17.6676 73.6878 17.8669C73.3596 18.0884 72.9631 18.1881 72.5681 18.1483C72.1732 18.1085 71.805 17.9319 71.5284 17.6495C71.2043 17.304 71.0235 16.8499 71.0223 16.378C71.0215 16.0287 71.121 15.6863 71.3091 15.391C71.4939 15.0995 71.7649 14.8717 72.0851 14.7386C72.2912 14.6447 72.5163 14.5989 72.743 14.6047C72.8549 14.5882 72.9686 14.5882 73.0804 14.6047C73.4157 14.6744 73.7217 14.8436 73.9577 15.0899C74.1962 15.342 74.3596 15.6547 74.43 15.9933C74.5045 16.3522 74.4693 16.725 74.3288 17.0639Z" fill="#1E1E1E"/>
<path d="M62.3006 80.3008C62.308 80.2061 62.308 80.111 62.3006 80.0164C62.2183 79.817 62.098 79.6352 61.9463 79.481C61.7994 79.324 61.6213 79.1987 61.4233 79.113C61.1715 79.0124 60.8989 78.9735 60.6287 78.9998C60.3585 79.026 60.0987 79.1165 59.8713 79.2636C59.6026 79.4541 59.3924 79.7146 59.264 80.0164C59.1721 80.3334 59.1721 80.6697 59.264 80.9867C59.3264 81.3112 59.4782 81.6123 59.7026 81.8566C59.9317 82.091 60.2249 82.2538 60.5461 82.325H60.8666C61.0871 82.3224 61.3049 82.2769 61.5077 82.1912C61.8003 82.052 62.0506 81.8384 62.2331 81.5722C62.4148 81.2934 62.5088 80.9673 62.503 80.6354V80.3008H62.3006Z" fill="#1E1E1E"/>
<path d="M82.2239 70.8152C82.1295 70.4639 81.9222 70.1527 81.6335 69.9286C81.3526 69.7009 81.0009 69.5767 80.6382 69.5773H78.1751V62.2666C78.1762 61.999 78.1126 61.7351 77.9896 61.497C77.8792 61.2514 77.7059 61.0388 77.4868 60.8803C77.2678 60.7218 77.0107 60.6229 76.7412 60.5936C76.4781 60.5608 76.211 60.5954 75.9652 60.694L71.8489 62.2666C71.0306 60.313 69.7995 58.556 68.2388 57.1139H73.6034C74.2102 57.1135 74.8105 56.9901 75.3675 56.7513C75.9245 56.5126 76.4264 56.1635 76.8424 55.7254C77.7087 54.8245 78.1867 53.6243 78.1751 52.3795V39.3307C78.1797 38.0872 77.7026 36.8895 76.8424 35.9848C76.424 35.5498 75.9216 35.2028 75.3652 34.9642C74.8087 34.7257 74.2096 34.6005 73.6034 34.5963H57.3577C58.0285 34.256 58.643 33.8159 59.1796 33.2914C59.9059 32.5691 60.4795 31.7103 60.8666 30.7652C61.9934 28.4774 62.1868 25.8467 61.4065 23.4211C61.2403 22.8418 60.9399 22.309 60.5292 21.8652C60.1307 21.416 59.6181 21.0809 59.0447 20.8949C58.4972 20.7332 57.9186 20.7046 57.3577 20.8113C57.7955 18.3596 57.8807 15.8588 57.6107 13.3835C57.3417 10.8544 56.4872 8.42122 55.114 6.27352C52.2967 2.00754 48.5178 0.250961 41.8711 2.11261e-05C36.0678 -0.184001 31.7491 1.13761 29.0499 3.96487C27.5302 5.5542 26.5763 7.59288 26.3339 9.76995C24.242 11.8277 23.9384 15.5248 25.4567 20.7778C24.977 20.7088 24.4879 20.743 24.0227 20.8782C23.4626 21.0812 22.9594 21.4138 22.555 21.8485C22.1434 22.289 21.8479 22.8234 21.6947 23.4043C20.893 25.8171 21.0437 28.4416 22.1164 30.7485C22.5036 31.6935 23.0771 32.5524 23.8034 33.2746C24.3401 33.7992 24.9545 34.2392 25.6254 34.5795H9.39649C8.7903 34.5838 8.19117 34.709 7.63473 34.9475C7.0783 35.186 6.57591 35.5331 6.15747 35.9681C5.29726 36.8728 4.82019 38.0705 4.82474 39.3139V52.3628C4.81317 53.6075 5.29124 54.8078 6.15747 55.7087C6.57349 56.1467 7.0754 56.4958 7.63239 56.7346C8.18937 56.9734 8.78969 57.0968 9.39649 57.0972H14.7274C13.1968 58.5507 11.99 60.3059 11.1847 62.2498L7.11905 60.6773C6.87327 60.5786 6.60611 60.5441 6.34304 60.5769C6.07628 60.6116 5.82178 60.7092 5.60076 60.8613C5.38314 61.0275 5.20467 61.2387 5.07779 61.4803C4.95477 61.7184 4.89114 61.9823 4.89222 62.2498V69.5605H2.36174C2.00059 69.569 1.6517 69.6921 1.36641 69.9119C1.07766 70.1359 0.870388 70.4472 0.775964 70.7985C-0.247404 74.6361 -0.247404 78.6715 0.775964 82.509C0.878714 82.8566 1.08443 83.1655 1.36641 83.3957C1.6517 83.6155 2.00059 83.7386 2.36174 83.747H4.89222V87.2602C4.8887 87.4831 4.93016 87.7046 5.01418 87.9114C5.0982 88.1183 5.22307 88.3064 5.38145 88.4647C5.6915 88.7697 6.10877 88.9436 6.54548 88.9498H76.5388C76.9755 88.9436 77.3927 88.7697 77.7028 88.4647C78.006 88.1355 78.1745 87.706 78.1751 87.2602V83.747H80.6382C80.9993 83.7386 81.3482 83.6155 81.6335 83.3957C81.9222 83.1716 82.1295 82.8604 82.2239 82.509C83.2608 78.6789 83.2608 74.6454 82.2239 70.8152ZM68.728 63.4376L64.1056 65.2444L64.2743 58.3352C66.2667 59.539 67.8389 61.3199 68.7786 63.4376H68.728ZM73.1142 37.9756H73.6034C73.7747 37.9778 73.9439 38.0146 74.1004 38.0836C74.257 38.1526 74.3979 38.2525 74.5144 38.3771C74.765 38.632 74.9044 38.9746 74.9024 39.3307V52.3795C74.9052 52.7407 74.766 53.0888 74.5144 53.3498C74.397 53.4722 74.2557 53.5694 74.099 53.6356C73.9423 53.7018 73.7737 53.7355 73.6034 53.7346H73.1142V37.9756ZM68.2894 37.9756H69.8414V53.7346H68.2894V37.9756ZM56.4804 24.8096C56.9575 24.4131 57.547 24.1734 58.1674 24.1237C58.2696 24.2461 58.3444 24.3887 58.3867 24.5419C58.8858 26.1121 58.7837 27.8096 58.0999 29.3098C57.7645 30.0858 57.2293 30.7608 56.5479 31.2671L56.4804 24.8096ZM55.4008 37.9756H65.0335V53.7346H64.3081C64.1465 52.9897 63.7851 52.302 63.2621 51.7438C62.7075 51.1608 61.9915 50.7534 61.204 50.5728L57.3577 49.7196C56.8145 49.5967 56.2449 49.674 55.755 49.9371C55.3128 50.18 54.9588 50.5545 54.7428 51.0077L53.8487 50.6731C53.2462 50.4485 52.7279 50.0455 52.3642 49.5188C52.0012 48.9726 51.8076 48.3328 51.8075 47.6786V43.4963L51.8918 43.3959L52.2967 42.8271C53.6298 41.4211 54.6779 39.774 55.3839 37.9756H55.4008ZM61.1365 54.7049L60.7317 66.5158H60.5798L58.0831 65.7295L57.7626 53.216L60.428 53.8182C60.6123 53.859 60.7747 53.9663 60.8835 54.1194C61.0322 54.2723 61.1166 54.4757 61.1197 54.6882L61.1365 54.7049ZM33.8916 50.188C34.3145 49.269 34.5332 48.2705 34.5327 47.2604V46.3402C35.7855 47.3158 37.1787 48.0996 38.6658 48.6656C40.5379 49.251 42.5463 49.251 44.4184 48.6656C45.9021 48.1032 47.2902 47.319 48.5347 46.3402V47.6451C48.5409 48.6026 48.7477 49.5482 49.142 50.4222C49.511 51.231 50.0386 51.9589 50.694 52.5636C48.1937 54.8377 44.9264 56.1027 41.5337 56.1102H41.4493C38.0225 56.0706 34.7355 54.7572 32.2384 52.4297C32.9389 51.8031 33.5017 51.0399 33.8916 50.188ZM43.3725 45.4703C42.1837 45.8218 40.9174 45.8218 39.7286 45.4703C39.1494 45.239 38.5859 44.9707 38.0416 44.6673C36.1086 43.5882 34.3928 42.1647 32.9806 40.4683C30.9106 38.2073 29.7726 35.2577 29.7922 32.204V24.3077L31.3274 21.2128C31.4576 20.9359 31.5156 20.631 31.4961 20.3261C31.0575 14.3538 32.7613 13.534 34.8701 12.5136C36.2365 11.8778 39.3575 12.9485 40.6733 13.5842C40.8931 13.6836 41.1319 13.7351 41.3734 13.7351C41.615 13.7351 41.8537 13.6836 42.0735 13.5842C43.3219 12.982 46.5103 11.9113 47.8768 12.5136C50.0361 13.534 51.7569 14.3538 51.2508 20.3261C51.2372 20.6324 51.301 20.9372 51.4363 21.2128L52.9546 24.3077V32.2374C52.9868 35.2984 51.8474 38.2577 49.7662 40.5184C48.3511 42.2075 46.6358 43.6251 44.7052 44.7008C44.2758 44.992 43.831 45.26 43.3725 45.5038V45.4703ZM28.8644 12.0117C29.0878 11.8402 29.2718 11.6235 29.4042 11.376C29.5243 11.1196 29.5821 10.8388 29.5729 10.5562C29.6323 8.97067 30.2813 7.46301 31.3949 6.32371C33.2506 4.39983 36.5065 3.34589 40.8251 3.34589H41.753C47.3707 3.52991 50.188 4.80134 52.4317 8.1472C53.4654 9.80934 54.1163 11.6773 54.338 13.6177C54.338 13.9523 54.338 14.2869 54.338 14.6382C54.1022 13.8165 53.7255 13.0412 53.2245 12.3463C52.2909 10.9665 50.9285 9.92682 49.3445 9.38517C46.7802 8.18066 43.0351 9.50228 41.4831 10.1547C39.9142 9.50228 36.1522 8.18066 33.6048 9.38517C30.6526 10.7904 28.2064 12.4634 28.1896 18.4859C27.4473 15.1568 27.6497 12.8816 28.8644 12.0284V12.0117ZM25.0855 29.3433C24.3772 27.8492 24.2746 26.1424 24.7987 24.5754C24.8304 24.4133 24.9062 24.2628 25.018 24.1404C25.639 24.2002 26.2272 24.4452 26.705 24.8431V31.3006C25.9942 30.8079 25.4339 30.1308 25.0855 29.3433ZM18.0339 37.9756H27.6835C28.3769 39.765 29.4011 41.4103 30.7032 42.8271L31.0575 43.1951L31.243 43.4126V47.2938C31.2444 47.9948 31.0392 48.681 30.6526 49.2679C30.2689 49.8437 29.715 50.2878 29.0668 50.5393L28.2064 50.8572C27.9714 50.443 27.6197 50.1057 27.1943 49.8869C26.7208 49.6658 26.1868 49.607 25.676 49.7196L21.9308 50.5728C21.1498 50.7573 20.4403 51.1644 19.8896 51.7438C19.3666 52.302 19.0052 52.9897 18.8436 53.7346H18.1182L18.0339 37.9756ZM25.3048 53.2662L24.9843 65.7797L22.4369 66.5827H22.3357L21.9308 54.6882C21.9272 54.4963 21.9864 54.3085 22.0995 54.1528C22.2101 54.0049 22.3727 53.9034 22.555 53.8684L25.3048 53.2662ZM10.0207 53.7346H9.39649C9.21803 53.7404 9.04031 53.7092 8.87472 53.6429C8.70914 53.5767 8.55933 53.4768 8.43491 53.3498C8.18765 53.086 8.04919 52.7397 8.0469 52.3795V39.3307C8.05336 38.9763 8.19153 38.6367 8.43491 38.3771C8.55261 38.254 8.69368 38.1551 8.85001 38.0862C9.00634 38.0173 9.17486 37.9797 9.34588 37.9756H9.88572L10.0207 53.7346ZM13.2934 53.7346V37.9756H14.8455V53.7346H13.2934ZM18.8268 58.2515L18.928 65.2444L14.255 63.4543C15.1757 61.3037 16.7427 59.4869 18.7424 58.2515H18.8268ZM6.74791 80.4179H3.64385C3.15459 77.9544 3.15459 75.42 3.64385 72.9566H6.59609C7.07608 72.9531 7.55201 73.044 7.99629 73.2243C8.44414 73.4126 8.85091 73.6853 9.19405 74.0273C9.53601 74.3729 9.8055 74.7823 9.98694 75.2318C10.1744 75.6946 10.2717 76.1885 10.2737 76.6872C10.2733 77.1807 10.1759 77.6694 9.98694 78.126C9.81 78.5827 9.5401 78.9984 9.19405 79.3472C8.85091 79.6891 8.44414 79.9619 7.99629 80.1502C7.60114 80.3174 7.17743 80.4083 6.74791 80.4179ZM39.9817 85.6207H23.9384V78.6278C23.9403 78.405 23.9003 78.1837 23.8203 77.9754C23.738 77.776 23.6177 77.5942 23.466 77.4401C23.3163 77.2786 23.1318 77.1528 22.9262 77.072C22.7319 76.9785 22.5178 76.9326 22.302 76.9382H22.1333C21.7537 76.9886 21.4027 77.1656 21.138 77.4401C20.8283 77.7585 20.6585 78.1856 20.6656 78.6278V85.604H8.18186V83.6466C9.68291 83.2495 11.007 82.3662 11.9438 81.1372C12.9276 79.8557 13.4603 78.2895 13.4603 76.6789C13.4603 75.0683 12.9276 73.5021 11.9438 72.2205C11.0028 71.0097 9.6773 70.1492 8.18186 69.778V64.7592L21.6778 70.0122C22.0176 70.1221 22.3839 70.1221 22.7237 70.0122L39.8467 64.5752L39.9817 85.6207ZM41.1457 60.6605L28.2064 64.7425L28.4764 54.3536L29.1849 54.0859C30.7466 55.765 32.6345 57.1136 34.7351 58.0508C36.8556 59.003 39.1553 59.499 41.4831 59.5062H41.5674C43.8489 59.5051 46.1057 59.0382 48.1973 58.1344C50.3118 57.2183 52.2171 55.8866 53.7981 54.2198L54.6079 54.5209L54.8609 64.7258L42.0567 60.6605C41.7339 60.5522 41.3841 60.5522 41.0613 60.6605H41.1457ZM74.9024 85.6207H43.1869V64.5585L59.0615 69.5773V75.7838C59.0602 76.004 59.1028 76.2223 59.1868 76.4261C59.2707 76.6299 59.3944 76.8153 59.5508 76.9716C59.8539 77.2789 60.2647 77.4586 60.6979 77.4735C60.917 77.4781 61.1344 77.4356 61.3354 77.349C61.5363 77.2624 61.7159 77.1336 61.8619 76.9716C62.0183 76.8153 62.142 76.6299 62.2259 76.4261C62.3099 76.2223 62.3524 76.004 62.3512 75.7838V69.5271L74.9024 64.6923V69.7111C73.3891 70.0731 72.0447 70.9344 71.0898 72.1536C70.0843 73.4386 69.5386 75.0189 69.5386 76.6454C69.5386 78.2719 70.0843 79.8522 71.0898 81.1372C72.0271 82.3885 73.3756 83.2761 74.9024 83.6466V85.6207ZM79.2886 80.4179H76.4207C75.9479 80.4043 75.4825 80.2983 75.0512 80.1059C74.6199 79.9136 74.231 79.6387 73.9071 79.297C73.2443 78.5835 72.8764 77.6489 72.8764 76.6789C72.8764 75.7088 73.2443 74.7742 73.9071 74.0607C74.227 73.7196 74.6129 73.446 75.042 73.2563C75.471 73.0666 75.9342 72.9647 76.4038 72.9566H79.2886C79.7778 75.42 79.7778 77.9544 79.2886 80.4179Z" fill="#1E1E1E"/>
<path d="M80.3851 10.9912C79.3661 9.43141 77.8962 8.21282 76.1676 7.49476C74.4451 6.77954 72.5387 6.62254 70.7209 7.04618C68.903 7.46982 67.2667 8.45242 66.0457 9.85359C64.3447 11.7371 63.4493 14.2029 63.5489 16.7293C63.7345 22.1831 67.6821 27.135 70.027 29.6109C70.3797 29.9813 70.8044 30.2772 71.2754 30.4808C71.7387 30.6796 72.2382 30.7821 72.743 30.782C73.2426 30.7837 73.7369 30.6811 74.1938 30.4808C74.6589 30.2831 75.0781 29.9927 75.4253 29.6276C77.8546 27.0681 81.9371 21.9322 81.9371 16.3446C81.9498 14.4492 81.4109 12.5905 80.3851 10.9912ZM73.0973 27.2521C73.0516 27.2997 72.9966 27.3375 72.9358 27.3634C72.8749 27.3893 72.8093 27.4026 72.743 27.4026C72.674 27.405 72.6052 27.3928 72.5412 27.3668C72.4772 27.3409 72.4195 27.3018 72.3719 27.2521C70.3644 25.1275 66.9735 20.9284 66.8217 16.6122C66.7851 14.9638 67.3892 13.3646 68.5087 12.1455C69.2997 11.2679 70.3411 10.6494 71.4947 10.3722C71.9147 10.2727 72.345 10.2222 72.7768 10.2216C73.5237 10.2256 74.2628 10.3733 74.953 10.6566C76.0441 11.121 76.9676 11.9027 77.6016 12.8983C78.2772 13.9154 78.6298 15.11 78.6138 16.3278C78.6644 20.7444 75.1723 25.094 73.0973 27.2521Z" fill="#1E1E1E"/>
<path d="M23.4491 72.6053C23.178 72.3435 22.8259 72.1797 22.4496 72.1403C22.0733 72.1008 21.6945 72.188 21.3741 72.3878C21.1195 72.5807 20.9212 72.8373 20.7996 73.1313C20.6781 73.4253 20.6376 73.7461 20.6825 74.0607C20.7464 74.3833 20.9049 74.6801 21.138 74.9139C21.3577 75.1601 21.655 75.3252 21.9814 75.3824H22.302C22.5167 75.3776 22.7286 75.3321 22.9262 75.2485C23.2316 75.1295 23.4873 74.9113 23.6516 74.6295C23.8726 74.3074 23.9733 73.9189 23.9363 73.5311C23.8994 73.1432 23.7271 72.7803 23.4491 72.5049V72.6053Z" fill="#1E1E1E"/>
</svg>
