<svg width="171" height="171" viewBox="0 0 171 171" fill="none" xmlns="http://www.w3.org/2000/svg">
<path d="M85.3046 0C40.6032 0 3.94135 34.1533 0 77.727H69.7246V54.4088C69.7246 51.2691 71.6247 48.4326 74.5304 47.2271C77.4447 46.0231 80.7941 46.6906 83.0222 48.9137L114.184 80.0056C117.23 83.0442 117.23 87.9558 114.184 90.9958L83.0222 122.086C80.7941 124.309 77.4447 124.978 74.5304 123.773C71.6176 122.569 69.7246 119.731 69.7246 116.591V93.273H0C3.94135 136.847 40.6032 171 85.3046 171C132.632 171 171 132.719 171 85.5007C171 38.2807 132.632 0 85.3046 0Z" fill="#FD983D"/>
</svg>
