<svg xmlns="http://www.w3.org/2000/svg" viewBox="0 0 1411.46 236.67"><defs><style>.cls-1{fill:#252525;}.cls-2{fill:#feb300;}.cls-3{fill:#fff;}</style></defs><g id="Layer_2" data-name="Layer 2"><g id="Layer_5" data-name="Layer 5"><path class="cls-1" d="M491.28,47.27H459.45v84.44H441.36V47.27H409.53V31.52h81.75Z"/><path class="cls-1" d="M528.81,73.91a12.75,12.75,0,0,0-9.55-3.69c-6.54,0-10.05,2.85-10.05,11.06v50.43H491.78V72.06c4.19-10.55,12.73-17.92,27.48-17.92,9.55,0,15.24,3.85,18.76,7.2Z"/><path class="cls-1" d="M618.26,55.31v45.07c0,19.93-14.24,32.5-34.84,32.5-20.78,0-35-12.57-35-32.5V55.31h17.43V99.87c0,10.39,7,17.59,17.59,17.59,10.38,0,17.42-7.2,17.42-17.59V55.31Z"/><path class="cls-1" d="M694.15,108.08c0,15.75-11.56,23.63-28.65,23.63H633.84V117H665c8,0,11.39-3,11.39-8.37s-1.67-8.55-8.54-8.55h-7.54c-16.42,0-27.14-7.37-27.14-22.28,0-15.41,11.06-22.45,28-22.45H690.8V70.05H662.32c-8,0-11.39,2.18-11.39,7.71,0,5.36,2.84,7.2,10.22,7.2h7.7C685.94,85,694.15,92.84,694.15,108.08Z"/><path class="cls-1" d="M764.51,99.71v5.19c0,18.1-10.56,28-27.81,28-17.43,0-27.81-9.88-27.81-28V38.56h17.42V62.51h32.33V77.59H726.31V104.9c0,8.54,2.51,12.56,10.39,12.56,7.7,0,10.38-4,10.38-12.56V99.71Z"/><path class="cls-1" d="M839.72,71.23h46.57V31.52h18.1V131.71h-18.1V87H839.72v44.74h-18.1V31.52h18.1Z"/><path class="cls-1" d="M1006.74,93.51c0,23.45-19.43,39.37-42.89,39.37S921,117,921,93.51c0-23.62,19.44-39.37,42.89-39.37S1006.74,69.89,1006.74,93.51Zm-18.09,0c0-13.91-10.89-24-24.8-24s-24.79,10-24.79,24,10.89,23.95,24.79,23.95S988.65,107.41,988.65,93.51Z"/><path class="cls-1" d="M1039.06,131.71h-17.42V17.78h17.42Z"/><path class="cls-1" d="M1066.2,42.58c-7.37,0-11.39-4-11.39-11.4s4-11.22,11.39-11.22,11.39,3.85,11.39,11.22S1073.57,42.58,1066.2,42.58Zm8.71,89.13h-17.42V55.31h17.42Z"/><path class="cls-1" d="M1157.5,64.52V17.78h17.43v85.11a41.45,41.45,0,0,1-16.42,22.79c-7.37,4.69-16.59,7.2-26.81,7.2-22.45,0-41.88-15.75-41.88-39.37,0-23.46,19.43-39.37,41.88-39.37C1141.92,54.14,1152.31,58.66,1157.5,64.52Zm0,29c0-13.91-10.89-24-24.79-24s-24.8,10-24.8,24,10.89,23.95,24.8,23.95S1157.5,107.41,1157.5,93.51Z"/><path class="cls-1" d="M1257.34,84v29.15c-6.37,13.07-17.42,19.77-34.34,19.77-17.09,0-33.34-8.38-33.34-24.8,0-13.4,10.72-22.78,30.82-22.78h19.44V84c0-9.89-7.21-14.75-17.42-14.75-8.38,0-16.26,3-22.62,6.54l-7.37-13.57a61.56,61.56,0,0,1,30-8C1242.26,54.14,1257.34,64.19,1257.34,84Zm-17.42,15.75h-19.44c-9.21,0-12.9,2.68-12.9,8.21,0,6.86,6.87,9.88,15.59,9.88,8.37,0,16.75-2.68,16.75-12.4Z"/><path class="cls-1" d="M1296.37,164.71h-19.1l18.1-41.21-31.16-68.19h19.26l21.11,47.58,19.1-47.58h18.77Z"/><path class="cls-1" d="M1411.46,108.08c0,15.75-11.56,23.63-28.65,23.63h-31.66V117h31.16c8,0,11.39-3,11.39-8.37S1392,100,1385.16,100h-7.54c-16.42,0-27.14-7.37-27.14-22.28,0-15.41,11.06-22.45,28-22.45h29.65V70.05h-28.48c-8,0-11.39,2.18-11.39,7.71,0,5.36,2.84,7.2,10.22,7.2h7.7C1403.25,85,1411.46,92.84,1411.46,108.08Z"/><path class="cls-1" d="M460.39,172.26h2.36L450.7,196.42v21.43h-2V196.41l-12-24.15H439l10.71,21.62Z"/><path class="cls-1" d="M495,198.52V208a10.89,10.89,0,1,1-21.77,0v-9.48a10.89,10.89,0,0,1,21.77,0Zm-2.07,0a8.82,8.82,0,0,0-17.63,0V208a8.82,8.82,0,1,0,17.63,0Z"/><path class="cls-1" d="M534.4,188.3v29.61h-2v-4.56a10.61,10.61,0,0,1-19.2-6.22V188.3h2v18.83a8.59,8.59,0,1,0,17.18,0V188.3Z"/><path class="cls-1" d="M570.9,192l-1.57,1.27a3.62,3.62,0,0,0-.38-.41,8.36,8.36,0,0,0-14.27,5.91v19.08h-2V188.3h2v4.31a10.37,10.37,0,0,1,15.7-1.2A6.89,6.89,0,0,1,570.9,192Z"/><path class="cls-1" d="M617.55,172.26h23.14v2h-9.92v43.55h-2V174.24H617.55Z"/><path class="cls-1" d="M669.33,192l-1.57,1.27a4.72,4.72,0,0,0-.37-.41,8.37,8.37,0,0,0-14.28,5.91v19.08h-2V188.3h2v4.31a10.37,10.37,0,0,1,15.7-1.2A5.48,5.48,0,0,1,669.33,192Z"/><path class="cls-1" d="M708.8,188.3v29.61h-2v-4.56a10.61,10.61,0,0,1-19.2-6.22V188.3h2v18.83a8.59,8.59,0,1,0,17.18,0V188.3Z"/><path class="cls-1" d="M746.26,211.19a3.22,3.22,0,0,1-.07.93A5.2,5.2,0,0,1,745,214.2c-3.29,4.28-10.47,3.21-11,2.9a10.16,10.16,0,0,1-7-9.16h0l1.92-.5v0a8.22,8.22,0,0,0,5.86,7.87,8.67,8.67,0,0,0,2.35.34,8.24,8.24,0,0,0,7.14-4.16.89.89,0,0,0,0-.23c-.12-2.4-4.43-5.78-8.23-8.76-2.85-2.24-5.44-4.26-6.8-6.15a5.08,5.08,0,0,1-1-2.25c0-.12,0-.23,0-.34a10.12,10.12,0,0,1,8.89-5.28,10.35,10.35,0,0,1,2.86.4,10.12,10.12,0,0,1,5.76,4.43h0l-1.55,1.17a8.19,8.19,0,0,0-14-.32c.53,1.73,4,4.42,7,6.81,3.32,2.6,6.51,5.1,8,7.54A5.42,5.42,0,0,1,746.26,211.19Z"/><path class="cls-1" d="M790.19,214.17a6.92,6.92,0,0,1-.53.56,10.44,10.44,0,0,1-17.83-7.38l0-14.28h-7.36v-2h7.36l0-18.82h2l-.05,18.82h9.41v2H773.9l0,14.28a8.41,8.41,0,0,0,14.37,6,5,5,0,0,0,.38-.41Z"/><path class="cls-1" d="M810.41,203.27v4.54a8.44,8.44,0,0,0,15.46,4.68l1.42,1.42a10.41,10.41,0,0,1-18.86-6.1v-9.08a10.43,10.43,0,1,1,20.85,0v4.54Zm0-1.86h16.88v-2.68a8.44,8.44,0,1,0-16.88,0Z"/><path class="cls-1" d="M868.78,172.26v45.41h-2v-3.4a10.62,10.62,0,0,1-19.24-6.21V198.8a10.63,10.63,0,0,1,19.24-6.23V172.26Zm-2,26.54a8.61,8.61,0,1,0-17.22,0v9.26a8.61,8.61,0,0,0,17.22,0Z"/><path class="cls-1" d="M915.4,172.26h23.14v2h-9.92v43.55h-2V174.24H915.4Z"/><path class="cls-1" d="M967.18,192l-1.57,1.27a4.72,4.72,0,0,0-.37-.41A8.37,8.37,0,0,0,951,198.74v19.08h-2V188.3h2v4.31a10.37,10.37,0,0,1,15.7-1.2A5.48,5.48,0,0,1,967.18,192Z"/><path class="cls-1" d="M1006.29,188.39v29.1h-2v-3.33a10.42,10.42,0,0,1-18.87-6.1V199a10.42,10.42,0,0,1,18.87-6.11v-4.49Zm-2,10.6a8.45,8.45,0,1,0-16.89,0v9.07a8.45,8.45,0,0,0,16.89,0Z"/><path class="cls-1" d="M1049.2,188.3l-10.48,29.52h-2.16l-12-29.52h2.16l10.91,26.7,9.46-26.7Z"/><path class="cls-1" d="M1069.43,203.27v4.54a8.44,8.44,0,0,0,15.46,4.68l1.43,1.42a10.42,10.42,0,0,1-18.87-6.1v-9.08a10.43,10.43,0,1,1,20.85,0v4.54Zm0-1.86h16.89v-2.68a8.45,8.45,0,1,0-16.89,0Z"/><path class="cls-1" d="M1106.54,217.79V172.26h2v45.53Z"/><path class="cls-1" d="M1176,183.12A10.87,10.87,0,0,1,1165.18,194h-8v23.81h-2V172.28h.59v0h9.45A10.87,10.87,0,0,1,1176,183.12Zm-2.07,0a8.8,8.8,0,0,0-8.79-8.8h-8v17.59h8A8.8,8.8,0,0,0,1174,183.12Z"/><path class="cls-1" d="M1208.63,188.39v29.1h-2v-3.33a10.43,10.43,0,0,1-18.88-6.1V199a10.42,10.42,0,0,1,18.88-6.11v-4.49Zm-2,10.6a8.45,8.45,0,1,0-16.89,0v9.07a8.45,8.45,0,0,0,16.89,0Z"/><path class="cls-1" d="M1245.1,192l-1.57,1.27a3.62,3.62,0,0,0-.38-.41,8.36,8.36,0,0,0-14.27,5.91v19.08h-2V188.3h2v4.31a10.36,10.36,0,0,1,15.69-1.2A5.58,5.58,0,0,1,1245.1,192Z"/><path class="cls-1" d="M1289,214.17c-.16.19-.34.38-.52.56a10.44,10.44,0,0,1-17.83-7.38l0-14.28h-7.36v-2h7.36l0-18.82h2l-.06,18.82h9.42v2h-9.42l0,14.28a8.43,8.43,0,0,0,8.42,8.42,8.34,8.34,0,0,0,6-2.47,2.93,2.93,0,0,0,.38-.41Z"/><path class="cls-1" d="M1328.11,199.09V217.6h-2V199.09a8.44,8.44,0,1,0-16.88,0V217.6h-2V188.49h2V193a10.42,10.42,0,0,1,18.87,6.11Z"/><path class="cls-1" d="M1348.33,203.27v4.54a8.44,8.44,0,0,0,15.46,4.68l1.42,1.42a10.42,10.42,0,0,1-18.87-6.1v-9.08a10.43,10.43,0,1,1,20.85,0v4.54Zm0-1.86h16.88v-2.68a8.44,8.44,0,1,0-16.88,0Z"/><path class="cls-1" d="M1403.66,192l-1.57,1.27a4.72,4.72,0,0,0-.37-.41,8.37,8.37,0,0,0-14.28,5.91v19.08h-2V188.3h2v4.31a10.37,10.37,0,0,1,15.7-1.2A5.48,5.48,0,0,1,1403.66,192Z"/><path class="cls-2" d="M354.34,35.83V157.49l-.2-.31c-22.64-34.8-121.92-91.62-121.92-91.62l25.13-9.75L218.6,57.44,191,44.44l23.38,19.25L202,88.19l2,.5,18-18h3.5c86.44,52.48,119.2,119,125.72,133.92l.17.39c.81,2,1.72,4.87,1.78,5.07h0a35.85,35.85,0,0,1-34.63,26.59h-22c-31.54,0-65.32-9-65.32-9C29.71,162.57,5.06,62.86,2,54.08c-1.62-4.65-2-12-2-18,0-.4,0-.79,0-1.18A35.83,35.83,0,0,1,35.82,0H318.51a37.14,37.14,0,0,1,5.41.4H324A35.84,35.84,0,0,1,354.34,35.83Z"/><path class="cls-3" d="M354.14,157.18c-22.64-34.8-121.92-91.62-121.92-91.62l25.13-9.75L218.6,57.44,191,44.44l23.38,19.25L202,88.19l2,.5,18-18h3.5c86.44,52.48,119.2,119,125.72,133.92l.17.39c.81,2,1.72,4.87,1.78,5.07v0a35.68,35.68,0,0,0,1.19-9.19V157.49Z"/><path class="cls-1" d="M63.25,236.67H35.82a35.69,35.69,0,0,1-18.55-5.17l0,0A35.81,35.81,0,0,1,0,200.84V177.17Z"/><path class="cls-1" d="M0,155.67v-28.5s47.25,71.5,132,109.5H88.5S21,189.17,0,155.67Z"/></g></g></svg>