<svg width="26" height="26" viewBox="0 0 26 26" fill="none" xmlns="http://www.w3.org/2000/svg">
<g clip-path="url(#clip0_35_703)">
<path d="M12.8584 0C5.84425 0 0.157715 5.68653 0.157715 12.7007C0.157715 19.7148 5.84425 25.4014 12.8584 25.4014C19.8726 25.4014 25.5591 19.7148 25.5591 12.7007C25.5591 5.68653 19.8726 0 12.8584 0Z" fill="black"/>
<path d="M14.2481 11.5513L19.6851 5.23123H18.3967L13.6757 10.7189L9.90511 5.23123H5.55615L11.258 13.5295L5.55615 20.1571H6.84462L11.8301 14.362L15.8121 20.1571H20.1611L14.2477 11.5513H14.2481ZM7.30887 6.20118H9.28788L18.3973 19.2313H16.4182L7.30887 6.20118Z" fill="white"/>
</g>
<defs>
<clipPath id="clip0_35_703">
<rect width="25.4014" height="25.4014" fill="white" transform="translate(0.157715)"/>
</clipPath>
</defs>
</svg>
