<svg width="94" height="91" viewBox="0 0 94 91" fill="none" xmlns="http://www.w3.org/2000/svg">
<path d="M87.1105 45.2913L78.7698 73.6818C78.3081 75.2933 77.3146 76.7007 75.9513 77.6743C74.588 78.6479 72.9354 79.1302 71.2631 79.0426C70.7124 80.5954 69.7457 81.9666 68.4688 83.0064C67.1919 84.0461 65.6541 84.7143 64.0234 84.9378L19.267 90.9165C18.8631 90.9687 18.4565 90.9966 18.0493 91C15.8707 90.9923 13.7682 90.1973 12.1285 88.7613C10.4888 87.3253 9.42212 85.3449 9.12469 83.1843L4.00349 45.2913H87.1105Z" fill="#FE983D"/>
<path d="M93.2493 17.4686L92.4986 17.836L93.2159 17.4018L93.1158 17.1512C92.968 16.9031 92.8065 16.6633 92.6321 16.4331L92.532 16.2995C92.4481 16.1493 92.3474 16.0093 92.2317 15.882C91.2962 14.7808 90.0621 13.9746 88.6786 13.5607L62.1884 5.77833C61.463 3.88694 60.1215 2.29584 58.3809 1.26239C56.6402 0.228943 54.6022 -0.186406 52.5966 0.0835281L7.79018 6.14574C5.42798 6.46535 3.28922 7.71094 1.84405 9.6087C0.398877 11.5065 -0.234429 13.9011 0.0833465 16.2661L4.00349 45.2913L9.12469 83.1843C9.42212 85.3449 10.4888 87.3253 12.1285 88.7613C13.7682 90.1973 15.8707 90.9923 18.0493 91C18.4565 90.9966 18.8631 90.9687 19.267 90.9165L64.0567 84.8543C65.6874 84.6308 67.2253 83.9626 68.5022 82.9229C69.779 81.8831 70.7457 80.5119 71.2965 78.9591C72.9688 79.0467 74.6214 78.5644 75.9847 77.5908C77.348 76.6172 78.3415 75.2098 78.8031 73.5983L87.1439 45.2913L93.8164 22.8294C94.3076 21.0346 94.1051 19.1205 93.2493 17.4686ZM67.9935 76.5877C67.8562 77.7292 67.3445 78.7928 66.5384 79.6119C65.7324 80.4309 64.6777 80.959 63.5396 81.1134L18.7332 87.1757C17.3645 87.3561 15.98 86.9866 14.8828 86.1478C13.7855 85.3091 13.0647 84.0694 12.878 82.7L7.87359 45.2913L3.83667 15.7818C3.74539 15.1005 3.78968 14.4078 3.96699 13.7437C4.1443 13.0796 4.45113 12.4571 4.86979 11.9123C5.28846 11.3674 5.81068 10.9108 6.40637 10.5689C7.00207 10.227 7.65946 10.0064 8.34067 9.92001L53.1471 3.8411C53.3632 3.81683 53.5815 3.81683 53.7976 3.8411C55.0552 3.84525 56.269 4.30365 57.216 5.13203C58.1629 5.96042 58.7795 7.10314 58.9522 8.35018L63.9566 45.3414L67.9935 75.1514C68.0669 75.6274 68.0669 76.1117 67.9935 76.5877ZM63.8566 16.2327L75.4502 19.5728L70.5291 36.2731L66.4088 35.054L63.8566 16.2327ZM75.1499 72.5295C74.9332 73.2742 74.4847 73.9302 73.8695 74.4019C73.2544 74.8735 72.5049 75.1361 71.7302 75.1514V74.7172L70.6626 66.9182L76.8347 45.9593L82.4731 47.6293L75.1499 72.5295ZM69.4615 57.6996L69.0778 54.8104L71.8637 45.2913C71.9592 44.8236 71.8758 44.3371 71.6299 43.9281C71.3841 43.5191 70.9937 43.2174 70.5362 43.083C70.0787 42.9485 69.5875 42.991 69.1598 43.2021C68.7321 43.4131 68.3992 43.7773 68.2271 44.2225L67.9101 45.3247L67.8101 45.642V45.3247L66.9927 39.3126L71.3132 40.5818C71.5497 40.6529 71.7981 40.676 72.0437 40.6496C72.2893 40.6232 72.5271 40.5478 72.7432 40.428C72.9593 40.3082 73.1492 40.1463 73.3018 39.9518C73.4545 39.7574 73.5667 39.5344 73.6319 39.2959L79.6372 18.9048C79.773 18.43 79.7191 17.921 79.4871 17.4853C79.259 17.042 78.8715 16.7019 78.4028 16.5333L63.3895 12.1078L62.9891 10.0202L81.8392 15.5647L73.0981 45.2913L69.4615 57.6996ZM90.0798 21.7104L83.5574 43.9218L77.919 42.2518L85.4757 16.5834L87.5943 17.2013C88.405 17.4574 89.1049 17.9815 89.5794 18.6877C89.6538 18.7766 89.7208 18.8715 89.7795 18.9716C90.224 19.813 90.3314 20.7925 90.0798 21.7104Z" fill="#1E1E1E"/>
<path d="M53.8644 67.1353C54.1133 67.1063 54.354 67.0284 54.5727 66.906C54.7914 66.7835 54.9838 66.6191 55.1388 66.422C55.2938 66.2249 55.4084 65.9991 55.476 65.7575C55.5436 65.5159 55.5628 65.2634 55.5325 65.0143C55.4466 64.5258 55.1736 64.0902 54.7717 63.8001C54.3698 63.51 53.8707 63.3884 53.3806 63.4612L23.8711 67.3691C23.6206 67.398 23.3784 67.4764 23.1584 67.5999C22.9385 67.7234 22.7453 67.8894 22.5901 68.0883C22.4349 68.2873 22.3207 68.5151 22.2542 68.7586C22.1878 69.0021 22.1703 69.2564 22.203 69.5067C22.2525 69.9673 22.471 70.3931 22.8162 70.7016C23.1613 71.0101 23.6086 71.1794 24.0713 71.1768L53.8644 67.1353Z" fill="#1E1E1E"/>
<path d="M54.4983 71.8114L25.0221 75.7693C24.7732 75.7983 24.5325 75.8762 24.3138 75.9986C24.0951 76.1211 23.9027 76.2855 23.7476 76.4826C23.5926 76.6797 23.478 76.9056 23.4105 77.1471C23.3429 77.3887 23.3237 77.6412 23.354 77.8903C23.4105 78.348 23.6311 78.7695 23.9747 79.0767C24.3184 79.3839 24.7617 79.5557 25.2223 79.5603L55.0487 75.5188C55.2976 75.4899 55.5384 75.4119 55.7571 75.2895C55.9758 75.1671 56.1682 75.0026 56.3232 74.8055C56.4782 74.6084 56.5928 74.3826 56.6604 74.141C56.7279 73.8995 56.7471 73.6469 56.7169 73.3979C56.6901 73.1478 56.6137 72.9056 56.4921 72.6856C56.3705 72.4655 56.2061 72.272 56.0088 72.1164C55.8114 71.9608 55.585 71.8463 55.3427 71.7796C55.1005 71.7129 54.8474 71.6953 54.5983 71.7279L54.4983 71.8114Z" fill="#1E1E1E"/>
<path d="M55.4825 33.267C54.7348 27.7438 51.8261 22.7442 47.3963 19.368C42.9665 15.9918 37.3785 14.5156 31.8615 15.2641C26.3445 16.0126 21.3505 18.9246 17.9782 23.3594C14.6058 27.7942 13.1312 33.3885 13.8789 38.9117C14.4969 43.3113 16.4878 47.4029 19.5673 50.602L19.6674 50.7356C21.6238 52.7369 23.9593 54.3275 26.5372 55.4143C29.1151 56.5011 31.8836 57.0623 34.6807 57.065C35.5281 57.0653 36.3748 57.0152 37.2163 56.9147C37.3215 56.9273 37.4279 56.9273 37.5332 56.9147H37.7167C40.9082 56.4338 43.9475 55.2282 46.6018 53.39C49.2561 51.5519 51.4551 49.1301 53.0303 46.31L53.5641 45.2913C55.379 41.5619 56.0467 37.3769 55.4825 33.267ZM45.607 36.6071L51.8626 35.7721C51.9328 38.2813 51.4427 40.7746 50.428 43.0701C48.9032 42.5647 47.3335 42.2067 45.7405 42.0013C45.823 40.1801 45.7784 38.3553 45.607 36.5403V36.6071ZM51.3455 32.0145L45.0899 32.8495C44.7719 31.0818 44.3429 29.336 43.8054 27.6223C45.2816 26.9955 46.6947 26.2294 48.0258 25.3344C49.5982 27.2719 50.7309 29.5284 51.3455 31.9477V32.0145ZM45.2734 22.6289C44.3621 23.1819 43.4147 23.6729 42.4376 24.0986C41.7426 22.5701 40.887 21.1202 39.8853 19.7732C41.8302 20.3808 43.6538 21.3247 45.2734 22.5621V22.6289ZM41.8537 37.1248C41.9828 38.652 42.0218 40.1856 41.9705 41.7174C40.4231 41.6859 38.8751 41.7361 37.333 41.8677L36.7992 37.8095L41.8537 37.1248ZM36.2821 34.052L35.7316 29.9938C37.2575 29.7164 38.7667 29.354 40.2523 28.9083C40.7073 30.3702 41.0694 31.8595 41.3366 33.3672L36.2821 34.052ZM38.8511 25.3678C37.6562 25.7256 36.442 26.0155 35.2145 26.2362L34.3137 19.5561C36.3393 21.002 37.9129 22.9943 38.8511 25.301V25.3678ZM33.5797 42.3019C32.0601 42.5829 30.5566 42.9453 29.0757 43.3874C28.6152 41.9303 28.242 40.4469 27.9581 38.9452L32.9625 38.2604L33.5797 42.3019ZM30.577 20.0404L31.4778 26.7205C30.2358 26.8356 28.9885 26.8858 27.7412 26.8708C27.9901 24.3631 28.9771 21.9859 30.577 20.0404ZM27.3575 30.6117C28.9056 30.6446 30.4543 30.5832 31.995 30.428L32.5455 34.5029L27.541 35.1876C27.3723 33.6685 27.311 32.1394 27.3575 30.6117ZM25.239 21.7104C24.6477 23.2655 24.2173 24.8771 23.9545 26.5201C22.9015 26.3799 21.8593 26.1678 20.8351 25.8855C22.0478 24.2466 23.5384 22.8335 25.239 21.7104ZM18.8833 29.2423C20.4071 29.7514 21.9771 30.1094 23.5708 30.3111C23.5062 32.1105 23.5563 33.9123 23.721 35.7053L17.4487 36.5403C17.3819 34.0313 17.8719 31.5388 18.8833 29.2423ZM24.0546 49.6667C24.9585 49.1158 25.9007 48.6302 26.8738 48.2138C27.5568 49.7136 28.3895 51.1404 29.3593 52.4724C27.4408 51.8549 25.6454 50.9053 24.0546 49.6667ZM30.4603 46.9279C31.6571 46.5818 32.8709 46.2975 34.0968 46.0762L34.9976 52.7563C32.9412 51.307 31.3618 49.2782 30.4603 46.9279ZM40.9196 48.1303C40.5249 49.6382 39.7757 51.0297 38.7343 52.1885L37.8335 45.5084C39.1346 45.4082 40.3857 45.3581 41.5534 45.3748C41.4125 46.3081 41.2006 47.2293 40.9196 48.1303ZM44.1057 50.5185C44.2558 50.1177 44.406 49.6834 44.5561 49.2492C44.9096 48.0904 45.1772 46.907 45.3568 45.7088C46.4088 45.8626 47.4505 46.0801 48.4762 46.3601C47.2707 47.9889 45.7919 49.3959 44.1057 50.5185ZM21.2855 46.9613C20.8516 46.4334 20.4558 45.8754 20.1011 45.2913C19.1176 43.7509 18.396 42.0579 17.9659 40.2812L24.2214 39.4462C24.5375 41.2088 24.9666 42.9492 25.5059 44.6567L24.1714 45.2746C23.1731 45.7722 22.209 46.3356 21.2855 46.9613Z" fill="#1E1E1E"/>
</svg>
