<svg width="94" height="91" viewBox="0 0 94 91" fill="none" xmlns="http://www.w3.org/2000/svg">
<path d="M93.2326 17.4718L92.4819 17.8225L93.2159 17.4049L93.0991 17.1544C92.9582 16.9057 92.8022 16.6658 92.6321 16.4362L92.532 16.3025C92.4521 16.1498 92.351 16.0092 92.2317 15.8849C91.3008 14.7784 90.065 13.9709 88.6786 13.5632L62.1884 5.7794C61.463 3.88766 60.1215 2.29626 58.3809 1.26262C56.6402 0.228988 54.6022 -0.186437 52.5966 0.0835466L7.79018 6.14687C5.42798 6.46654 3.28922 7.71236 1.84405 9.61047C0.398875 11.5086 -0.234431 13.9036 0.0833446 16.2691L9.12469 83.1995C9.4258 85.3575 10.4941 87.3343 12.1334 88.7672C13.7728 90.2001 15.8732 90.9928 18.0493 91C18.4492 91.0249 18.8504 91.0249 19.2503 91L64.04 84.9534C65.6746 84.7338 67.2164 84.0651 68.4944 83.0213C69.7724 81.9775 70.7365 80.5996 71.2798 79.0404C72.954 79.1373 74.611 78.6584 75.9762 77.6833C77.3414 76.7082 78.3329 75.2952 78.7865 73.6786L93.6997 22.9171C94.2523 21.1097 94.0849 19.1583 93.2326 17.4718ZM90.0798 21.7144L83.5574 43.9299L77.919 42.2596L85.4757 16.5865L87.5943 17.2045C88.405 17.4606 89.1049 17.9848 89.5794 18.6911C89.6538 18.78 89.7208 18.875 89.7795 18.9751C90.2257 19.8162 90.3331 20.7964 90.0798 21.7144ZM82.4731 47.6214L75.1499 72.5428C74.9309 73.2863 74.4817 73.941 73.8671 74.4123C73.2525 74.8837 72.5042 75.1473 71.7302 75.1652V74.7309L70.6626 66.9305L76.818 45.951L82.4731 47.6214ZM75.4502 19.6432L70.5291 36.3466L66.4088 35.1439L63.8565 16.2357L75.4502 19.6432ZM71.8803 45.2662C72.0154 44.779 71.9549 44.2583 71.7118 43.8151C71.4687 43.372 71.0622 43.0415 70.5792 42.8943C70.0993 42.7638 69.5876 42.825 69.152 43.065C68.7163 43.3049 68.3907 43.7048 68.2438 44.1805L67.8101 45.617L66.9593 39.2697L71.2631 40.5391C71.5008 40.6105 71.7503 40.6337 71.997 40.6075C72.2437 40.5813 72.4827 40.5061 72.7002 40.3864C72.9176 40.2667 73.109 40.1048 73.2632 39.9102C73.4174 39.7156 73.5314 39.4922 73.5985 39.253L79.6038 18.8748C79.7311 18.3993 79.6776 17.8934 79.4537 17.4551C79.2323 17.0266 78.8567 16.6982 78.4028 16.5364L63.3895 12.11L62.9891 10.0221L81.8392 15.5676L69.4615 57.7102L69.0612 54.8205L71.8803 45.2662ZM67.9935 76.6017C67.8527 77.7448 67.3376 78.809 66.5288 79.628C65.7199 80.447 64.6629 80.9746 63.5229 81.1283L18.7332 87.1917C17.3619 87.3719 15.9753 87 14.8775 86.1576C13.7798 85.3153 13.0607 84.0712 12.878 82.6984L3.83667 15.7847C3.73918 15.1061 3.77902 14.4148 3.95384 13.7519C4.12865 13.0891 4.43486 12.4682 4.85424 11.9262C5.27274 11.3749 5.79644 10.9124 6.39494 10.5654C6.99345 10.2185 7.65482 9.99404 8.34066 9.90513L53.1304 3.84181C53.3522 3.81792 53.5759 3.81792 53.7976 3.84181C55.0542 3.84943 56.2662 4.30913 57.2124 5.13704C58.1587 5.96494 58.7761 7.10589 58.9522 8.35172L67.9935 75.1652C68.0669 75.6412 68.0669 76.1257 67.9935 76.6017Z" fill="#1E1E1E"/>
<path d="M53.8644 67.1476C54.1133 67.1186 54.354 67.0407 54.5727 66.9182C54.7914 66.7958 54.9838 66.6313 55.1388 66.4342C55.2938 66.237 55.4084 66.0112 55.476 65.7696C55.5436 65.528 55.5628 65.2753 55.5325 65.0263C55.4427 64.5396 55.1688 64.1065 54.7679 63.8171C54.367 63.5277 53.8701 63.4044 53.3806 63.4729L23.8711 67.3815C23.6206 67.4103 23.3784 67.4888 23.1584 67.6123C22.9385 67.7358 22.7453 67.9019 22.5901 68.1008C22.4349 68.2998 22.3207 68.5277 22.2542 68.7712C22.1878 69.0148 22.1703 69.2691 22.203 69.5195C22.2522 69.9773 22.4684 70.4008 22.81 70.709C23.1516 71.0172 23.5948 71.1884 24.0546 71.1898L53.8644 67.1476Z" fill="#1E1E1E"/>
<path d="M54.4982 71.8246L25.0221 75.7833C24.7732 75.8122 24.5325 75.8902 24.3138 76.0126C24.0951 76.1351 23.9027 76.2996 23.7476 76.4967C23.5926 76.6938 23.478 76.9197 23.4105 77.1613C23.3429 77.4029 23.3237 77.6555 23.354 77.9046C23.4105 78.3624 23.6311 78.784 23.9747 79.0912C24.3183 79.3985 24.7617 79.5703 25.2223 79.5749L55.0487 75.5327C55.2976 75.5037 55.5384 75.4258 55.7571 75.3034C55.9758 75.1809 56.1682 75.0164 56.3232 74.8193C56.4782 74.6221 56.5928 74.3963 56.6604 74.1547C56.7279 73.9131 56.7471 73.6605 56.7169 73.4114C56.6901 73.1613 56.6137 72.919 56.4921 72.6989C56.3704 72.4788 56.2061 72.2853 56.0088 72.1297C55.8114 71.974 55.5849 71.8595 55.3427 71.7928C55.1005 71.726 54.8474 71.7084 54.5983 71.741L54.4982 71.8246Z" fill="#1E1E1E"/>
<path d="M37.2329 56.992C37.3383 57.004 37.4446 57.004 37.5499 56.992H37.7167C40.91 56.5164 43.9522 55.3147 46.6096 53.479C49.267 51.6433 51.4691 49.2224 53.047 46.402C54.9383 42.9994 55.8489 39.1377 55.6773 35.2473C55.5058 31.357 54.2588 27.5907 52.0753 24.3682C49.8918 21.1457 46.8577 18.5936 43.3109 16.9962C39.7641 15.3988 35.844 14.8189 31.9874 15.3211C28.1308 15.8233 24.4893 17.3878 21.4685 19.8404C18.4477 22.293 16.1663 25.5373 14.8786 29.2118C13.5908 32.8863 13.3473 36.8467 14.1752 40.6516C15.0031 44.4565 16.8698 47.9565 19.5673 50.7616L19.6674 50.8785C21.6207 52.8855 23.9552 54.481 26.5336 55.571C29.1119 56.6611 31.8819 57.2237 34.6807 57.2258C35.5353 57.1991 36.3876 57.1211 37.2329 56.992ZM20.8351 25.8736C22.044 24.2357 23.5354 22.8272 25.239 21.7144C24.6378 23.2666 24.2072 24.8796 23.9545 26.525C22.8997 26.3873 21.8569 26.1695 20.8351 25.8736ZM23.721 35.7119L17.4487 36.547C17.3827 34.0394 17.8667 31.5477 18.8667 29.2477C20.3967 29.7549 21.9721 30.1129 23.5708 30.3167C23.4895 32.1163 23.5397 33.9195 23.721 35.7119ZM48.4596 46.3686C47.2627 48.0054 45.7824 49.4141 44.089 50.5278C44.2558 50.1102 44.406 49.6926 44.5394 49.2583C44.9066 48.1019 45.18 46.9177 45.3568 45.7172C46.4064 45.8532 47.4438 46.071 48.4596 46.3686ZM45.607 36.547L51.8626 35.6952C51.9247 38.2096 51.435 40.707 50.428 43.0112C48.9028 42.5036 47.3334 42.1401 45.7405 41.9255C45.8199 40.1318 45.7753 38.3346 45.607 36.547ZM26.8738 48.2394C27.5603 49.7376 28.3929 51.1643 29.3593 52.4988C27.4335 51.8785 25.6321 50.9229 24.0379 49.6759C24.9531 49.1348 25.9001 48.6495 26.8738 48.2227V48.2394ZM24.2214 39.4701C24.5213 41.2419 24.9506 42.9894 25.5059 44.6983C24.0262 45.3289 22.6078 46.0949 21.2688 46.9866C19.6864 45.0278 18.5481 42.7481 17.9325 40.3053L24.2214 39.4701ZM35.2145 26.1074L34.3137 19.4261C36.3336 20.8853 37.9053 22.8815 38.851 25.1887C37.7 25.6397 36.4823 25.9404 35.2145 26.1742V26.1074ZM27.4576 35.1272C27.3281 33.6053 27.2891 32.0771 27.3408 30.5505C28.889 30.584 30.4377 30.5226 31.9783 30.3668L32.5455 34.4424L27.4576 35.1272ZM41.8537 36.998C41.9828 38.5255 42.0218 40.0593 41.9705 41.5915C40.4231 41.56 38.8751 41.6101 37.333 41.7418L36.7825 37.6829L41.8537 36.998ZM35.7316 29.849C37.2534 29.5852 38.7575 29.2282 40.2356 28.78C40.6983 30.2412 41.0661 31.7309 41.3366 33.2398L36.3321 33.9246L35.7316 29.849ZM33.5797 42.2429C32.0604 42.5184 30.5569 42.8753 29.0757 43.3119C28.6054 41.8573 28.232 40.373 27.9581 38.8688L32.9625 38.184L33.5797 42.2429ZM45.0899 32.722C44.7725 30.9468 44.3378 29.1947 43.7888 27.4771C45.2713 26.8592 46.6904 26.0984 48.0259 25.2054C49.616 27.1592 50.7552 29.4407 51.3621 31.8868L45.0899 32.722ZM42.4209 23.9527C41.732 22.4296 40.8819 20.9848 39.8853 19.6432C41.834 20.2612 43.6541 21.229 45.2567 22.4995C44.3508 23.0766 43.4028 23.5847 42.4209 24.0195V23.9527ZM34.0802 46.0011L34.9809 52.6825C32.9361 51.228 31.3592 49.208 30.4436 46.8697C31.5946 46.6025 32.8124 46.3185 34.0802 46.068V46.0011ZM41.5534 45.3664C41.4003 46.2756 41.1885 47.1739 40.9195 48.0557C40.5112 49.5633 39.7637 50.9574 38.7343 52.1313L37.8335 45.4499C39.0723 45.3797 40.314 45.3742 41.5534 45.4332V45.3664ZM27.7412 26.809C28.0105 24.3261 28.9959 21.9755 30.577 20.0441L31.4778 26.7254C30.2346 26.8182 28.9873 26.8461 27.7412 26.809Z" fill="#1E1E1E"/>
</svg>
