<svg xmlns="http://www.w3.org/2000/svg" width="22" height="22" viewBox="0 0 22 22" fill="none">
  <rect x="0.423828" y="1" width="21" height="20" rx="7" fill="#F93646"/>
  <path fill-rule="evenodd" clip-rule="evenodd" d="M6.27381 1.63405C3.51771 1.63405 1.73659 3.52193 1.73659 6.4447V15.3427C1.73659 18.2654 3.51771 20.1533 6.27381 20.1533H15.7165C18.4736 20.1533 20.2559 18.2654 20.2559 15.3427V6.4447C20.2559 3.52193 18.4747 1.63405 15.7175 1.63405H6.27381ZM15.7165 21.7874H6.27381C2.58194 21.7874 0.102539 19.1968 0.102539 15.3427V6.4447C0.102539 2.59052 2.58194 0 6.27381 0H15.7175C19.4094 0 21.8899 2.59052 21.8899 6.4447V15.3427C21.8899 19.1968 19.4094 21.7874 15.7165 21.7874Z" fill="#F93646"/>
  <path fill-rule="evenodd" clip-rule="evenodd" d="M14.6898 13.9086C14.5471 13.9086 14.4033 13.8716 14.2715 13.7943L10.5774 11.5905C10.3312 11.4423 10.1787 11.1754 10.1787 10.8889V6.13709C10.1787 5.6861 10.5447 5.32007 10.9957 5.32007C11.4467 5.32007 11.8128 5.6861 11.8128 6.13709V10.4248L15.1092 12.389C15.4959 12.621 15.6234 13.1221 15.3924 13.5099C15.2388 13.7659 14.9676 13.9086 14.6898 13.9086Z" fill="white"/>
</svg>