<svg width="26" height="26" viewBox="0 0 26 26" fill="none" xmlns="http://www.w3.org/2000/svg">
<g clip-path="url(#clip0_35_683)">
<path d="M13.1021 25.4014C20.1164 25.4014 25.8027 19.7151 25.8027 12.7007C25.8027 5.68629 20.1164 0 13.1021 0C6.08766 0 0.401367 5.68629 0.401367 12.7007C0.401367 19.7151 6.08766 25.4014 13.1021 25.4014Z" fill="#F20000"/>
<path d="M19.1551 9.64583C18.9011 8.85705 18.0605 8.3908 17.2801 8.28218C14.4982 7.98638 11.6928 7.98638 8.91098 8.28218C8.13724 8.3908 7.29665 8.86374 7.04264 9.64583C6.64659 11.6637 6.64659 13.7393 7.04264 15.7572C7.30334 16.5443 8.14392 17.0122 8.92435 17.1209C11.7063 17.415 14.5115 17.415 17.2934 17.1209C18.0672 17.0122 18.9078 16.5376 19.1618 15.7572C19.5556 13.7389 19.5533 11.6633 19.1551 9.64583ZM11.5831 15.1339V10.2675L15.5454 12.7007C14.2102 13.5212 12.9134 14.32 11.5831 15.1339Z" fill="white"/>
</g>
<defs>
<clipPath id="clip0_35_683">
<rect width="25.4014" height="25.4014" fill="white" transform="translate(0.401367)"/>
</clipPath>
</defs>
</svg>
