<svg width="21" height="17" viewBox="0 0 21 17" fill="none" xmlns="http://www.w3.org/2000/svg">
<path d="M18.6752 7.0359C18.2043 6.82916 17.6955 6.72267 17.1812 6.72309H3.73503C3.22076 6.72257 2.71202 6.82897 2.24103 7.03543C1.57535 7.32653 1.0089 7.80527 0.610909 8.4131C0.212921 9.02098 0.000634958 9.73157 0 10.4581V15.6872C0 15.8853 0.078702 16.0753 0.218794 16.2154C0.358882 16.3555 0.548889 16.4342 0.747009 16.4342C0.945126 16.4342 1.13513 16.3555 1.27522 16.2154C1.41532 16.0753 1.49402 15.8853 1.49402 15.6872V15.3137C1.49523 15.215 1.53497 15.1207 1.60475 15.0509C1.67454 14.9811 1.76884 14.9414 1.86752 14.9402H19.0487C19.1474 14.9414 19.2417 14.9811 19.3115 15.0509C19.3813 15.1207 19.421 15.215 19.4222 15.3137V15.6872C19.4222 15.8853 19.5009 16.0753 19.6411 16.2154C19.7811 16.3555 19.9711 16.4342 20.1692 16.4342C20.3674 16.4342 20.5574 16.3555 20.6975 16.2154C20.8376 16.0753 20.9162 15.8853 20.9162 15.6872V10.4581C20.9155 9.73166 20.7032 9.02117 20.3052 8.41338C19.9072 7.80564 19.3408 7.327 18.6752 7.0359Z" fill="#FD983D"/>
<path d="M16.0599 0H4.85475C4.16134 0 3.49631 0.27546 3.00601 0.765783C2.51569 1.2561 2.24023 1.92112 2.24023 2.61453V5.97608C2.24025 6.00502 2.247 6.03355 2.25994 6.05946C2.27288 6.08533 2.29166 6.10788 2.3148 6.12524C2.33793 6.14261 2.36479 6.15438 2.39325 6.15961C2.42172 6.16484 2.45101 6.16339 2.47881 6.15536C2.88661 6.03607 3.30937 5.9757 3.73423 5.97608H3.93173C3.97785 5.97636 4.02239 5.95959 4.0569 5.92901C4.09135 5.89839 4.1133 5.85613 4.11848 5.81033C4.15924 5.44533 4.33301 5.1081 4.6066 4.86308C4.88024 4.61806 5.23451 4.48243 5.60176 4.48206H8.21629C8.58382 4.4821 8.93846 4.61759 9.21233 4.86261C9.48625 5.10768 9.66021 5.44509 9.70097 5.81033C9.70615 5.85613 9.7281 5.89839 9.7626 5.92901C9.79706 5.95959 9.84164 5.97636 9.88772 5.97608H11.0297C11.0758 5.97636 11.1204 5.95959 11.1549 5.92901C11.1893 5.89839 11.2113 5.85613 11.2165 5.81033C11.2572 5.44556 11.4308 5.10856 11.7041 4.86355C11.9774 4.61857 12.3313 4.48276 12.6983 4.48206H15.3129C15.6804 4.4821 16.0351 4.61759 16.3089 4.86261C16.5828 5.10768 16.7568 5.44509 16.7976 5.81033C16.8027 5.85613 16.8247 5.89839 16.8592 5.92901C16.8936 5.95959 16.9382 5.97636 16.9843 5.97608H17.1804C17.6053 5.97589 18.0281 6.0364 18.4358 6.15583C18.4637 6.16386 18.493 6.1653 18.5215 6.16007C18.55 6.1548 18.5769 6.14299 18.6 6.12557C18.6232 6.10811 18.642 6.08556 18.6549 6.0596C18.6678 6.03364 18.6745 6.00507 18.6744 5.97608V2.61453C18.6744 1.92112 18.399 1.2561 17.9086 0.765783C17.4183 0.27546 16.7533 0 16.0599 0Z" fill="#FD983D"/>
</svg>
