<svg width="64" height="64" viewBox="0 0 64 64" fill="none" xmlns="http://www.w3.org/2000/svg">
<path d="M12 8C11.4473 8 11 7.55225 11 7V1C11 0.447754 11.4473 0 12 0C12.5527 0 13 0.447754 13 1V7C13 7.55225 12.5527 8 12 8Z" fill="#CE4545"/>
<path d="M16 8C15.4473 8 15 7.55225 15 7V3C15 2.44775 15.4473 2 16 2C16.5527 2 17 2.44775 17 3V7C17 7.55225 16.5527 8 16 8Z" fill="#CE4545"/>
<path d="M37 6H9C8.44772 6 8 6.44772 8 7V13C8 13.5523 8.44772 14 9 14H37C37.5523 14 38 13.5523 38 13V7C38 6.44772 37.5523 6 37 6Z" fill="#EF6060"/>
<path d="M40 12H6C5.44772 12 5 12.4477 5 13V63C5 63.5523 5.44772 64 6 64H40C40.5523 64 41 63.5523 41 63V13C41 12.4477 40.5523 12 40 12Z" fill="#FF7D7D"/>
<path d="M15 17H11C10.4477 17 10 17.4477 10 18V24C10 24.5523 10.4477 25 11 25H15C15.5523 25 16 24.5523 16 24V18C16 17.4477 15.5523 17 15 17Z" fill="#E6F7FF"/>
<path d="M15 28H11C10.4477 28 10 28.4477 10 29V35C10 35.5523 10.4477 36 11 36H15C15.5523 36 16 35.5523 16 35V29C16 28.4477 15.5523 28 15 28Z" fill="#E6F7FF"/>
<path d="M15 39H11C10.4477 39 10 39.4477 10 40V46C10 46.5523 10.4477 47 11 47H15C15.5523 47 16 46.5523 16 46V40C16 39.4477 15.5523 39 15 39Z" fill="#E6F7FF"/>
<path d="M15 50H11C10.4477 50 10 50.4477 10 51V57C10 57.5523 10.4477 58 11 58H15C15.5523 58 16 57.5523 16 57V51C16 50.4477 15.5523 50 15 50Z" fill="#E6F7FF"/>
<path d="M49 20H21C20.4477 20 20 20.4477 20 21V63C20 63.5523 20.4477 64 21 64H49C49.5523 64 50 63.5523 50 63V21C50 20.4477 49.5523 20 49 20Z" fill="#FFD899"/>
<path d="M63.3715 49.0718C62.0659 48.5498 60.6091 48.6538 59.3922 49.3308L59.4076 49.2226C59.517 48.4512 59.934 47.7866 60.5815 47.3515C61.2289 46.9165 62.0033 46.7827 62.7582 46.9702C63.2895 47.1055 63.8363 46.7778 63.9701 46.2427C64.1049 45.7065 63.7787 45.1636 63.2426 45.0298C61.9496 44.7041 60.5707 44.9482 59.4652 45.6924C58.847 46.1081 58.3584 46.6697 58.0004 47.307C57.6424 46.6697 57.1537 46.1081 56.5356 45.6924C55.4301 44.9487 54.0512 44.706 52.7582 45.0298C52.2221 45.1636 51.8959 45.7065 52.0307 46.2427C52.1635 46.7778 52.7084 47.1064 53.2426 46.9702C54.0004 46.7827 54.7729 46.9165 55.4193 47.3515C56.0668 47.7866 56.4838 48.4512 56.5932 49.2231L56.6086 49.3307C55.3926 48.654 53.9366 48.5485 52.6293 49.0718C52.1166 49.2768 51.8666 49.8589 52.0717 50.3716C52.2768 50.8848 52.8647 51.1333 53.3715 50.9282C54.1996 50.5972 55.1 50.6943 55.8373 51.1938C56.5766 51.6943 57.0004 52.4931 57.0004 53.3852V63C57.0004 63.5522 57.4477 64 58.0004 64C58.5531 64 59.0004 63.5522 59.0004 63V53.3852C59.0004 52.4931 59.4242 51.6943 60.1635 51.1938C60.9008 50.6943 61.8012 50.5972 62.6293 50.9282C63.1361 51.1328 63.724 50.8848 63.9291 50.3716C64.1342 49.8589 63.8842 49.2768 63.3715 49.0718Z" fill="#B3EA7F"/>
<path d="M40 52H30C29.4477 52 29 52.4477 29 53V63C29 63.5523 29.4477 64 30 64H40C40.5523 64 41 63.5523 41 63V53C41 52.4477 40.5523 52 40 52Z" fill="#E6F7FF"/>
<path d="M35 64C34.4473 64 34 63.5522 34 63V55C34 54.4478 34.4473 54 35 54C35.5527 54 36 54.4478 36 55V63C36 63.5522 35.5527 64 35 64Z" fill="#CADCEA"/>
<path d="M29 26H25C24.4477 26 24 26.4477 24 27V33C24 33.5523 24.4477 34 25 34H29C29.5523 34 30 33.5523 30 33V27C30 26.4477 29.5523 26 29 26Z" fill="#E6F7FF"/>
<path d="M37 26H33C32.4477 26 32 26.4477 32 27V33C32 33.5523 32.4477 34 33 34H37C37.5523 34 38 33.5523 38 33V27C38 26.4477 37.5523 26 37 26Z" fill="#E6F7FF"/>
<path d="M45 26H41C40.4477 26 40 26.4477 40 27V33C40 33.5523 40.4477 34 41 34H45C45.5523 34 46 33.5523 46 33V27C46 26.4477 45.5523 26 45 26Z" fill="#E6F7FF"/>
<path d="M29 36H25C24.4477 36 24 36.4477 24 37V43C24 43.5523 24.4477 44 25 44H29C29.5523 44 30 43.5523 30 43V37C30 36.4477 29.5523 36 29 36Z" fill="#E6F7FF"/>
<path d="M37 36H33C32.4477 36 32 36.4477 32 37V43C32 43.5523 32.4477 44 33 44H37C37.5523 44 38 43.5523 38 43V37C38 36.4477 37.5523 36 37 36Z" fill="#E6F7FF"/>
<path d="M45 36H41C40.4477 36 40 36.4477 40 37V43C40 43.5523 40.4477 44 41 44H45C45.5523 44 46 43.5523 46 43V37C46 36.4477 45.5523 36 45 36Z" fill="#E6F7FF"/>
<path d="M63 64H1C0.447266 64 0 63.5522 0 63C0 62.4478 0.447266 62 1 62H63C63.5527 62 64 62.4478 64 63C64 63.5522 63.5527 64 63 64Z" fill="#FCB677"/>
<path d="M35 47C30.5889 47 27 50.5889 27 55C27 55.5522 27.4473 56 28 56H42C42.5527 56 43 55.5522 43 55C43 50.5889 39.4111 47 35 47Z" fill="#FCB677"/>
</svg>
